<svg width="1075" height="553" viewBox="-40 -40 1075 553" fill="none" xmlns="http://www.w3.org/2000/svg"><path d="M153.246 396.771c0-17.487 14.176-31.663 31.663-31.663h241.792c17.488 0 31.664 14.176 31.664 31.663 0 17.488-14.176 31.664-31.664 31.664H184.909c-17.487 0-31.663-14.176-31.663-31.664zM178.317 137.628c0-17.487 14.176-31.663 31.664-31.663h702.435c17.488 0 31.664 14.176 31.664 31.663 0 17.488-14.176 31.664-31.664 31.664H209.981c-17.488 0-31.664-14.176-31.664-31.664z" fill="#00AD9F"/><path d="M195.332 405.94v-17.063h5.977c2.07 0 3.64.399 4.711 1.196 1.07.789 1.605 1.949 1.605 3.48 0 .836-.215 1.574-.644 2.215-.43.633-1.028 1.097-1.793 1.394.875.219 1.562.661 2.062 1.325.508.664.762 1.476.762 2.437 0 1.641-.524 2.883-1.571 3.727-1.046.843-2.539 1.273-4.476 1.289h-6.633zm3.516-7.43v4.605h3.011c.829 0 1.473-.195 1.934-.585.469-.399.703-.946.703-1.641 0-1.563-.808-2.356-2.426-2.379h-3.222zm0-2.484h2.601c1.774-.032 2.66-.739 2.66-2.121 0-.774-.226-1.329-.679-1.665-.446-.343-1.153-.515-2.121-.515h-2.461v4.301zM218.031 404.651c-.836 1.015-1.992 1.523-3.468 1.523-1.36 0-2.399-.391-3.118-1.172-.711-.781-1.074-1.926-1.089-3.433v-8.309h3.386v8.191c0 1.321.602 1.981 1.805 1.981 1.148 0 1.937-.399 2.367-1.195v-8.977h3.399v12.68h-3.188l-.094-1.289zM227.441 405.94h-3.398v-12.68h3.398v12.68zm-3.597-15.961c0-.508.168-.926.504-1.254.343-.328.808-.492 1.394-.492.578 0 1.039.164 1.383.492.344.328.516.746.516 1.254 0 .515-.176.937-.528 1.265-.343.329-.8.493-1.371.493-.57 0-1.031-.164-1.383-.493-.343-.328-.515-.75-.515-1.265zM233.816 405.94h-3.398v-18h3.398v18zM236.09 399.506c0-1.976.441-3.551 1.324-4.723.891-1.171 2.106-1.757 3.645-1.757 1.234 0 2.254.461 3.058 1.382v-6.468h3.399v18h-3.059l-.164-1.348c-.844 1.055-1.93 1.582-3.258 1.582-1.492 0-2.691-.586-3.597-1.758-.899-1.179-1.348-2.816-1.348-4.91zm3.387.246c0 1.188.207 2.098.621 2.731.414.632 1.015.949 1.804.949 1.047 0 1.786-.442 2.215-1.324v-5.004c-.422-.883-1.152-1.324-2.191-1.324-1.633 0-2.449 1.324-2.449 3.972zM262.984 402.436c0-.414-.207-.738-.621-.973-.406-.242-1.062-.457-1.968-.644-3.016-.633-4.524-1.914-4.524-3.844 0-1.125.465-2.063 1.395-2.813.937-.757 2.16-1.136 3.668-1.136 1.609 0 2.894.379 3.855 1.136.969.758 1.453 1.743 1.453 2.953h-3.386c0-.484-.157-.882-.469-1.195-.313-.32-.801-.48-1.465-.48-.57 0-1.012.129-1.324.386a1.22 1.22 0 00-.469.985c0 .375.176.679.527.914.36.226.961.426 1.805.598.844.164 1.555.351 2.133.562 1.789.656 2.683 1.793 2.683 3.41 0 1.156-.496 2.094-1.488 2.813-.992.711-2.273 1.066-3.844 1.066-1.062 0-2.007-.187-2.836-.562-.82-.383-1.464-.903-1.933-1.559-.469-.664-.703-1.379-.703-2.145h3.211c.031.602.254 1.063.668 1.383.414.321.968.481 1.664.481.648 0 1.136-.121 1.465-.364.335-.25.503-.574.503-.972zM273.203 401.147l2.344-7.887h3.633l-5.098 14.648-.281.668c-.758 1.657-2.008 2.485-3.75 2.485-.492 0-.992-.074-1.5-.223v-2.566l.515.011c.641 0 1.118-.097 1.43-.293.32-.195.57-.519.75-.972l.399-1.043-4.442-12.715h3.645l2.355 7.887zM287.383 402.436c0-.414-.207-.738-.621-.973-.406-.242-1.063-.457-1.969-.644-3.016-.633-4.523-1.914-4.523-3.844 0-1.125.464-2.063 1.394-2.813.938-.757 2.16-1.136 3.668-1.136 1.609 0 2.895.379 3.856 1.136.968.758 1.453 1.743 1.453 2.953h-3.387c0-.484-.156-.882-.469-1.195-.312-.32-.801-.48-1.465-.48-.57 0-1.011.129-1.324.386a1.223 1.223 0 00-.469.985c0 .375.176.679.528.914.359.226.961.426 1.804.598.844.164 1.555.351 2.133.562 1.789.656 2.684 1.793 2.684 3.41 0 1.156-.496 2.094-1.488 2.813-.993.711-2.274 1.066-3.844 1.066-1.063 0-2.008-.187-2.836-.562-.82-.383-1.465-.903-1.934-1.559-.468-.664-.703-1.379-.703-2.145h3.211c.031.602.254 1.063.668 1.383.414.321.969.481 1.664.481.649 0 1.137-.121 1.465-.364.336-.25.504-.574.504-.972zM296.922 390.143v3.117h2.168v2.484h-2.168v6.329c0 .468.09.804.269 1.007.18.203.524.305 1.032.305.375 0 .707-.027.996-.082v2.566a6.945 6.945 0 01-2.051.305c-2.375 0-3.586-1.199-3.633-3.598v-6.832h-1.851v-2.484h1.851v-3.117h3.387zM306.813 406.174c-1.86 0-3.375-.57-4.547-1.711-1.164-1.14-1.746-2.66-1.746-4.558v-.329c0-1.273.246-2.41.738-3.41.492-1.008 1.187-1.781 2.086-2.32.906-.547 1.937-.82 3.094-.82 1.734 0 3.097.547 4.089 1.64 1 1.094 1.5 2.645 1.5 4.653v1.382h-8.074c.11.829.438 1.493.985 1.993.554.5 1.253.75 2.097.75 1.305 0 2.324-.473 3.059-1.418l1.664 1.863c-.508.719-1.195 1.281-2.063 1.687-.867.399-1.828.598-2.882.598zm-.387-10.406c-.672 0-1.219.226-1.641.68-.414.453-.679 1.101-.797 1.945h4.711v-.27c-.015-.75-.218-1.328-.609-1.734-.391-.414-.945-.621-1.664-.621zM317.137 393.26l.105 1.418c.899-1.102 2.114-1.652 3.645-1.652 1.633 0 2.754.644 3.363 1.933.891-1.289 2.16-1.933 3.809-1.933 1.375 0 2.398.402 3.07 1.207.672.797 1.008 2 1.008 3.609v8.098h-3.399v-8.086c0-.719-.14-1.242-.422-1.571-.281-.335-.777-.503-1.488-.503-1.015 0-1.719.484-2.109 1.453l.012 8.707h-3.387v-8.075c0-.734-.145-1.265-.434-1.593-.289-.328-.781-.492-1.476-.492-.961 0-1.657.398-2.086 1.195v8.965h-3.387v-12.68h3.176zM346.856 399.002c0-1.789.238-3.492.714-5.109.477-1.617 1.18-3.047 2.11-4.289.929-1.25 1.937-2.117 3.023-2.602l.656 1.828c-1.14.844-2.031 2.149-2.671 3.914-.641 1.766-.961 3.829-.961 6.188v.363c0 2.367.316 4.438.949 6.211.633 1.774 1.527 3.098 2.683 3.973l-.656 1.793c-1.062-.477-2.054-1.321-2.976-2.532-.914-1.203-1.614-2.593-2.098-4.171a17.89 17.89 0 01-.773-4.946v-.621zM368.758 400.256c-.133 1.836-.813 3.281-2.039 4.336-1.219 1.055-2.828 1.582-4.828 1.582-2.188 0-3.91-.734-5.168-2.203-1.25-1.477-1.875-3.5-1.875-6.07v-1.043c0-1.641.289-3.086.867-4.336.578-1.25 1.402-2.207 2.473-2.871 1.078-.672 2.328-1.008 3.75-1.008 1.968 0 3.554.527 4.757 1.582 1.204 1.055 1.899 2.535 2.086 4.441h-3.515c-.086-1.101-.395-1.898-.926-2.39-.524-.5-1.324-.75-2.402-.75-1.172 0-2.051.422-2.637 1.265-.578.836-.875 2.137-.891 3.903v1.289c0 1.843.278 3.191.832 4.043.563.851 1.446 1.277 2.649 1.277 1.086 0 1.894-.246 2.425-.738.54-.5.848-1.27.926-2.309h3.516zM374.805 405.94h-3.516v-17.063h3.516v17.063zM378.918 407.405h-2.519l6.281-18.528h2.519l-6.281 18.528zM400.445 400.256c-.132 1.836-.812 3.281-2.039 4.336-1.218 1.055-2.828 1.582-4.828 1.582-2.187 0-3.91-.734-5.168-2.203-1.25-1.477-1.875-3.5-1.875-6.07v-1.043c0-1.641.289-3.086.867-4.336.579-1.25 1.403-2.207 2.473-2.871 1.078-.672 2.328-1.008 3.75-1.008 1.969 0 3.555.527 4.758 1.582 1.203 1.055 1.898 2.535 2.086 4.441h-3.516c-.086-1.101-.394-1.898-.926-2.39-.523-.5-1.324-.75-2.402-.75-1.172 0-2.051.422-2.637 1.265-.578.836-.875 2.137-.89 3.903v1.289c0 1.843.277 3.191.832 4.043.562.851 1.445 1.277 2.648 1.277 1.086 0 1.895-.246 2.426-.738.539-.5.848-1.27.926-2.309h3.515zM402.754 405.94v-17.063h5.25c1.5 0 2.84.34 4.02 1.02 1.187.672 2.113 1.633 2.777 2.883.664 1.242.996 2.656.996 4.242v.785c0 1.586-.328 2.996-.984 4.23a6.969 6.969 0 01-2.754 2.871c-1.188.68-2.528 1.024-4.02 1.032h-5.285zm3.516-14.215v11.39h1.699c1.375 0 2.426-.449 3.152-1.347.727-.899 1.098-2.184 1.113-3.856v-.902c0-1.734-.359-3.047-1.078-3.937-.718-.899-1.769-1.348-3.152-1.348h-1.734zM423.977 399.272c0 1.765-.254 3.465-.762 5.097-.508 1.633-1.238 3.075-2.191 4.325-.954 1.25-1.973 2.109-3.059 2.578l-.656-1.793c1.109-.836 1.984-2.125 2.625-3.867.64-1.743.972-3.747.996-6.012v-.621c0-2.336-.321-4.395-.961-6.176-.633-1.781-1.52-3.117-2.66-4.008l.656-1.793c1.062.461 2.062 1.297 3 2.508.945 1.211 1.676 2.621 2.191 4.23a16.83 16.83 0 01.821 5.004v.528z" fill="#fff"/><g opacity=".5" fill="#000"><path d="M259.949 468.267h-1.955l-5.586-12.139-2.105 12.139h-2.031l2.718-15.641h1.955l5.597 12.193 2.116-12.193h2.009l-2.718 15.641zM268.317 468.482c-1.446-.029-2.578-.562-3.394-1.601-.817-1.038-1.16-2.367-1.031-3.985l.053-.462a7.776 7.776 0 011.021-3.158c.566-.953 1.253-1.669 2.062-2.149a4.771 4.771 0 012.621-.698c1.196.029 2.134.426 2.815 1.192.68.767 1.053 1.805 1.117 3.116.021.465.007.931-.043 1.396l-.118.892h-7.595c-.129 1.052.043 1.948.516 2.685.48.738 1.192 1.121 2.137 1.15 1.146.028 2.206-.487 3.18-1.547l1.117.945a5.146 5.146 0 01-1.89 1.654c-.767.394-1.622.584-2.568.57zm1.236-10.431c-.802-.021-1.504.251-2.106.816-.594.566-1.067 1.408-1.418 2.525l5.651.011.043-.172c.114-.903-.033-1.651-.441-2.245-.401-.602-.977-.913-1.729-.935zM279.833 453.829l-.494 2.815h2.116l-.269 1.536h-2.105l-1.214 7.229a2.586 2.586 0 00-.011.516c.051.559.355.838.913.838.237 0 .552-.036.946-.107l-.151 1.622a5.282 5.282 0 01-1.418.193c-.773-.014-1.353-.297-1.74-.849-.387-.558-.537-1.307-.451-2.245l1.182-7.197h-2.052l.268-1.536h2.052l.494-2.815h1.934zM283.893 468.267h-1.933l2.857-16.5h1.945l-2.869 16.5zM289.179 468.267h-1.934l2.02-11.623h1.933l-2.019 11.623zm1.6-15.866c.33-.015.602.086.817.3.222.208.333.484.333.828-.008.336-.119.612-.333.827-.208.215-.48.329-.817.343-.336.015-.612-.082-.827-.29-.215-.207-.319-.479-.311-.816.007-.337.114-.616.322-.838.208-.222.48-.34.816-.354zM293.304 468.267l1.761-10.087h-1.794l.269-1.536h1.783l.194-1.375c.186-1.168.637-2.081 1.353-2.739.752-.688 1.712-1.025 2.879-1.01.365 0 .827.061 1.386.182l-.237 1.622a6.394 6.394 0 00-1.042-.128c-.673 0-1.221.211-1.643.633-.416.416-.673.971-.774 1.665l-.171 1.15h2.406l-.269 1.536h-2.406l-1.751 10.087h-1.944zM304.046 465.334l4.136-8.69h2.148l-6.896 13.556c-.96 1.884-2.192 2.815-3.696 2.793-.265-.007-.655-.071-1.171-.193l.172-1.611.505.053c.616.029 1.146-.111 1.59-.419.451-.3.849-.791 1.192-1.471l.699-1.332-2.009-11.376h2.03l1.3 8.69zM315.776 468.267l2.718-15.641 4.587.011c1.597 0 2.793.358 3.588 1.074.795.716 1.142 1.715 1.042 2.997-.129 1.497-1.071 2.625-2.825 3.384a2.888 2.888 0 011.568 1.397c.351.658.494 1.385.43 2.18-.108 1.411-.673 2.532-1.698 3.363-1.024.823-2.348 1.235-3.974 1.235h-5.436zm3.287-7.316l-.977 5.629 3.19.011c.974 0 1.791-.261 2.45-.784.658-.523 1.042-1.228 1.149-2.116.1-.845-.047-1.504-.44-1.977-.394-.473-1.014-.723-1.859-.752l-3.513-.011zm.29-1.654l2.912.011c.909 0 1.675-.233 2.298-.698.631-.466.999-1.107 1.107-1.923.093-.759-.057-1.332-.451-1.719-.387-.387-1.032-.598-1.934-.634l-3.072-.011-.86 4.974zM336.262 467.117c-.91.939-2.066 1.393-3.47 1.365-1.11-.029-1.934-.426-2.471-1.193-.53-.766-.727-1.812-.591-3.136l1.247-7.509h1.944l-1.257 7.541a4.948 4.948 0 00-.021.924c.035.515.189.92.461 1.214.273.293.652.451 1.139.472 1.389.043 2.464-.519 3.223-1.686l1.461-8.465h1.944l-2.019 11.623h-1.837l.247-1.15zM342.868 468.267h-1.933l2.019-11.623h1.934l-2.02 11.623zm1.601-15.866c.329-.015.601.086.816.3.222.208.333.484.333.828-.007.336-.118.612-.333.827-.208.215-.48.329-.816.343-.337.015-.613-.082-.827-.29-.215-.207-.319-.479-.312-.816a1.22 1.22 0 01.322-.838c.208-.222.48-.34.817-.354zM348.153 468.267h-1.933l2.857-16.5h1.944l-2.868 16.5zM351.892 462.434c.143-1.182.469-2.249.977-3.201.509-.953 1.135-1.665 1.88-2.138a4.301 4.301 0 012.46-.677c1.296.029 2.292.502 2.986 1.418l1.117-6.069h1.945l-2.858 16.5h-1.772l.204-1.246c-.917 1.002-2.048 1.489-3.395 1.461-1.074-.029-1.93-.448-2.567-1.257-.637-.817-.981-1.909-1.031-3.277-.022-.422-.004-.927.054-1.514zm1.869 1.117c-.022 1.024.161 1.819.548 2.385.386.566.952.856 1.697.87 1.124.05 2.123-.516 2.997-1.697l.924-5.371c-.43-1.06-1.211-1.605-2.342-1.633a2.948 2.948 0 00-2.03.698c-.58.48-1.024 1.157-1.332 2.03a8.42 8.42 0 00-.462 2.718z"/></g><g opacity=".5" fill="#000"><path d="M452.237 199.715l-.748-2.266h-.066l-.264 2.266-2.134 10.076h-1.65l3.322-15.642h.88l4.796 10.296.726 2.156h.088l.198-2.156 2.156-10.054h1.65l-3.322 15.642h-.814l-4.818-10.318zM469.169 208.713a5.406 5.406 0 01-1.827 1.012c-.689.22-1.385.33-2.089.33-1.174 0-2.061-.338-2.662-1.012-.587-.675-.88-1.614-.88-2.816 0-1.203.168-2.281.505-3.234.338-.954.778-1.76 1.32-2.42.558-.66 1.181-1.166 1.87-1.518a4.772 4.772 0 012.156-.528c.529 0 .983.073 1.365.22.396.146.718.344.968.594.249.234.432.513.55.836.117.308.176.638.176.99 0 1.041-.506 1.862-1.518 2.464-1.012.586-2.486.88-4.422.88h-.551c-.19-.015-.388-.03-.594-.044a8.931 8.931 0 00-.131.792c-.03.249-.044.469-.044.66 0 .806.183 1.466.549 1.98.367.498.939.748 1.716.748a4.83 4.83 0 001.761-.308c.542-.22.96-.448 1.254-.682l.528 1.056zm-1.871-8.778c-.806 0-1.51.278-2.112.836-.586.542-1.033 1.364-1.341 2.464.557 0 1.136-.015 1.738-.044a8.829 8.829 0 001.628-.22c.498-.132.909-.33 1.232-.594.322-.279.484-.66.484-1.144 0-.147-.03-.294-.088-.44a.916.916 0 00-.243-.418 1.135 1.135 0 00-.505-.308c-.206-.088-.47-.132-.793-.132zM472.356 198.791h1.628l.462-2.178 1.76-.506-.572 2.684h2.882l-.33 1.408h-2.86l-1.386 6.644c-.029.176-.059.337-.088.484a3.897 3.897 0 00-.022.396c0 .352.081.594.242.726.161.132.403.198.726.198.352 0 .675-.044.968-.132a3.88 3.88 0 00.88-.396v1.342c-.308.176-.704.315-1.188.418a5.902 5.902 0 01-1.386.176c-1.335 0-2.002-.609-2.002-1.826 0-.25.037-.558.11-.924l1.496-7.106h-1.65l.33-1.408zM480.617 207.173a3.672 3.672 0 00-.066.616c0 .278.044.484.132.616a.501.501 0 00.396.176c.293 0 .535-.015.726-.044.205-.044.447-.118.726-.22v1.254a2.787 2.787 0 01-.462.198c-.176.044-.36.08-.55.11-.176.029-.36.051-.55.066a3.006 3.006 0 01-.484.044c-.514 0-.924-.118-1.232-.352-.308-.235-.462-.668-.462-1.298 0-.294.044-.653.132-1.078l2.728-12.87h1.65l-2.684 12.782zM487.14 198.791h1.65l-2.332 11h-1.65l2.332-11zm.352-3.366c0-.338.11-.624.33-.858.235-.235.521-.352.858-.352.338 0 .624.117.858.352.235.234.352.52.352.858 0 .337-.117.623-.352.858-.234.22-.52.33-.858.33a1.21 1.21 0 01-.858-.33 1.21 1.21 0 01-.33-.858zM494.132 200.199l-1.76 10.34a8.631 8.631 0 01-.374 1.496 4.078 4.078 0 01-.594 1.21c-.25.352-.565.623-.946.814-.382.205-.844.308-1.386.308-.44 0-.844-.037-1.21-.11a3.56 3.56 0 01-1.056-.33l.484-1.232c.293.102.564.168.814.198.234.044.528.066.88.066.557 0 .975-.272 1.254-.814.278-.528.513-1.372.704-2.53l1.54-9.416h-1.694l.286-1.408h1.606l.286-1.474a8.685 8.685 0 01.374-1.408c.146-.396.337-.726.572-.99a2.36 2.36 0 01.902-.594c.366-.132.806-.198 1.32-.198.484 0 .953.051 1.408.154.454.088.865.212 1.232.374l-.484 1.298c-.719-.279-1.401-.418-2.046-.418-.543 0-.939.19-1.188.572-.25.366-.44.96-.572 1.782l-.154.902h2.222l-.264 1.408h-2.156z"/><path d="M499.705 205.919l.11 2.112h.11l.836-2.134 3.652-7.106h1.76l-5.192 9.812a95.709 95.709 0 01-1.144 2.09 14.059 14.059 0 01-1.144 1.826c-.396.542-.807.975-1.232 1.298-.426.322-.866.484-1.32.484-.25 0-.47-.015-.66-.044a1.726 1.726 0 01-.484-.154l.528-1.518c.161.058.337.088.528.088.425 0 .85-.22 1.276-.66.425-.44.902-1.181 1.43-2.222l-1.892-11h1.76l1.078 7.128zM518.618 202.113h4.048l-1.43 6.776c-1.041.777-2.332 1.166-3.872 1.166-.733 0-1.43-.132-2.09-.396a5.035 5.035 0 01-1.716-1.166c-.498-.528-.894-1.181-1.188-1.958-.293-.778-.44-1.687-.44-2.728 0-1.804.264-3.322.792-4.554.528-1.232 1.203-2.222 2.024-2.97.836-.763 1.753-1.313 2.75-1.65.998-.338 1.966-.506 2.904-.506.836 0 1.526.058 2.068.176.558.102 1.005.234 1.342.396l-.77 1.606c-.293-.162-.689-.294-1.188-.396a7.97 7.97 0 00-1.65-.154c-.85 0-1.664.168-2.442.506a5.83 5.83 0 00-2.046 1.474c-.586.66-1.056 1.481-1.408 2.464-.352.968-.528 2.097-.528 3.388 0 .66.081 1.283.242 1.87.162.586.404 1.1.726 1.54.338.44.748.792 1.232 1.056.499.249 1.086.374 1.76.374.47 0 .873-.044 1.21-.132a5.9 5.9 0 001.012-.418l.902-4.29-2.464-.44.22-1.034zM526.12 207.173a3.672 3.672 0 00-.066.616c0 .278.044.484.132.616a.504.504 0 00.396.176c.294 0 .536-.015.727-.044.205-.044.447-.118.725-.22v1.254a2.787 2.787 0 01-.462.198c-.176.044-.359.08-.55.11a6.547 6.547 0 01-.549.066 3.008 3.008 0 01-.485.044c-.513 0-.923-.118-1.231-.352-.308-.235-.463-.668-.463-1.298 0-.294.044-.653.132-1.078l2.728-12.87h1.65l-2.684 12.782zM530.224 206.359c0-1.159.147-2.215.44-3.168.308-.968.726-1.797 1.254-2.486.528-.69 1.137-1.225 1.826-1.606a4.635 4.635 0 012.244-.572c.616 0 1.137.102 1.562.308.44.19.792.462 1.056.814.279.337.477.733.594 1.188.117.44.176.902.176 1.386 0 1.1-.146 2.126-.44 3.08-.278.953-.674 1.782-1.188 2.486a5.935 5.935 0 01-1.76 1.672 4.268 4.268 0 01-2.2.594c-.66 0-1.217-.103-1.672-.308a3.381 3.381 0 01-1.1-.858 3.54 3.54 0 01-.616-1.188 5.205 5.205 0 01-.176-1.342zm1.76-.396c0 .865.162 1.532.484 2.002.323.454.836.682 1.54.682.484 0 .939-.169 1.364-.506.44-.352.822-.822 1.144-1.408a7.877 7.877 0 00.792-2.002 9.118 9.118 0 00.308-2.376c0-.748-.139-1.335-.418-1.76-.264-.44-.777-.66-1.54-.66-.484 0-.946.168-1.386.506-.44.322-.836.762-1.188 1.32a7.787 7.787 0 00-.814 1.936 8.827 8.827 0 00-.286 2.266zM544.151 194.391h1.65l-1.342 6.292h.088c.206-.264.44-.521.704-.77.264-.264.558-.499.88-.704a4.414 4.414 0 011.034-.484 3.485 3.485 0 011.188-.198c.866 0 1.496.308 1.892.924.396.601.594 1.364.594 2.288 0 1.32-.183 2.493-.55 3.52-.366 1.012-.85 1.87-1.452 2.574a6.167 6.167 0 01-2.068 1.606 5.38 5.38 0 01-2.354.55c-.792 0-1.488-.088-2.09-.264-.586-.176-1.019-.382-1.298-.616l3.124-14.718zm3.674 5.544c-.366 0-.74.095-1.122.286-.381.176-.748.41-1.1.704a7.616 7.616 0 00-.946.99 6.608 6.608 0 00-.682 1.034l-1.1 5.17c.44.308 1.064.462 1.87.462.47 0 .961-.14 1.474-.418.514-.294.983-.712 1.408-1.254.426-.558.77-1.232 1.034-2.024.279-.807.418-1.724.418-2.75 0-.748-.117-1.298-.352-1.65-.22-.367-.52-.55-.902-.55zM560.662 205.457a12.449 12.449 0 00-.242 1.65 19.912 19.912 0 00-.066 1.562v.638c0 .19.015.366.044.528h-1.232l-.308-1.914h-.088a6.004 6.004 0 01-.66.77 5.507 5.507 0 01-.836.682 4.17 4.17 0 01-.99.484 3.169 3.169 0 01-1.122.198c-1.745 0-2.618-1.137-2.618-3.41 0-.939.117-1.892.352-2.86a8.92 8.92 0 011.122-2.618 6.397 6.397 0 011.958-1.914c.807-.499 1.775-.748 2.904-.748.411 0 .909.051 1.496.154a10.71 10.71 0 011.672.374l-1.386 6.424zm-4.994 3.19a2.24 2.24 0 001.012-.242c.323-.176.623-.389.902-.638.293-.25.55-.514.77-.792.22-.294.396-.565.528-.814l1.232-5.94c-.44-.206-.997-.308-1.672-.308-.675 0-1.269.198-1.782.594-.513.396-.946.916-1.298 1.562a7.806 7.806 0 00-.792 2.156 11.316 11.316 0 00-.264 2.42c0 .557.11 1.034.33 1.43.22.381.565.572 1.034.572zM565.201 207.173a3.672 3.672 0 00-.066.616c0 .278.044.484.132.616a.501.501 0 00.396.176c.293 0 .535-.015.726-.044.205-.044.447-.118.726-.22v1.254a2.787 2.787 0 01-.462.198c-.176.044-.36.08-.55.11-.176.029-.36.051-.55.066a3.006 3.006 0 01-.484.044c-.514 0-.924-.118-1.232-.352-.308-.235-.462-.668-.462-1.298 0-.294.044-.653.132-1.078l2.728-12.87h1.65l-2.684 12.782zM582.249 205.523h-5.369l-2.375 4.268h-1.871l8.888-15.642h.815l2.222 15.642h-1.694l-.616-4.268zm-4.511-1.584h4.335l-.638-4.686-.044-2.332h-.023l-.989 2.376-2.641 4.642zM589.765 194.391a17.067 17.067 0 011.892-.132c.704-.03 1.342-.044 1.914-.044.865 0 1.65.117 2.354.352.704.22 1.298.564 1.782 1.034.498.469.88 1.063 1.144 1.782.264.718.396 1.562.396 2.53 0 .645-.059 1.349-.176 2.112a11.64 11.64 0 01-.594 2.244 10.116 10.116 0 01-1.078 2.134 8.102 8.102 0 01-1.694 1.848c-.675.528-1.467.953-2.376 1.276-.91.308-1.958.462-3.146.462-.22 0-.514-.008-.88-.022-.352 0-.704-.008-1.056-.022-1.027-.059-1.614-.103-1.76-.132l3.278-15.422zm3.674 1.452a8.79 8.79 0 00-.594.022c-.22 0-.433.007-.638.022-.206 0-.404.007-.594.022a6.47 6.47 0 00-.44.044l-2.596 12.32c.058.014.176.029.352.044.176 0 .359.007.55.022.205 0 .396.007.572.022h.396c1.276 0 2.354-.264 3.234-.792a6.666 6.666 0 002.134-2.002 8.3 8.3 0 001.21-2.662c.249-.968.374-1.885.374-2.75 0-.66-.074-1.254-.22-1.782a3.365 3.365 0 00-.704-1.342 2.973 2.973 0 00-1.21-.88c-.499-.206-1.108-.308-1.826-.308zM605.034 199.715l-.748-2.266h-.066l-.264 2.266-2.134 10.076h-1.65l3.322-15.642h.88l4.796 10.296.726 2.156h.088l.198-2.156 2.156-10.054h1.65l-3.322 15.642h-.814l-4.818-10.318z"/></g><g opacity=".5" fill="#000"><path d="M805.689 453.695c.157-1.146-.437-1.984-1.783-2.514l-1.859-.676-.623-.269c-2.091-.952-3.068-2.292-2.932-4.017a4.194 4.194 0 01.891-2.299c.523-.666 1.214-1.178 2.073-1.536a6.632 6.632 0 012.761-.516c.946.021 1.787.233 2.525.634.744.401 1.31.963 1.697 1.686.387.716.558 1.526.516 2.428l-2.031-.011c.072-.959-.143-1.701-.644-2.223-.502-.53-1.218-.802-2.149-.817-.981-.014-1.801.215-2.46.688-.659.472-1.038 1.117-1.138 1.933-.144 1.067.512 1.877 1.965 2.428l1.601.569.806.344c2.019.931 2.954 2.313 2.803 4.147-.078.88-.376 1.643-.891 2.288-.516.637-1.218 1.131-2.106 1.482a7.188 7.188 0 01-2.846.494c-.981-.007-1.88-.215-2.697-.623-.809-.415-1.425-.981-1.847-1.697-.423-.716-.609-1.529-.559-2.439l2.02.011c-.065.931.186 1.672.752 2.224.573.544 1.378.823 2.417.838 1.038.014 1.894-.212 2.567-.677.673-.466 1.063-1.092 1.171-1.88zM814.519 443.286l-.494 2.814h2.116l-.269 1.536h-2.105l-1.214 7.23a2.583 2.583 0 00-.011.516c.051.558.355.837.913.837.237 0 .552-.035.946-.107l-.151 1.622a5.282 5.282 0 01-1.418.193c-.773-.014-1.353-.297-1.74-.848-.387-.559-.537-1.307-.451-2.245l1.182-7.198h-2.052l.268-1.536h2.052l.494-2.814h1.934zM823.704 447.873l-.914-.097c-1.246 0-2.227.562-2.943 1.687l-1.429 8.26h-1.944l2.02-11.623 1.879-.01-.29 1.353c.824-1.081 1.794-1.608 2.912-1.579.236 0 .544.054.923.161l-.214 1.848zM825.906 457.723h-1.934l2.02-11.623h1.933l-2.019 11.623zm1.6-15.866c.33-.014.602.086.817.301.222.208.333.483.333.827-.007.337-.118.612-.333.827-.208.215-.48.33-.817.344-.336.014-.612-.082-.827-.29-.215-.208-.319-.48-.311-.816.007-.337.114-.616.322-.838.208-.222.48-.34.816-.355zM839.613 451.966c-.144 1.181-.462 2.245-.956 3.19-.494.945-1.107 1.654-1.837 2.127a4.237 4.237 0 01-2.428.666c-1.346-.029-2.378-.483-3.094-1.364l-1.042 5.607h-1.944l2.793-16.092 1.762-.01-.215 1.299c.959-1.031 2.109-1.532 3.448-1.504 1.117.029 1.987.441 2.61 1.236.623.795.953 1.89.989 3.287.007.458-.011.902-.054 1.332l-.032.226zm-1.912-.226l.053-.902c0-1.046-.2-1.844-.601-2.396-.394-.558-.967-.852-1.719-.881-1.124-.028-2.095.505-2.911 1.601l-.978 5.575c.437 1.031 1.221 1.561 2.353 1.59.967.021 1.787-.355 2.46-1.128.68-.781 1.128-1.934 1.343-3.459zM846.208 457.938c-1.446-.028-2.578-.562-3.394-1.6-.817-1.039-1.16-2.367-1.031-3.986l.053-.462a7.78 7.78 0 011.021-3.158c.566-.952 1.253-1.668 2.062-2.148a4.78 4.78 0 012.621-.699c1.196.029 2.135.427 2.815 1.193.68.766 1.053 1.805 1.117 3.115.022.466.007.931-.043 1.397l-.118.891h-7.595c-.129 1.053.043 1.948.516 2.686.48.737 1.192 1.121 2.138 1.149 1.145.029 2.205-.487 3.179-1.547l1.117.946a5.155 5.155 0 01-1.89 1.654c-.766.394-1.622.584-2.568.569zm1.236-10.43c-.802-.022-1.504.25-2.106.816-.594.566-1.067 1.407-1.418 2.524l5.651.011.043-.172c.114-.902-.033-1.65-.441-2.245-.401-.601-.977-.913-1.729-.934zM852.16 460.849l-1.118-.805c.831-1.024 1.347-2.041 1.547-3.051l.28-1.622h1.901l-.226 1.45c-.257 1.633-1.052 2.976-2.384 4.028zM864.9 456.037h7.197l-.301 1.686h-9.216l2.717-15.64h2.031l-2.428 13.954zM880.992 457.723a2.55 2.55 0 01-.076-.612l.033-.612c-1.067.988-2.199 1.468-3.395 1.439-1.024-.014-1.858-.336-2.503-.967-.637-.637-.927-1.432-.87-2.384.072-1.232.609-2.192 1.611-2.879 1.01-.695 2.335-1.042 3.975-1.042l2.03.011.129-.924c.072-.695-.064-1.243-.408-1.644-.337-.408-.845-.619-1.525-.634-.666-.014-1.257.151-1.773.494-.508.337-.82.785-.934 1.343l-1.956.011a3.1 3.1 0 01.795-1.805c.466-.53 1.064-.938 1.794-1.224a5.72 5.72 0 012.267-.419c1.21.028 2.152.397 2.825 1.106.673.702.956 1.637.849 2.804l-.946 5.758-.053.827c-.015.394.028.784.129 1.171l-.022.182h-1.976zm-3.051-1.504a3.388 3.388 0 001.762-.44 4.51 4.51 0 001.439-1.3l.419-2.395-1.472-.011c-1.224 0-2.162.193-2.814.58-.652.387-1.021.935-1.107 1.644-.064.544.061.999.376 1.364.323.358.788.544 1.397.558zM889.446 446.09l-.247 1.299c.974-1.031 2.152-1.532 3.534-1.504.737.015 1.361.183 1.869.505.516.323.87.777 1.063 1.365 1.089-1.275 2.374-1.898 3.857-1.87 1.16.029 2.016.419 2.567 1.171.552.752.756 1.762.613 3.03l-1.279 7.637h-1.933l1.267-7.659a4.04 4.04 0 000-1.02c-.136-.974-.773-1.472-1.912-1.493-.709-.015-1.353.207-1.933.666a3.041 3.041 0 00-1.107 1.783l-1.321 7.723h-1.955l1.289-7.648c.093-.795-.029-1.407-.365-1.837-.33-.43-.845-.652-1.547-.666-1.211-.029-2.174.523-2.89 1.654l-1.472 8.497H885.6l2.02-11.623 1.826-.01zM914.98 451.966c-.143 1.188-.469 2.259-.978 3.211-.508.953-1.124 1.658-1.847 2.117a4.214 4.214 0 01-2.407.655c-1.403-.029-2.445-.555-3.126-1.579l-.397 1.353h-1.794l2.868-16.5h1.945l-1.171 6.166c.931-1.031 2.062-1.532 3.394-1.504 1.117.029 1.988.441 2.611 1.236.623.795.952 1.89.988 3.287.007.458-.014.902-.065 1.332l-.021.226zm-1.848-1.128c.022-1.046-.154-1.844-.526-2.396-.373-.558-.942-.852-1.708-.881-1.21-.028-2.235.58-3.072 1.826l-.871 5.06c.43 1.182 1.236 1.787 2.417 1.815a2.802 2.802 0 001.988-.676c.573-.48 1.006-1.15 1.3-2.009a9.13 9.13 0 00.472-2.739zM917.085 451.89c.144-1.181.469-2.248.978-3.201.508-.952 1.135-1.665 1.88-2.137a4.294 4.294 0 012.46-.677c1.296.028 2.291.501 2.986 1.418l1.117-6.07h1.945l-2.858 16.5h-1.772l.204-1.246c-.917 1.003-2.048 1.49-3.395 1.461-1.074-.028-1.93-.447-2.567-1.257-.637-.816-.981-1.908-1.031-3.276-.022-.422-.004-.927.053-1.515zm1.87 1.118c-.022 1.024.161 1.819.547 2.384.387.566.953.856 1.698.87 1.124.051 2.123-.515 2.997-1.697l.924-5.371c-.43-1.06-1.211-1.604-2.342-1.633a2.956 2.956 0 00-2.031.699c-.58.479-1.024 1.156-1.332 2.03a8.438 8.438 0 00-.461 2.718zM935.777 457.723a2.6 2.6 0 01-.075-.612l.032-.612c-1.067.988-2.199 1.468-3.395 1.439-1.024-.014-1.858-.336-2.503-.967-.637-.637-.927-1.432-.87-2.384.072-1.232.609-2.192 1.612-2.879 1.009-.695 2.334-1.042 3.974-1.042l2.03.011.129-.924c.072-.695-.064-1.243-.408-1.644-.336-.408-.845-.619-1.525-.634-.666-.014-1.257.151-1.773.494-.508.337-.82.785-.934 1.343l-1.955.011c.064-.68.329-1.282.795-1.805.465-.53 1.063-.938 1.794-1.224a5.715 5.715 0 012.266-.419c1.21.028 2.152.397 2.825 1.106.673.702.956 1.637.849 2.804l-.945 5.758-.054.827c-.014.394.029.784.129 1.171l-.022.182h-1.976zm-3.051-1.504a3.388 3.388 0 001.762-.44 4.51 4.51 0 001.439-1.3l.419-2.395-1.472-.011c-1.224 0-2.162.193-2.814.58-.652.387-1.021.935-1.106 1.644-.065.544.06.999.376 1.364.322.358.787.544 1.396.558zM947.593 454.576c.108-.802-.333-1.368-1.321-1.697l-2.02-.591c-1.704-.587-2.528-1.561-2.47-2.922.05-1.024.515-1.862 1.396-2.514.888-.659 1.93-.981 3.126-.967 1.175.015 2.127.359 2.858 1.032.737.666 1.092 1.536 1.063 2.61l-1.934-.011c.015-.58-.168-1.052-.547-1.418-.38-.365-.885-.555-1.515-.569-.673-.014-1.253.15-1.74.494-.451.322-.713.745-.784 1.268-.094.673.318 1.164 1.235 1.471l.977.269c1.332.344 2.278.791 2.836 1.343.559.551.817 1.235.774 2.052a3.262 3.262 0 01-.709 1.89c-.43.537-1.003.949-1.719 1.236a5.805 5.805 0 01-2.288.386c-1.232-.014-2.249-.372-3.051-1.074-.802-.709-1.189-1.618-1.16-2.729l1.944.011c0 .652.208 1.175.623 1.569.416.393.985.59 1.708.59.709.015 1.322-.132 1.837-.44.516-.315.81-.745.881-1.289zM951.074 460.849l-1.118-.805c.831-1.024 1.347-2.041 1.547-3.051l.28-1.622h1.901l-.226 1.45c-.257 1.633-1.052 2.976-2.384 4.028zM971.344 450.494h-6.574l-.967 5.543h7.649l-.301 1.686h-9.657l2.717-15.64h9.55l-.301 1.697h-7.53l-.87 5.027h6.574l-.29 1.687zM978.574 443.286l-.494 2.814h2.116l-.269 1.536h-2.105l-1.214 7.23a2.51 2.51 0 00-.011.516c.05.558.355.837.913.837.237 0 .552-.035.946-.107l-.151 1.622a5.282 5.282 0 01-1.418.193c-.773-.014-1.353-.297-1.74-.848-.387-.559-.537-1.307-.451-2.245l1.181-7.198h-2.051l.268-1.536h2.052l.494-2.814h1.934zM985.438 456.327a2.965 2.965 0 001.88-.602 2.914 2.914 0 001.096-1.654l1.836-.011a4.118 4.118 0 01-.88 1.998 4.846 4.846 0 01-1.794 1.408 4.886 4.886 0 01-2.224.472c-.967-.014-1.787-.265-2.46-.752-.666-.494-1.157-1.178-1.472-2.051-.315-.881-.422-1.87-.322-2.965l.054-.537c.136-1.118.462-2.117.977-2.998.516-.88 1.189-1.564 2.02-2.051a4.997 4.997 0 012.75-.699c1.217.029 2.191.437 2.922 1.225.73.788 1.095 1.787 1.095 2.997l-1.815-.011c-.014-.759-.226-1.371-.634-1.836-.408-.473-.959-.724-1.654-.752-1.01-.022-1.851.354-2.524 1.127-.667.774-1.082 1.855-1.247 3.245l-.032.279c-.043.458-.05.931-.021 1.418.05.838.286 1.5.709 1.987.422.487 1.002.741 1.74.763zM993.237 455.468c.351-.008.641.1.87.322.229.222.34.508.333.859-.007.351-.125.638-.355.86a1.29 1.29 0 01-.859.343c-.344.015-.627-.082-.849-.29-.222-.215-.333-.497-.333-.848s.111-.641.333-.87c.222-.237.509-.362.86-.376z"/></g><path d="M376.695 143.753h-3.516v-7.312h-6.855v7.312h-3.516v-17.062h3.516v6.914h6.855v-6.914h3.516v17.062zM383.129 143.753h-3.399v-12.68h3.399v12.68zm-3.598-15.961c0-.508.168-.926.504-1.254.344-.328.808-.492 1.394-.492.578 0 1.039.164 1.383.492.344.328.516.746.516 1.254 0 .516-.176.938-.528 1.266-.343.328-.8.492-1.371.492-.57 0-1.031-.164-1.383-.492-.343-.328-.515-.75-.515-1.266zM385.437 137.32c0-1.946.461-3.512 1.383-4.7.93-1.187 2.18-1.781 3.75-1.781 1.391 0 2.473.477 3.246 1.43l.141-1.196h3.07v12.258c0 1.11-.254 2.075-.762 2.895-.5.82-1.207 1.445-2.121 1.875-.914.43-1.984.644-3.211.644a6.894 6.894 0 01-2.719-.562c-.882-.367-1.55-.844-2.003-1.43l1.5-2.062c.843.945 1.867 1.418 3.07 1.418.898 0 1.598-.243 2.098-.727.5-.476.75-1.156.75-2.039v-.68c-.782.883-1.809 1.325-3.083 1.325-1.523 0-2.757-.594-3.703-1.782-.937-1.195-1.406-2.777-1.406-4.746v-.14zm3.387.246c0 1.148.23 2.05.691 2.707.461.648 1.094.972 1.899.972 1.031 0 1.769-.386 2.215-1.16v-5.332c-.454-.773-1.184-1.16-2.192-1.16-.812 0-1.453.332-1.922.996-.461.664-.691 1.656-.691 2.977zM402.945 132.456c.898-1.078 2.027-1.617 3.387-1.617 2.75 0 4.144 1.598 4.183 4.793v8.121h-3.386v-8.027c0-.727-.157-1.262-.469-1.606-.313-.351-.832-.527-1.559-.527-.992 0-1.711.383-2.156 1.148v9.012h-3.387v-18h3.387v6.703zM419.656 137.812h-6.598v-2.731h6.598v2.731zM433.789 137.531c0 1.953-.446 3.519-1.336 4.699-.883 1.172-2.078 1.758-3.586 1.758-1.281 0-2.317-.446-3.106-1.336v5.976h-3.386v-17.555h3.14l.117 1.243c.821-.985 1.891-1.477 3.211-1.477 1.563 0 2.778.578 3.645 1.734.867 1.157 1.301 2.75 1.301 4.782v.176zm-3.387-.247c0-1.179-.211-2.089-.633-2.73-.414-.641-1.019-.961-1.816-.961-1.063 0-1.793.406-2.192 1.219v5.191c.414.836 1.153 1.254 2.215 1.254 1.617 0 2.426-1.324 2.426-3.973zM441.734 143.988c-1.859 0-3.375-.571-4.547-1.711-1.164-1.141-1.746-2.661-1.746-4.559v-.328c0-1.274.246-2.41.738-3.41.492-1.008 1.188-1.782 2.086-2.321.906-.546 1.938-.82 3.094-.82 1.734 0 3.098.547 4.09 1.641 1 1.093 1.5 2.644 1.5 4.652v1.383h-8.074c.109.828.437 1.492.984 1.992.555.5 1.254.75 2.098.75 1.304 0 2.324-.473 3.058-1.418l1.664 1.863c-.508.719-1.195 1.282-2.062 1.688-.867.398-1.828.598-2.883.598zm-.387-10.407c-.672 0-1.218.227-1.64.68-.414.453-.68 1.102-.797 1.945h4.711v-.269c-.016-.75-.219-1.328-.61-1.735-.39-.414-.945-.621-1.664-.621zM456.007 134.249a9.27 9.27 0 00-1.218-.093c-1.282 0-2.121.433-2.52 1.3v8.297h-3.387v-12.68h3.2l.093 1.512c.68-1.164 1.621-1.746 2.825-1.746.375 0 .726.051 1.054.152l-.047 3.258zM458.808 143.753v-10.195h-1.887v-2.485h1.887v-1.078c0-1.422.406-2.523 1.219-3.304.82-.789 1.965-1.184 3.434-1.184.468 0 1.043.078 1.722.234l-.035 2.625a4.334 4.334 0 00-1.031-.105c-1.274 0-1.91.598-1.91 1.793v1.019h2.519v2.485h-2.519v10.195h-3.399zM465.957 137.296c0-1.258.242-2.379.726-3.363.485-.985 1.18-1.746 2.086-2.285.914-.539 1.973-.809 3.176-.809 1.711 0 3.105.524 4.184 1.57 1.085 1.047 1.691 2.469 1.816 4.266l.023.867c0 1.946-.543 3.508-1.629 4.688-1.085 1.172-2.543 1.758-4.371 1.758-1.828 0-3.289-.586-4.382-1.758-1.086-1.172-1.629-2.766-1.629-4.782v-.152zm3.386.246c0 1.203.227 2.125.68 2.766.453.633 1.102.949 1.945.949.821 0 1.461-.312 1.922-.937.461-.633.692-1.641.692-3.024 0-1.18-.231-2.094-.692-2.742-.461-.648-1.109-.973-1.945-.973-.828 0-1.469.325-1.922.973-.453.641-.68 1.637-.68 2.988zM487.179 134.249a9.27 9.27 0 00-1.218-.093c-1.282 0-2.122.433-2.52 1.3v8.297h-3.387v-12.68h3.2l.093 1.512c.68-1.164 1.621-1.746 2.824-1.746.375 0 .727.051 1.055.152l-.047 3.258zM491.996 131.073l.105 1.418c.899-1.101 2.113-1.652 3.645-1.652 1.633 0 2.754.645 3.363 1.934.891-1.289 2.16-1.934 3.809-1.934 1.375 0 2.398.402 3.07 1.207.672.797 1.008 2 1.008 3.61v8.097h-3.399v-8.086c0-.719-.14-1.242-.422-1.57-.281-.336-.777-.504-1.488-.504-1.016 0-1.719.484-2.109 1.453l.011 8.707h-3.386v-8.074c0-.734-.145-1.266-.434-1.594-.289-.328-.781-.492-1.476-.492-.961 0-1.657.398-2.086 1.195v8.965h-3.387v-12.68h3.176zM516.957 143.753c-.157-.305-.27-.683-.34-1.137-.821.915-1.887 1.372-3.199 1.372-1.243 0-2.274-.36-3.094-1.079-.813-.718-1.219-1.625-1.219-2.718 0-1.344.496-2.375 1.488-3.094 1-.719 2.442-1.082 4.325-1.09h1.558v-.726c0-.586-.152-1.055-.457-1.407-.297-.351-.769-.527-1.418-.527-.57 0-1.019.137-1.347.41-.321.274-.481.649-.481 1.125h-3.387c0-.734.227-1.414.68-2.039.453-.625 1.094-1.113 1.922-1.465.828-.359 1.758-.539 2.789-.539 1.562 0 2.801.395 3.715 1.184.922.781 1.383 1.883 1.383 3.304v5.496c.007 1.204.175 2.114.504 2.731v.199h-3.422zm-2.801-2.355c.5 0 .961-.11 1.383-.328.422-.227.734-.528.937-.903v-2.179h-1.265c-1.696 0-2.598.585-2.707 1.757l-.012.2c0 .421.148.769.445 1.043.297.273.703.41 1.219.41zM525.593 131.073l.106 1.465c.906-1.132 2.121-1.699 3.644-1.699 1.344 0 2.344.395 3 1.184.657.789.993 1.968 1.008 3.539v8.191h-3.387v-8.109c0-.719-.156-1.238-.468-1.559-.313-.328-.832-.492-1.559-.492-.953 0-1.668.406-2.144 1.219v8.941h-3.387v-12.68h3.187zM541.203 141.257c.625 0 1.133-.172 1.523-.516.391-.343.594-.8.61-1.371h3.175a4.368 4.368 0 01-.703 2.368c-.461.71-1.094 1.265-1.898 1.664-.797.39-1.68.586-2.649.586-1.812 0-3.242-.575-4.289-1.723-1.047-1.156-1.57-2.75-1.57-4.781v-.223c0-1.953.519-3.512 1.559-4.676 1.039-1.164 2.464-1.746 4.277-1.746 1.586 0 2.855.453 3.808 1.359.961.899 1.45 2.098 1.465 3.598h-3.175c-.016-.656-.219-1.187-.61-1.594-.39-.414-.906-.621-1.547-.621-.789 0-1.386.289-1.793.867-.398.571-.597 1.5-.597 2.79v.351c0 1.305.199 2.242.597 2.813.399.57 1.004.855 1.817.855zM554.281 143.988c-1.86 0-3.375-.571-4.547-1.711-1.164-1.141-1.746-2.661-1.746-4.559v-.328c0-1.274.246-2.41.738-3.41.492-1.008 1.188-1.782 2.086-2.321.906-.546 1.938-.82 3.094-.82 1.734 0 3.098.547 4.09 1.641 1 1.093 1.5 2.644 1.5 4.652v1.383h-8.075c.11.828.438 1.492.985 1.992.555.5 1.254.75 2.098.75 1.304 0 2.324-.473 3.058-1.418l1.664 1.863c-.508.719-1.195 1.282-2.062 1.688-.868.398-1.828.598-2.883.598zm-.387-10.407c-.672 0-1.219.227-1.64.68-.415.453-.68 1.102-.797 1.945h4.711v-.269c-.016-.75-.219-1.328-.61-1.735-.39-.414-.945-.621-1.664-.621zM574.273 140.249c0-.414-.207-.738-.621-.972-.406-.243-1.063-.457-1.969-.645-3.015-.633-4.523-1.914-4.523-3.844 0-1.125.465-2.062 1.394-2.812.938-.758 2.16-1.137 3.668-1.137 1.61 0 2.895.379 3.856 1.137.968.758 1.453 1.742 1.453 2.953h-3.387c0-.484-.156-.883-.469-1.195-.312-.321-.8-.481-1.464-.481-.571 0-1.012.129-1.325.387a1.222 1.222 0 00-.468.984c0 .375.175.68.527.914.359.227.961.426 1.805.598.843.164 1.554.352 2.132.562 1.789.657 2.684 1.793 2.684 3.411 0 1.156-.496 2.093-1.488 2.812-.992.711-2.274 1.067-3.844 1.067-1.063 0-2.008-.188-2.836-.563-.82-.383-1.465-.902-1.934-1.559-.468-.664-.703-1.378-.703-2.144h3.211c.032.601.254 1.062.668 1.383.414.32.969.48 1.664.48.649 0 1.137-.121 1.465-.363.336-.25.504-.574.504-.973zM583.812 127.956v3.117h2.168v2.485h-2.168v6.328c0 .469.09.805.27 1.008.179.203.523.304 1.031.304.375 0 .707-.027.996-.082v2.567a6.978 6.978 0 01-2.051.305c-2.375 0-3.586-1.2-3.633-3.598v-6.832h-1.851v-2.485h1.851v-3.117h3.387zM595.214 143.753c-.156-.305-.269-.683-.339-1.137-.821.915-1.887 1.372-3.2 1.372-1.242 0-2.273-.36-3.093-1.079-.813-.718-1.219-1.625-1.219-2.718 0-1.344.496-2.375 1.488-3.094 1-.719 2.442-1.082 4.324-1.09h1.559v-.726c0-.586-.152-1.055-.457-1.407-.297-.351-.77-.527-1.418-.527-.57 0-1.02.137-1.348.41-.32.274-.48.649-.48 1.125h-3.387c0-.734.227-1.414.68-2.039.453-.625 1.094-1.113 1.922-1.465.828-.359 1.758-.539 2.789-.539 1.562 0 2.801.395 3.715 1.184.921.781 1.382 1.883 1.382 3.304v5.496c.008 1.204.176 2.114.504 2.731v.199h-3.422zm-2.8-2.355c.5 0 .961-.11 1.382-.328.422-.227.735-.528.938-.903v-2.179h-1.266c-1.695 0-2.597.585-2.707 1.757l-.011.2c0 .421.148.769.445 1.043.297.273.703.41 1.219.41zM604.789 127.956v3.117h2.168v2.485h-2.168v6.328c0 .469.09.805.269 1.008.18.203.524.304 1.031.304.375 0 .707-.027.997-.082v2.567a6.983 6.983 0 01-2.051.305c-2.375 0-3.586-1.2-3.633-3.598v-6.832h-1.852v-2.485h1.852v-3.117h3.387zM612.418 143.753h-3.399v-12.68h3.399v12.68zm-3.598-15.961c0-.508.168-.926.504-1.254.344-.328.808-.492 1.394-.492.578 0 1.039.164 1.383.492.344.328.516.746.516 1.254 0 .516-.176.938-.528 1.266-.343.328-.8.492-1.371.492-.57 0-1.031-.164-1.382-.492-.344-.328-.516-.75-.516-1.266zM620.492 141.257c.625 0 1.133-.172 1.523-.516.391-.343.594-.8.61-1.371h3.175a4.368 4.368 0 01-.703 2.368c-.461.71-1.093 1.265-1.898 1.664-.797.39-1.68.586-2.649.586-1.812 0-3.242-.575-4.289-1.723-1.047-1.156-1.57-2.75-1.57-4.781v-.223c0-1.953.52-3.512 1.559-4.676 1.039-1.164 2.464-1.746 4.277-1.746 1.586 0 2.855.453 3.809 1.359.96.899 1.449 2.098 1.464 3.598h-3.175c-.016-.656-.219-1.187-.61-1.594-.39-.414-.906-.621-1.547-.621-.789 0-1.386.289-1.793.867-.398.571-.597 1.5-.597 2.79v.351c0 1.305.199 2.242.597 2.813.399.57 1.004.855 1.817.855zM634.636 143.753v-10.195h-1.886v-2.485h1.886v-1.078c0-1.422.407-2.523 1.219-3.304.82-.789 1.965-1.184 3.434-1.184.468 0 1.043.078 1.722.234l-.035 2.625a4.334 4.334 0 00-1.031-.105c-1.274 0-1.91.598-1.91 1.793v1.019h2.519v2.485h-2.519v10.195h-3.399zM649.437 134.249a9.272 9.272 0 00-1.219-.093c-1.281 0-2.121.433-2.519 1.3v8.297h-3.387v-12.68h3.199l.094 1.512c.68-1.164 1.621-1.746 2.824-1.746.375 0 .727.051 1.055.152l-.047 3.258zM650.129 137.296c0-1.258.242-2.379.726-3.363.484-.985 1.18-1.746 2.086-2.285.914-.539 1.973-.809 3.176-.809 1.711 0 3.105.524 4.183 1.57 1.086 1.047 1.692 2.469 1.817 4.266l.023.867c0 1.946-.543 3.508-1.629 4.688-1.086 1.172-2.543 1.758-4.371 1.758-1.828 0-3.289-.586-4.383-1.758-1.086-1.172-1.628-2.766-1.628-4.782v-.152zm3.386.246c0 1.203.227 2.125.68 2.766.453.633 1.101.949 1.945.949.821 0 1.461-.312 1.922-.937.461-.633.692-1.641.692-3.024 0-1.18-.231-2.094-.692-2.742-.461-.648-1.109-.973-1.945-.973-.828 0-1.469.325-1.922.973-.453.641-.68 1.637-.68 2.988zM667.343 131.073l.106 1.465c.906-1.132 2.121-1.699 3.644-1.699 1.344 0 2.344.395 3 1.184.657.789.993 1.968 1.008 3.539v8.191h-3.387v-8.109c0-.719-.156-1.238-.468-1.559-.313-.328-.832-.492-1.559-.492-.953 0-1.668.406-2.144 1.219v8.941h-3.387v-12.68h3.187zM681.734 127.956v3.117h2.168v2.485h-2.168v6.328c0 .469.09.805.27 1.008.179.203.523.304 1.031.304.375 0 .707-.027.996-.082v2.567a6.978 6.978 0 01-2.051.305c-2.375 0-3.586-1.2-3.633-3.598v-6.832h-1.851v-2.485h1.851v-3.117h3.387zM691.625 143.988c-1.86 0-3.375-.571-4.547-1.711-1.164-1.141-1.746-2.661-1.746-4.559v-.328c0-1.274.246-2.41.738-3.41.492-1.008 1.187-1.782 2.086-2.321.906-.546 1.937-.82 3.094-.82 1.734 0 3.097.547 4.089 1.641 1 1.093 1.5 2.644 1.5 4.652v1.383h-8.074c.11.828.438 1.492.985 1.992.554.5 1.254.75 2.097.75 1.305 0 2.324-.473 3.059-1.418l1.664 1.863c-.508.719-1.195 1.282-2.063 1.688-.867.398-1.828.598-2.882.598zm-.387-10.407c-.672 0-1.219.227-1.641.68-.414.453-.679 1.102-.797 1.945h4.711v-.269c-.015-.75-.218-1.328-.609-1.735-.391-.414-.945-.621-1.664-.621zM701.89 131.073l.106 1.465c.906-1.132 2.121-1.699 3.644-1.699 1.344 0 2.344.395 3 1.184.656.789.992 1.968 1.008 3.539v8.191h-3.387v-8.109c0-.719-.156-1.238-.468-1.559-.313-.328-.832-.492-1.559-.492-.953 0-1.668.406-2.145 1.219v8.941h-3.386v-12.68h3.187zM711.699 137.32c0-1.977.441-3.551 1.324-4.723.891-1.172 2.106-1.758 3.645-1.758 1.234 0 2.253.461 3.058 1.383v-6.469h3.399v18h-3.059l-.164-1.347c-.844 1.054-1.93 1.582-3.258 1.582-1.492 0-2.691-.586-3.598-1.758-.898-1.18-1.347-2.817-1.347-4.91zm3.387.246c0 1.187.207 2.097.621 2.73.414.633 1.015.949 1.804.949 1.047 0 1.785-.441 2.215-1.324v-5.004c-.422-.883-1.152-1.324-2.191-1.324-1.633 0-2.449 1.324-2.449 3.973z" fill="#fff"/><path fill-rule="evenodd" clip-rule="evenodd" d="M163 136.195a1.5 1.5 0 01-1.5 1.5H57.01a1.5 1.5 0 110-3H161.5a1.5 1.5 0 011.5 1.5zM156.852 399.169a2 2 0 00-2.015-1.985l-99.76.744a2 2 0 00.03 4l99.76-.744a2 2 0 001.985-2.015z" fill="#21BBB0"/><path fill-rule="evenodd" clip-rule="evenodd" d="M56.495 134.695a1.5 1.5 0 011.5 1.5v262.41a1.5 1.5 0 01-3 0v-262.41a1.5 1.5 0 011.5-1.5z" fill="#21BBB0"/><path d="M0 254.23a7.445 7.445 0 017.445-7.445h93.434a7.444 7.444 0 017.444 7.445v23.44a7.444 7.444 0 01-7.444 7.445H7.445A7.445 7.445 0 010 277.67v-23.44z" fill="#21BBB0"/><path d="M24.674 272.719v-15.64h5.479c1.898 0 3.337.365 4.318 1.095.981.724 1.472 1.787 1.472 3.191 0 .766-.197 1.443-.59 2.03-.395.58-.943 1.006-1.644 1.278.802.201 1.432.606 1.89 1.214.466.609.698 1.354.698 2.235 0 1.504-.48 2.642-1.439 3.416-.96.773-2.327 1.167-4.103 1.181h-6.08zm3.223-6.81v4.221h2.76c.76 0 1.35-.179 1.773-.537.43-.365.645-.866.645-1.504 0-1.432-.741-2.159-2.224-2.18h-2.954zm0-2.278h2.385c1.625-.028 2.438-.676 2.438-1.944 0-.709-.207-1.217-.623-1.525-.408-.315-1.056-.473-1.944-.473h-2.256v3.942zM45.482 271.538c-.766.931-1.826 1.396-3.18 1.396-1.246 0-2.198-.358-2.857-1.074-.652-.716-.985-1.765-1-3.147v-7.617h3.105v7.509c0 1.21.552 1.816 1.655 1.816 1.052 0 1.776-.366 2.17-1.096v-8.229h3.115v11.623h-2.922l-.086-1.181zM54.108 272.719h-3.115v-11.623h3.115v11.623zm-3.298-14.63c0-.466.154-.849.462-1.15.315-.301.741-.451 1.278-.451.53 0 .953.15 1.268.451.315.301.473.684.473 1.15 0 .472-.161.859-.484 1.16-.315.3-.734.451-1.257.451-.522 0-.945-.151-1.267-.451-.315-.301-.473-.688-.473-1.16zM59.952 272.719h-3.115v-16.5h3.115v16.5zM62.036 266.822c0-1.812.404-3.255 1.214-4.329.816-1.074 1.93-1.612 3.34-1.612 1.132 0 2.066.423 2.804 1.268v-5.93h3.115v16.5h-2.803l-.15-1.235c-.774.967-1.77 1.45-2.987 1.45-1.368 0-2.467-.537-3.298-1.611-.824-1.082-1.235-2.582-1.235-4.501zm3.104.225c0 1.089.19 1.923.57 2.503.38.58.93.871 1.654.871.96 0 1.636-.405 2.03-1.214v-4.587c-.387-.809-1.056-1.214-2.009-1.214-1.496 0-2.245 1.214-2.245 3.641zM81.21 269.507c0-.379-.19-.676-.569-.891-.372-.222-.974-.419-1.805-.591-2.764-.58-4.146-1.755-4.146-3.523 0-1.032.426-1.891 1.278-2.579.86-.694 1.98-1.042 3.363-1.042 1.475 0 2.653.348 3.534 1.042.888.695 1.332 1.597 1.332 2.707h-3.105c0-.444-.143-.809-.43-1.095-.286-.294-.733-.441-1.342-.441-.523 0-.927.119-1.214.355-.286.236-.43.537-.43.902 0 .344.162.623.484.838.33.208.88.39 1.654.548.774.15 1.425.322 1.955.516 1.64.601 2.46 1.643 2.46 3.126 0 1.059-.455 1.919-1.364 2.578-.91.651-2.084.977-3.524.977-.974 0-1.84-.172-2.6-.515-.751-.351-1.342-.828-1.772-1.429-.43-.609-.644-1.264-.644-1.966h2.943c.029.551.233.974.612 1.268.38.293.889.44 1.526.44.594 0 1.042-.111 1.343-.333.308-.229.462-.526.462-.892z" fill="#fff"/><path fill-rule="evenodd" clip-rule="evenodd" d="M894.599 183.458a1.5 1.5 0 011.5 1.5v116.489a1.5 1.5 0 11-3 0V184.958a1.5 1.5 0 011.5-1.5z" fill="#219FBB"/><path d="M841.59 242.565a7.445 7.445 0 017.445-7.445h93.434a7.445 7.445 0 017.445 7.445v23.44a7.445 7.445 0 01-7.445 7.445h-93.434a7.445 7.445 0 01-7.445-7.445v-23.44z" fill="#219FBB"/><path d="M882.187 259.231h-5.651l-1.074 3.222h-3.426l5.822-15.64h2.986l5.855 15.64h-3.427l-1.085-3.222zm-4.78-2.611h3.91l-1.966-5.854-1.944 5.854zM891.382 256.943v5.51h-3.222v-15.64h6.101c1.175 0 2.206.214 3.094.644.895.43 1.583 1.042 2.062 1.837.48.788.72 1.687.72 2.696 0 1.533-.526 2.743-1.579 3.631-1.046.881-2.496 1.322-4.351 1.322h-2.825zm0-2.611h2.879c.852 0 1.5-.2 1.944-.601.452-.401.677-.974.677-1.719 0-.766-.225-1.386-.677-1.859-.451-.472-1.074-.716-1.869-.73h-2.954v4.909zM905.787 262.453h-3.222v-15.64h3.222v15.64zM914.875 259.241c0-.379-.189-.676-.569-.891-.372-.222-.974-.419-1.805-.591-2.764-.58-4.146-1.755-4.146-3.524 0-1.031.426-1.89 1.278-2.578.86-.694 1.98-1.042 3.362-1.042 1.476 0 2.654.348 3.535 1.042.888.695 1.332 1.597 1.332 2.707h-3.105c0-.444-.143-.809-.429-1.095-.287-.294-.735-.441-1.343-.441-.523 0-.928.118-1.214.355-.287.236-.43.537-.43.902 0 .344.161.623.484.838.329.208.88.39 1.654.548.773.15 1.425.322 1.955.515 1.64.602 2.46 1.644 2.46 3.126 0 1.06-.455 1.92-1.364 2.579-.91.651-2.084.977-3.524.977-.974 0-1.84-.172-2.599-.516-.752-.35-1.343-.827-1.773-1.428-.43-.609-.644-1.264-.644-1.966h2.943c.029.551.233.974.612 1.268.38.293.888.44 1.526.44.594 0 1.042-.111 1.342-.333.308-.229.462-.526.462-.892z" fill="#fff"/><path opacity=".1" d="M357.105 301.939h-15.994c.47-1.255.87-2.544 1.194-3.864l8.623-2.455a1.708 1.708 0 001.24-1.643v-8.333c0-.763-.506-1.434-1.24-1.643l-8.623-2.455a34.403 34.403 0 00-3.991-9.633l4.361-7.836a1.707 1.707 0 00-.284-2.037l-5.893-5.893a1.707 1.707 0 00-2.038-.285l-7.835 4.362a34.356 34.356 0 00-9.633-3.991l-2.456-8.623a1.707 1.707 0 00-1.642-1.24h-8.334c-.763 0-1.433.506-1.642 1.24l-2.456 8.623a34.326 34.326 0 00-8.975 3.609v-11.09c0-1.234-1-2.234-2.233-2.234h-27.25c-1.234 0-2.234 1-2.234 2.234v21.67c0 1.234 1 2.234 2.234 2.234h16.705a34.311 34.311 0 00-3.56 8.89l-8.623 2.455c-.734.209-1.24.88-1.24 1.643v8.333c0 .763.506 1.434 1.24 1.643l8.623 2.455a34.373 34.373 0 003.991 9.633l-4.361 7.836a1.707 1.707 0 00.284 2.037l5.893 5.893c.539.54 1.371.656 2.038.285l7.835-4.362a34.356 34.356 0 009.633 3.991l2.456 8.623c.209.734.879 1.24 1.642 1.24h8.334c.763 0 1.433-.506 1.642-1.24l2.456-8.623a34.26 34.26 0 003.946-1.227v3.682c0 1.234 1 2.233 2.233 2.233h33.934a2.233 2.233 0 002.233-2.233v-21.671c0-1.233-1-2.233-2.233-2.233z" fill="#00345E"/><path d="M352.168 298.655v-8.333c0-.763-.506-1.433-1.24-1.642l-8.623-2.456a34.375 34.375 0 00-3.992-9.633l4.362-7.835a1.707 1.707 0 00-.285-2.038l-5.892-5.893a1.707 1.707 0 00-2.038-.284l-7.835 4.361a34.356 34.356 0 00-9.633-3.991l-2.456-8.623a1.708 1.708 0 00-1.643-1.24h-8.333c-.763 0-1.433.506-1.642 1.24l-2.456 8.623a34.343 34.343 0 00-9.633 3.991l-7.835-4.361a1.707 1.707 0 00-2.038.284l-5.893 5.893a1.705 1.705 0 00-.284 2.038l4.361 7.835a34.343 34.343 0 00-3.991 9.633l-8.623 2.456a1.707 1.707 0 00-1.24 1.642v8.333c0 .763.506 1.434 1.24 1.643l8.623 2.456a34.356 34.356 0 003.991 9.633l-4.361 7.835a1.707 1.707 0 00.284 2.038l5.893 5.892c.539.54 1.371.656 2.038.285l7.835-4.362a34.343 34.343 0 009.633 3.991l2.456 8.624a1.707 1.707 0 001.642 1.239h8.333c.763 0 1.434-.506 1.643-1.239l2.456-8.624a34.356 34.356 0 009.633-3.991l7.835 4.362a1.707 1.707 0 002.038-.285l5.892-5.892c.54-.54.656-1.372.285-2.038l-4.362-7.835a34.388 34.388 0 003.992-9.633l8.623-2.456a1.708 1.708 0 001.24-1.643z" fill="#67CED0"/><path d="M291.486 264.514v13.87c0 1.232-1 2.233-2.232 2.233h-12.206a34.626 34.626 0 012.092-4.026l-4.362-7.835a1.71 1.71 0 01.285-2.038l5.893-5.893a1.71 1.71 0 012.038-.285l7.835 4.362c.216-.131.437-.261.657-.388z" fill="#E7FFFF"/><path d="M308.727 315.43c11.565 0 20.941-9.376 20.941-20.941s-9.376-20.941-20.941-20.941-20.941 9.376-20.941 20.941 9.376 20.941 20.941 20.941z" fill="#CCFFF0"/><path d="M308.727 311.729c9.522 0 17.24-7.719 17.24-17.24 0-9.522-7.718-17.24-17.24-17.24-9.521 0-17.24 7.718-17.24 17.24 0 9.521 7.719 17.24 17.24 17.24z" fill="#46EFB2"/><path d="M308.727 321.667c-14.986 0-27.178-12.192-27.178-27.178a1.113 1.113 0 112.227 0c0 13.758 11.193 24.95 24.951 24.95a1.114 1.114 0 010 2.228zM334.791 295.603a1.113 1.113 0 01-1.113-1.114c0-13.758-11.193-24.951-24.951-24.951a1.114 1.114 0 010-2.228c14.986 0 27.178 12.193 27.178 27.179 0 .615-.498 1.114-1.114 1.114z" fill="#CCFFF0"/><path d="M303.518 298.284a1.11 1.11 0 01-.787-.326l-2.681-2.681a1.115 1.115 0 010-1.576l2.681-2.681a1.114 1.114 0 111.575 1.575l-1.894 1.894 1.894 1.894a1.114 1.114 0 01-.788 1.901zM313.935 298.284a1.115 1.115 0 01-.787-1.902l1.893-1.893-1.893-1.894a1.114 1.114 0 111.575-1.575l2.681 2.681c.435.435.435 1.14 0 1.575l-2.681 2.681a1.107 1.107 0 01-.788.327zM307.212 298.284a1.115 1.115 0 01-.969-1.662l3.028-5.362a1.113 1.113 0 111.94 1.095l-3.028 5.362a1.113 1.113 0 01-.971.567z" fill="#00345E"/><path d="M289.254 277.334h-27.25c-1.234 0-2.234-1-2.234-2.233V253.43c0-1.234 1-2.233 2.234-2.233h27.25c1.233 0 2.233.999 2.233 2.233v21.671c0 1.233-1 2.233-2.233 2.233z" fill="#F5F5F5"/><path d="M289.254 251.197h-7.611v26.137h7.611c1.233 0 2.233-1 2.233-2.233V253.43c0-1.234-1-2.233-2.233-2.233z" fill="#4D9ABF"/><path d="M291.487 258.491v-5.061c0-1.234-1-2.233-2.233-2.233h-27.25a2.233 2.233 0 00-2.234 2.233v5.061h31.717z" fill="#fff"/><path d="M277.156 272.12h-11.075a1.116 1.116 0 010-2.233h11.076a1.117 1.117 0 01-.001 2.233zM271.127 267.485h-5.046a1.116 1.116 0 010-2.233h5.046a1.117 1.117 0 110 2.233z" fill="#D9E4E3"/><path d="M357.105 332.755h-33.934c-1.233 0-2.233-1-2.233-2.233v-21.671c0-1.233 1-2.233 2.233-2.233h33.934c1.233 0 2.233 1 2.233 2.233v21.671c0 1.233-1 2.233-2.233 2.233z" fill="#F5F5F5"/><path d="M359.338 313.912v-5.061c0-1.233-1-2.233-2.233-2.233h-33.934c-1.233 0-2.233 1-2.233 2.233v5.061h38.4z" fill="#006686"/><path d="M357.105 305.504h-14.427c.199-.613.383-1.232.548-1.854l8.007-2.281a2.833 2.833 0 002.049-2.713v-8.334c0-1.254-.843-2.37-2.049-2.713l-8.007-2.281a35.45 35.45 0 00-3.628-8.755l4.05-7.276a2.832 2.832 0 00-.47-3.367l-5.892-5.892a2.834 2.834 0 00-3.368-.471l-7.275 4.05a35.485 35.485 0 00-8.755-3.627l-2.281-8.007a2.835 2.835 0 00-2.714-2.049h-8.333c-1.254 0-2.37.843-2.714 2.049l-2.28 8.007a35.468 35.468 0 00-6.966 2.658v-9.218a3.35 3.35 0 00-3.346-3.347h-27.25a3.35 3.35 0 00-3.347 3.347v5.061c0 .615.498 1.114 1.114 1.114h30.602v15.496a1.12 1.12 0 01-1.119 1.119h-27.25c-.617 0-1.12-.502-1.12-1.119v-10.474a1.113 1.113 0 10-2.227 0v10.474a3.35 3.35 0 003.347 3.346h14.84a35.542 35.542 0 00-2.616 6.881l-8.007 2.28a2.835 2.835 0 00-2.049 2.714v8.333c0 1.255.843 2.37 2.049 2.714l8.007 2.28a35.418 35.418 0 003.628 8.755l-4.051 7.276a2.834 2.834 0 00.471 3.367l5.892 5.893a2.834 2.834 0 003.368.47l7.275-4.05a35.47 35.47 0 008.755 3.627l2.281 8.007a2.831 2.831 0 002.713 2.049h8.334a2.832 2.832 0 002.713-2.049l2.281-8.007a35.49 35.49 0 001.936-.575v2.109a3.35 3.35 0 003.347 3.347h33.934a3.35 3.35 0 003.347-3.347V308.85a3.35 3.35 0 00-3.347-3.346zm-96.221-48.126v-3.948c0-.617.503-1.119 1.12-1.119h27.25a1.12 1.12 0 011.119 1.119v3.948h-29.489zm55.842 69.607a1.112 1.112 0 00-.805.777l-2.456 8.623a.596.596 0 01-.571.431h-8.333a.596.596 0 01-.571-.431l-2.456-8.623a1.117 1.117 0 00-.806-.777 33.228 33.228 0 01-9.321-3.862 1.114 1.114 0 00-1.119-.02l-7.835 4.361a.595.595 0 01-.709-.099l-5.893-5.893a.595.595 0 01-.098-.708l4.361-7.835c.195-.35.187-.777-.021-1.119a33.287 33.287 0 01-3.862-9.321 1.112 1.112 0 00-.776-.806l-8.623-2.456a.596.596 0 01-.431-.571v-8.333c0-.264.177-.499.431-.571l8.623-2.456c.385-.11.681-.417.776-.806a33.295 33.295 0 013.13-8.041h9.893a3.35 3.35 0 003.347-3.347v-9.935a33.266 33.266 0 018.127-3.173c.389-.096.696-.392.806-.777l2.456-8.623a.596.596 0 01.571-.431h8.333c.264 0 .499.177.571.431l2.456 8.623c.109.385.417.681.805.777a33.23 33.23 0 019.321 3.861c.343.208.77.216 1.12.021l7.835-4.361a.594.594 0 01.708.099l5.893 5.892a.597.597 0 01.099.709l-4.362 7.835c-.194.35-.186.777.021 1.119a33.228 33.228 0 013.862 9.321c.095.389.392.696.776.806l8.624 2.456a.597.597 0 01.431.571v8.333a.597.597 0 01-.431.571l-8.624 2.456a1.112 1.112 0 00-.776.806 33.702 33.702 0 01-.896 3.015h-4.547a1.114 1.114 0 000 2.228h21.324c.618 0 1.12.502 1.12 1.119v3.948h-36.172v-3.948a1.12 1.12 0 011.119-1.119h6.473a1.114 1.114 0 000-2.228h-6.473a3.351 3.351 0 00-3.347 3.347v17.209a33.486 33.486 0 01-3.098.925zm40.379 4.656h-33.934a1.12 1.12 0 01-1.119-1.119v-15.496h36.172v15.496a1.12 1.12 0 01-1.119 1.119z" fill="#00345E"/><path d="M328.961 326.677a1.114 1.114 0 01-1.059-.768l-1.528-4.68a1.114 1.114 0 012.117-.692l.727 2.224.407-.748a1.112 1.112 0 011.956 0l.407.748.727-2.224a1.112 1.112 0 112.117.692l-1.528 4.68a1.114 1.114 0 01-2.037.187l-.664-1.22-.664 1.22c-.196.36-.573.581-.978.581zM338.496 326.677a1.114 1.114 0 01-1.059-.768l-1.528-4.68a1.114 1.114 0 012.117-.692l.727 2.224.407-.748a1.112 1.112 0 011.956 0l.407.748.727-2.224a1.112 1.112 0 112.117.692l-1.528 4.68a1.114 1.114 0 01-2.037.187l-.664-1.22-.664 1.22c-.196.36-.573.581-.978.581zM351.315 326.677c-.405 0-.782-.221-.978-.581l-.664-1.22-.664 1.22a1.113 1.113 0 01-2.037-.187l-1.528-4.68a1.114 1.114 0 012.117-.692l.727 2.224.407-.748a1.114 1.114 0 011.957 0l.407.748.726-2.224a1.113 1.113 0 112.118.692l-1.529 4.68a1.114 1.114 0 01-1.059.768z" fill="#00CEBD"/><path d="M351.205 279.845c-.286 0-.57-.108-.788-.326l-2.449-2.449a1.114 1.114 0 010-1.575l2.449-2.449a1.114 1.114 0 011.575 0l2.449 2.449c.435.435.435 1.14 0 1.575l-2.449 2.449a1.11 1.11 0 01-.787.326zm-.874-3.563l.874.874.874-.874-.874-.874-.874.874z" fill="#46EFB2"/><path d="M332.123 255.866a1.113 1.113 0 01-1.113-1.114c0-.74-.602-1.342-1.342-1.342a1.114 1.114 0 010-2.228c.74 0 1.342-.602 1.342-1.342a1.113 1.113 0 112.227 0c0 .74.602 1.342 1.342 1.342a1.114 1.114 0 010 2.228c-.74 0-1.342.602-1.342 1.342 0 .615-.499 1.114-1.114 1.114z" fill="#4D9ABF"/><path d="M266.623 313.835a1.114 1.114 0 01-1.114-1.114c0-.74-.602-1.342-1.342-1.342a1.114 1.114 0 010-2.228c.74 0 1.342-.602 1.342-1.342a1.113 1.113 0 012.228 0c0 .74.602 1.342 1.341 1.342a1.114 1.114 0 010 2.228c-.739 0-1.341.602-1.341 1.342 0 .615-.499 1.114-1.114 1.114z" fill="#00CEBD"/><path d="M264.965 325.8a1.114 1.114 0 01-1.114-1.114c0-.74-.602-1.342-1.342-1.342a1.113 1.113 0 110-2.227c.74 0 1.342-.602 1.342-1.342a1.114 1.114 0 012.228 0c0 .74.602 1.342 1.341 1.342a1.114 1.114 0 110 2.227c-.739 0-1.341.602-1.341 1.342 0 .615-.499 1.114-1.114 1.114z" fill="#4D9ABF"/><path opacity=".1" d="M506.574 10.163v67.985a3.643 3.643 0 01-3.64 3.64h-60.666a3.643 3.643 0 01-3.64-3.64V10.163a3.643 3.643 0 013.64-3.64h60.666a3.643 3.643 0 013.64 3.64z" fill="#00345E"/><path d="M497.514 5.223v64.723a3.643 3.643 0 01-3.639 3.64h-60.667a3.643 3.643 0 01-3.639-3.64V5.223a3.643 3.643 0 013.639-3.64h60.667a3.643 3.643 0 013.639 3.64z" fill="#fff"/><path d="M497.514 13.273v-8.05a3.64 3.64 0 00-3.64-3.64h-60.665a3.64 3.64 0 00-3.64 3.64v8.05h67.945z" fill="#46EFB2"/><path d="M438.81 8.657a1.211 1.211 0 01-1.211-1.21V7.41a1.211 1.211 0 112.422 0v.035a1.21 1.21 0 01-1.211 1.211zM443.499 8.657a1.212 1.212 0 01-1.211-1.21V7.41a1.212 1.212 0 012.423 0v.035c0 .67-.543 1.211-1.212 1.211zM448.189 8.657a1.211 1.211 0 01-1.211-1.21V7.41a1.211 1.211 0 112.422 0v.035a1.21 1.21 0 01-1.211 1.211z" fill="#00345E"/><path d="M493.874.373h-60.665a4.856 4.856 0 00-4.851 4.85V48.25a1.211 1.211 0 102.422 0V14.484h60.105a1.211 1.211 0 100-2.422H430.78V5.224c0-1.34 1.09-2.429 2.429-2.429h60.665a2.432 2.432 0 012.429 2.429v64.72c0 1.34-1.09 2.43-2.429 2.43h-60.665a2.432 2.432 0 01-2.429-2.43V54.92a1.211 1.211 0 10-2.422 0v15.025a4.856 4.856 0 004.851 4.85h60.665a4.856 4.856 0 004.851-4.85V5.224a4.856 4.856 0 00-4.851-4.851z" fill="#00345E"/><path d="M452.564 45.246h-2.594v-4.519h-3.843v4.52h-2.609V34.424h2.609v4.296h3.843v-4.296h2.594v10.822zM462.494 36.439h-3.248v8.807h-2.609V36.44h-3.189v-2.014h9.046v2.014zM467.027 34.425l2.416 7.529 2.408-7.53h3.434v10.822h-2.616V42.72l.252-5.173-2.616 7.7h-1.724l-2.624-7.707.253 5.18v2.527h-2.609V34.425h3.426zM479.559 43.24h4.541v2.006h-7.15V34.425h2.609v8.815z" fill="#00345E"/><path opacity=".1" d="M713.308 10.163v67.985a3.643 3.643 0 01-3.64 3.64h-60.666a3.643 3.643 0 01-3.639-3.64V10.163a3.643 3.643 0 013.639-3.64h60.667a3.643 3.643 0 013.639 3.64z" fill="#00345E"/><path d="M704.249 5.223v64.723a3.643 3.643 0 01-3.64 3.64h-60.666a3.643 3.643 0 01-3.64-3.64V5.223a3.643 3.643 0 013.64-3.64h60.666a3.643 3.643 0 013.64 3.64z" fill="#fff"/><path d="M704.248 13.273v-8.05a3.64 3.64 0 00-3.64-3.64h-60.665a3.64 3.64 0 00-3.64 3.64v8.05h67.945z" fill="#4D9ABF"/><path d="M645.545 8.657a1.212 1.212 0 01-1.212-1.21V7.41a1.212 1.212 0 012.423 0v.035a1.21 1.21 0 01-1.211 1.211zM650.234 8.657a1.211 1.211 0 01-1.211-1.21V7.41a1.211 1.211 0 112.422 0v.035a1.21 1.21 0 01-1.211 1.211zM654.923 8.657a1.212 1.212 0 01-1.211-1.21V7.41a1.212 1.212 0 012.422 0v.035a1.21 1.21 0 01-1.211 1.211z" fill="#00345E"/><path d="M700.608.373h-60.665a4.857 4.857 0 00-4.851 4.85V48.25a1.212 1.212 0 002.422 0V14.484h60.105a1.211 1.211 0 100-2.422h-60.104V5.224a2.431 2.431 0 012.429-2.429h60.665a2.431 2.431 0 012.428 2.429v64.72a2.431 2.431 0 01-2.428 2.43h-60.666a2.432 2.432 0 01-2.429-2.43V54.92a1.211 1.211 0 10-2.422 0v15.025a4.856 4.856 0 004.851 4.85h60.665a4.856 4.856 0 004.851-4.85V5.224a4.856 4.856 0 00-4.851-4.851z" fill="#00345E"/><path d="M657.858 41.575v3.671h-2.609V34.425h4.319c.827 0 1.558.153 2.192.46a3.388 3.388 0 011.479 1.301c.352.56.528 1.197.528 1.91 0 1.056-.379 1.9-1.137 2.535-.753.63-1.789.944-3.107.944h-1.665zm0-2.014h1.71c.505 0 .889-.127 1.152-.38.267-.252.401-.609.401-1.07 0-.505-.136-.909-.409-1.211-.272-.303-.644-.456-1.115-.461h-1.739v3.122zM674.202 45.246h-2.594l-3.835-6.733v6.733h-2.609V34.425h2.609l3.828 6.734v-6.734h2.601v10.822zM684.712 43.909c-.402.446-.989.805-1.762 1.077-.773.273-1.62.41-2.542.41-1.417 0-2.549-.434-3.396-1.302-.848-.867-1.301-2.073-1.36-3.62l-.008-.936c0-1.065.188-1.994.565-2.787.377-.798.914-1.41 1.613-1.836.704-.43 1.516-.646 2.438-.646 1.348 0 2.393.31 3.136.929.748.614 1.185 1.533 1.308 2.757h-2.512c-.089-.604-.282-1.035-.58-1.293-.297-.258-.718-.387-1.263-.387-.654 0-1.16.278-1.516.833-.357.555-.538 1.348-.543 2.378v.654c0 1.08.183 1.893.55 2.438.372.54.954.81 1.747.81.679 0 1.184-.15 1.516-.453v-1.68h-1.813v-1.791h4.422v4.445z" fill="#00345E"/><path opacity=".1" d="M609.941 10.163v67.985a3.643 3.643 0 01-3.64 3.64h-60.666a3.643 3.643 0 01-3.64-3.64V10.163a3.643 3.643 0 013.64-3.64h60.666a3.643 3.643 0 013.64 3.64z" fill="#00345E"/><path d="M600.881 5.223v64.723a3.643 3.643 0 01-3.639 3.64h-60.667a3.643 3.643 0 01-3.639-3.64V5.223a3.643 3.643 0 013.639-3.64h60.667a3.643 3.643 0 013.639 3.64z" fill="#fff"/><path d="M600.881 13.273v-8.05a3.64 3.64 0 00-3.64-3.64h-60.665a3.64 3.64 0 00-3.64 3.64v8.05h67.945z" fill="#00CEBD"/><path d="M542.177 8.657a1.211 1.211 0 01-1.211-1.21V7.41a1.211 1.211 0 112.422 0v.035a1.21 1.21 0 01-1.211 1.211zM546.867 8.657a1.211 1.211 0 01-1.211-1.21V7.41a1.211 1.211 0 112.422 0v.035c0 .67-.543 1.211-1.211 1.211zM551.556 8.657a1.211 1.211 0 01-1.211-1.21V7.41a1.211 1.211 0 112.422 0v.035a1.21 1.21 0 01-1.211 1.211z" fill="#00345E"/><path d="M597.241.373h-60.665a4.856 4.856 0 00-4.851 4.85V48.25a1.211 1.211 0 102.422 0V14.484h60.105a1.211 1.211 0 100-2.422h-60.105V5.224c0-1.34 1.09-2.429 2.429-2.429h60.665c1.34 0 2.429 1.09 2.429 2.429v64.72a2.431 2.431 0 01-2.429 2.43h-60.665a2.432 2.432 0 01-2.429-2.43V54.92a1.211 1.211 0 10-2.422 0v15.025a4.856 4.856 0 004.851 4.85h60.665a4.856 4.856 0 004.851-4.85V5.224a4.856 4.856 0 00-4.851-4.851z" fill="#00345E"/><path d="M561.67 34.425h2.602v7.425c0 .688-.161 1.303-.484 1.843-.317.54-.763.959-1.337 1.256a4.07 4.07 0 01-1.911.446c-1.179 0-2.096-.297-2.75-.892-.654-.594-.981-1.437-.981-2.527h2.617c0 .496.084.855.252 1.078.174.223.461.334.862.334.362 0 .64-.133.833-.401.198-.273.297-.652.297-1.137v-7.425zM571.503 42.37c0-.381-.136-.679-.408-.892-.268-.213-.741-.433-1.42-.661a13.63 13.63 0 01-1.665-.662c-1.402-.689-2.103-1.635-2.103-2.839 0-.6.173-1.127.52-1.583.352-.461.847-.818 1.486-1.07.64-.258 1.358-.387 2.156-.387.778 0 1.474.139 2.088.416.62.278 1.1.674 1.442 1.19.342.51.513 1.095.513 1.754h-2.601c0-.441-.136-.783-.409-1.026-.268-.243-.632-.364-1.093-.364-.465 0-.834.104-1.107.312-.268.203-.401.463-.401.78 0 .278.148.53.446.758.297.223.82.456 1.568.699.748.238 1.362.495 1.843.773 1.17.674 1.754 1.603 1.754 2.787 0 .947-.357 1.69-1.07 2.23-.714.54-1.692.81-2.936.81-.877 0-1.672-.156-2.386-.468-.708-.317-1.243-.748-1.605-1.293-.357-.55-.535-1.182-.535-1.896h2.616c0 .58.149 1.009.446 1.286.302.273.79.409 1.464.409.431 0 .771-.092 1.018-.275.253-.188.379-.451.379-.788z" fill="#00345E"/><path fill-rule="evenodd" clip-rule="evenodd" d="M155.157 128.361a1.501 1.501 0 012.121 0l6.782 6.783a1.5 1.5 0 010 2.121l-6.782 6.783a1.501 1.501 0 01-2.121-2.122l5.721-5.721-5.721-5.722a1.5 1.5 0 010-2.122z" fill="#21BBB0"/><path fill-rule="evenodd" clip-rule="evenodd" d="M886.688 191.301a1.5 1.5 0 010-2.121l6.782-6.783a1.502 1.502 0 012.122 0l6.782 6.783a1.5 1.5 0 11-2.121 2.121l-5.722-5.722-5.722 5.722a1.5 1.5 0 01-2.121 0z" fill="#219FBB"/><mask id="a" maskUnits="userSpaceOnUse" x="797" y="287" width="192" height="126"><path d="M797.79 287.075h190.355v125.208H797.79V287.075z" fill="#C4C4C4"/></mask><g mask="url(#a)"><path opacity=".1" d="M921.517 344.118H870.09a3.837 3.837 0 01-3.838-3.837v-41.838a3.838 3.838 0 013.838-3.838h51.427a3.838 3.838 0 013.838 3.838v41.838a3.837 3.837 0 01-3.838 3.837zM915.761 403.494h-39.916a3.838 3.838 0 01-3.838-3.838v-24.572a3.838 3.838 0 013.838-3.838h39.916a3.838 3.838 0 013.838 3.838v24.572a3.838 3.838 0 01-3.838 3.838z" fill="#00345E"/><path opacity=".1" d="M977.918 371.246h-18.044v-.704c0-5.287-4.301-9.588-9.588-9.588H841.32c-5.287 0-9.588 4.301-9.588 9.588v.704h-18.044a3.837 3.837 0 00-3.837 3.838v24.572a3.837 3.837 0 003.837 3.838h39.917a3.838 3.838 0 003.838-3.838v-24.572a3.838 3.838 0 00-3.838-3.838h-18.044v-.704a5.766 5.766 0 015.759-5.76h108.966a5.766 5.766 0 015.759 5.76v.704h-18.044a3.837 3.837 0 00-3.837 3.838v24.572a3.837 3.837 0 003.837 3.838h39.917a3.838 3.838 0 003.838-3.838v-24.572a3.838 3.838 0 00-3.838-3.838z" fill="#00345E"/><path d="M921.516 351.01H870.09a3.838 3.838 0 01-3.838-3.838v-41.838a3.838 3.838 0 013.838-3.838h51.426a3.838 3.838 0 013.838 3.838v41.838a3.838 3.838 0 01-3.838 3.838z" fill="#F5F5F5"/><path d="M921.516 301.496h-13.079v49.514h13.079a3.837 3.837 0 003.838-3.837v-41.839a3.838 3.838 0 00-3.838-3.838z" fill="#E6E6E6"/><path d="M925.354 314.033v-8.699a3.838 3.838 0 00-3.838-3.838H870.09a3.838 3.838 0 00-3.838 3.838v8.699h59.102z" fill="#00CEBD"/><path d="M900.726 338.604h-22.48a1.919 1.919 0 110-3.837h22.48a1.918 1.918 0 110 3.837z" fill="#E6E6E6"/><path d="M890.364 330.639h-12.118a1.919 1.919 0 110-3.837h12.118a1.918 1.918 0 110 3.837z" fill="#46EFB2"/><path d="M853.605 410.386h-39.917a3.837 3.837 0 01-3.837-3.838v-24.572a3.837 3.837 0 013.837-3.838h39.917a3.838 3.838 0 013.838 3.838v24.572a3.838 3.838 0 01-3.838 3.838z" fill="#F5F5F5"/><path d="M853.605 410.386h-39.917a3.837 3.837 0 01-3.837-3.838v-24.572a3.837 3.837 0 013.837-3.838h39.917a3.838 3.838 0 013.838 3.838v24.572a3.838 3.838 0 01-3.838 3.838z" fill="#F5F5F5"/><path d="M857.443 390.675v-8.699a3.838 3.838 0 00-3.838-3.838h-39.917a3.837 3.837 0 00-3.837 3.838v8.699h47.592z" fill="#4D9ABF"/><path d="M845.448 401.739h-23.604a1.919 1.919 0 010-3.838h23.604a1.919 1.919 0 010 3.838z" fill="#006686"/><path d="M915.761 410.386h-39.916a3.838 3.838 0 01-3.838-3.838v-24.572a3.838 3.838 0 013.838-3.838h39.916a3.838 3.838 0 013.838 3.838v24.572a3.838 3.838 0 01-3.838 3.838z" fill="#F5F5F5"/><path d="M919.599 390.675v-8.699a3.838 3.838 0 00-3.838-3.838h-39.916a3.838 3.838 0 00-3.838 3.838v8.699h47.592z" fill="#4D9ABF"/><path d="M907.605 401.739h-23.604a1.919 1.919 0 010-3.838h23.604a1.92 1.92 0 010 3.838z" fill="#006686"/><path d="M977.918 410.386h-39.917a3.837 3.837 0 01-3.837-3.838v-24.572a3.837 3.837 0 013.837-3.838h39.917a3.838 3.838 0 013.838 3.838v24.572a3.838 3.838 0 01-3.838 3.838z" fill="#F5F5F5"/><path d="M981.756 390.675v-8.699a3.838 3.838 0 00-3.838-3.838h-39.917a3.837 3.837 0 00-3.837 3.838v8.699h47.592z" fill="#4D9ABF"/><path d="M969.762 401.739h-23.604a1.92 1.92 0 010-3.838h23.604a1.919 1.919 0 010 3.838z" fill="#006686"/><path d="M977.918 376.223h-18.046c-.033-5.258-4.32-9.526-9.586-9.526h-52.569v-13.772h23.799a5.759 5.759 0 005.752-5.752V324.6a1.914 1.914 0 00-3.829 0v22.573c0 1.06-.863 1.923-1.923 1.923h-51.427a1.926 1.926 0 01-1.923-1.923v-31.225h57.188a1.914 1.914 0 001.914-1.915v-8.699a5.759 5.759 0 00-5.751-5.752h-51.428a5.76 5.76 0 00-5.752 5.752v41.838a5.759 5.759 0 005.752 5.752h23.8v13.772H841.32c-5.266 0-9.553 4.268-9.586 9.527h-18.046a5.759 5.759 0 00-5.752 5.752v24.573a5.759 5.759 0 005.752 5.752h39.917a5.76 5.76 0 005.752-5.752v-24.573a5.76 5.76 0 00-5.752-5.752h-18.041a5.764 5.764 0 015.756-5.698h52.569v5.698h-18.044a5.759 5.759 0 00-5.752 5.752v24.573a5.759 5.759 0 005.752 5.752h18.044v6.907h-23.793c-5.266 0-9.553 4.268-9.586 9.527h-18.046a5.758 5.758 0 00-5.752 5.752v24.572a5.759 5.759 0 005.752 5.753h39.917a5.76 5.76 0 005.752-5.753v-24.572a5.759 5.759 0 00-5.752-5.752H864.34a5.763 5.763 0 015.756-5.698h51.413a5.764 5.764 0 015.757 5.698h-18.041a5.758 5.758 0 00-5.752 5.752v24.572a5.759 5.759 0 005.752 5.753h39.916a5.759 5.759 0 005.752-5.753v-24.572a5.758 5.758 0 00-5.752-5.752h-18.045c-.033-5.259-4.32-9.527-9.587-9.527h-23.792V412.3h18.044a5.759 5.759 0 005.752-5.752v-24.573a5.759 5.759 0 00-5.752-5.752h-18.044v-5.698h52.569a5.764 5.764 0 015.756 5.698h-18.041a5.76 5.76 0 00-5.752 5.752v24.573a5.76 5.76 0 005.752 5.752h39.917a5.76 5.76 0 005.752-5.752v-24.573a5.76 5.76 0 00-5.752-5.752zm-109.752-70.889c0-1.06.863-1.923 1.923-1.923h51.427c1.061 0 1.923.863 1.923 1.923v6.785h-55.273v-6.785zm-14.561 103.138h-39.917a1.926 1.926 0 01-1.923-1.924v-13.959h43.763v13.959a1.926 1.926 0 01-1.923 1.924zm1.923-26.496v6.784h-43.763v-6.784c0-1.061.863-1.924 1.923-1.924h39.917c1.06 0 1.923.863 1.923 1.924zm28.776 52.51v24.573c0 1.06-.863 1.923-1.923 1.923h-39.917a1.926 1.926 0 01-1.923-1.923V445.1h35.111a1.915 1.915 0 000-3.829h-35.111v-6.785c0-1.061.863-1.923 1.923-1.923h39.917c1.06 0 1.923.863 1.923 1.923zm64.837 26.496h-39.916a1.925 1.925 0 01-1.923-1.923V445.1h43.763v13.959c0 1.06-.863 1.923-1.924 1.923zm1.924-26.496v6.785h-43.764v-6.785c0-1.061.863-1.923 1.924-1.923h39.916c1.061 0 1.924.863 1.924 1.923zm-35.304-26.014h-39.916a1.926 1.926 0 01-1.924-1.924v-13.959h43.764v13.959a1.926 1.926 0 01-1.924 1.924zm1.924-26.496v6.784h-43.764v-6.784c0-1.061.863-1.924 1.924-1.924h39.916c1.061 0 1.924.863 1.924 1.924zm20.316-1.924h39.917c1.061 0 1.923.863 1.923 1.924v6.784h-43.763v-6.784c0-1.061.863-1.924 1.923-1.924zm39.917 28.42h-39.917a1.926 1.926 0 01-1.923-1.924v-13.959h43.763v13.959a1.926 1.926 0 01-1.923 1.924z" fill="#00345E"/><path d="M908.437 332.197a5.395 5.395 0 10.001-10.79 5.395 5.395 0 00-.001 10.79z" fill="#4D9ABF"/></g></svg>