<?xml version="1.0" encoding="utf-8"?>
<!-- Generator: Adobe Illustrator 25.2.1, SVG Export Plug-In . SVG Version: 6.00 Build 0)  -->
<svg version="1.1" id="Layer_1" xmlns="http://www.w3.org/2000/svg" xmlns:xlink="http://www.w3.org/1999/xlink" x="0px" y="0px"
	 viewBox="0 0 100 100" style="enable-background:new 0 0 100 100;" xml:space="preserve">
<path d="M72.1,55.5c-0.4,0-0.8,0-1.2,0c-0.4,0-0.7,0.1-1.1,0.1c-0.1,0.2-0.1,0.5-0.2,0.7c0,0.2-0.1,0.5-0.1,0.8v0.1
	c0,0.5,0.1,0.9,0.3,1c0.2,0.2,0.6,0.3,1.2,0.3c0.7,0,1.4,0,2-0.1c0.6-0.1,1.1-0.2,1.7-0.5c0,0,0.1,0,0.1-0.1c0-0.7,0-1.4,0-2.2
	c-0.3,0-0.6-0.1-0.9-0.1C73.3,55.6,72.7,55.5,72.1,55.5z"/>
<path d="M50,0C22.4,0,0,22.4,0,50c0,27.6,22.4,50,50,50s50-22.4,50-50C100,22.4,77.6,0,50,0z M41.9,27.2c0.5-0.1,1-0.1,1.5-0.2
	c0.5-0.1,1-0.1,1.6-0.2c0.5-0.1,1-0.1,1.5-0.1c0.5,0,1,0,1.4,0c2.2,0,4,0.3,5.5,0.9c1.5,0.6,2.2,1.6,2.2,3.2v4
	c-0.5,0.1-1,0.3-1.5,0.4c-0.5,0.1-1,0.2-1.6,0.3c-0.5,0.1-1,0.1-1.5,0.2c-0.5,0-1,0.1-1.4,0.1c-2.2,0-4-0.3-5.5-0.9
	c-1.5-0.6-2.2-1.6-2.2-3.2V27.2z M37.7,63.6c-0.8,1.4-2.1,2.5-4,3.2C31.8,67.6,29,68,25.4,68c-1.9,0-3.4-0.1-4.7-0.2
	c-1.3-0.2-2.3-0.3-3.1-0.6c-0.8-0.2-1.4-0.5-1.9-0.8c-0.5-0.3-0.9-0.6-1.2-0.9c-0.5-0.6-0.9-1.3-1.2-2.2c-0.3-0.9-0.4-2-0.4-3.4
	c0-0.8,0-1.6,0.1-2.3c0.1-0.7,0.2-1.3,0.4-2h0.3c0.8,0.4,1.7,0.7,2.4,0.9c0.8,0.3,1.5,0.5,2.3,0.6c0.8,0.2,1.7,0.3,2.7,0.4
	c1,0.1,2.2,0.1,3.6,0.1c0.7,0,1.4,0,2,0c0.6,0,1.2,0,1.6-0.1c0.1-0.4,0.2-0.8,0.1-1.1c-0.1-0.3-0.3-0.5-0.7-0.7
	c-0.4-0.2-1-0.4-1.8-0.5l-3.7-0.6c-2.1-0.3-3.8-0.8-5.1-1.5c-1.2-0.6-2.1-1.5-2.6-2.6c-0.5-1.1-0.8-2.4-0.8-4.1
	c0-1.4,0.3-2.7,0.9-3.8c0.6-1.1,1.5-2,2.7-2.8c1.2-0.7,2.7-1.3,4.4-1.7c1.7-0.4,3.8-0.6,6-0.6c1.7,0,3,0.1,4.1,0.2
	c1.1,0.2,1.9,0.4,2.5,0.7c0.6,0.3,1.1,0.6,1.5,1c0.5,0.5,0.9,1,1.1,1.6c0.3,0.6,0.4,1.3,0.5,2.1c0.1,0.8,0.2,1.9,0.2,3.1
	c0,0.5,0,1-0.1,1.5c-0.1,0.5-0.1,1.1-0.2,1.6h-0.3c-0.6-0.3-1.3-0.6-2.2-0.9c-0.9-0.3-2-0.5-3.2-0.7c-1.3-0.2-2.7-0.3-4.5-0.3
	c-0.9,0-1.5,0.1-2,0.2c-0.4,0.1-0.7,0.2-0.8,0.4c-0.1,0.2-0.2,0.4-0.2,0.6c0,0.2,0.1,0.3,0.2,0.5c0.2,0.2,0.4,0.3,0.8,0.4
	c0.4,0.1,1,0.2,1.7,0.3l4,0.5c1.9,0.2,3.4,0.7,4.5,1.4c1.1,0.7,1.9,1.6,2.5,2.7c0.5,1.1,0.8,2.4,0.8,3.9
	C38.9,60.7,38.5,62.2,37.7,63.6z M53.7,67.4c-0.8,0.1-1.7,0.1-2.7,0.1c-2.5,0-4.3-0.5-5.3-1.6C44.6,64.8,44,63.2,44,61
	c0-0.6,0-1.3,0-2.1c0-0.7,0-1.5,0-2.2c0-0.8,0-1.5,0-2.3c0-0.8,0-1.5,0-2.3c0-0.8,0-1.5,0-2.2h-0.3c0,0.1-0.1,0.1-0.1,0.2
	c0,0.1-0.1,0.1-0.1,0.1c-0.1,0-0.1,0-0.2,0.1c-0.1,0-0.1,0-0.2,0c-0.5,0-1.1-0.6-1.5-1.9c-0.5-1.3-0.7-3-0.7-5c0-1.1,0.1-2,0.2-2.6
	c0.1-0.7,0.2-1.3,0.4-2c0.2,0,0.4-0.1,0.7-0.1c0.2,0,0.5-0.1,0.7-0.1c0.3,0,0.5,0,0.7-0.1c0.2,0,0.5,0,0.7,0c0.2,0,0.4,0,0.5,0
	c3,0,5.3,0.2,6.8,0.5c1.5,0.4,2.5,0.8,3,1.5c0.5,0.6,0.7,1.3,0.7,2c0,1.2,0,2.4,0,3.7c0,1.3,0,2.6,0,4c0,1.4,0,2.7,0,4
	c0,1.3,0,2.7,0,3.9c0,1.2,0,2.3,0.1,3.3c0,1.1,0.1,2.1,0.3,3c0.1,0.9,0.3,1.8,0.6,2.6C55.3,67.2,54.5,67.3,53.7,67.4z M86.2,65.9
	c-0.5,0.6-1.2,1-1.9,1.2c-0.7,0.2-1.5,0.4-2.3,0.4c-0.8,0-1.6-0.2-2.5-0.6c-0.8-0.4-1.6-0.9-2.3-1.7c-0.7-0.7-1.3-1.6-1.7-2.5
	c0-0.1-0.1-0.2-0.1-0.3h-0.3c-0.4,1-0.9,1.8-1.6,2.6c-0.7,0.8-1.6,1.4-2.6,1.8c-1.1,0.4-2.3,0.7-3.8,0.7c-1.8,0-3.3-0.3-4.5-1
	c-1.3-0.7-2.2-1.7-2.9-2.9c-0.7-1.2-1-2.7-1-4.3v-0.5c0-1.1,0.3-2.1,0.8-3.2c0.5-1,1.2-2,2-2.8c0.8-0.8,1.8-1.5,2.8-2
	c1.1-0.5,2.1-0.7,3.3-0.7c1.5,0,2.7,0.1,3.9,0.3c1.1,0.2,2.1,0.4,3,0.8c0.2,0.1,0.3,0.1,0.5,0.2c0-0.3,0.1-0.5,0.1-0.8
	c0.1-0.4,0.2-0.8,0.3-1.1c0.1-0.4,0.2-0.7,0.4-0.9c-0.6-0.2-1.2-0.4-1.8-0.5c-0.6-0.1-1.3-0.2-2-0.3c-0.7-0.1-1.4-0.1-2.1-0.1
	c-1,0-2,0.1-3,0.2c-1,0.1-2,0.3-3,0.5c-1,0.2-2,0.5-3,0.8h-0.3c-0.1-0.6-0.2-1.2-0.3-1.8c-0.1-0.6-0.1-1.2-0.1-1.9
	c0-1,0.1-1.9,0.3-2.7c0.2-0.8,0.5-1.4,1.1-2c0.6-0.6,1.3-1.1,2.1-1.4c0.8-0.4,1.9-0.6,3.3-0.8c1.4-0.2,3.3-0.2,5.7-0.2
	c1.8,0,3.5,0.3,5.1,0.9c1.6,0.6,3,1.4,4.2,2.4c1.2,1,2.2,2.2,2.9,3.5c0.7,1.3,1.1,2.6,1.1,4c0,0.4,0,0.8,0,1.2c0,0.4,0,0.8,0,1.2
	c0,0.4,0,0.8,0,1.2c0,0.4,0,0.8,0,1.2c0,0.6,0,1.1,0,1.7c0,0.6,0,1.1,0,1.7c0,0,0.1,0,0.1,0c0,0,0.1,0,0.1,0c0.3,0,0.5-0.1,0.8-0.2
	c0.3-0.1,0.5-0.3,0.6-0.4h0.3c0.1,0.2,0.1,0.5,0.2,1c0.1,0.5,0.1,1,0.1,1.6c0,1.6-0.2,2.9-0.5,4C87.2,64.6,86.7,65.4,86.2,65.9z"/>
</svg>
