<svg id="Layer_1" data-name="Layer 1" xmlns="http://www.w3.org/2000/svg" viewBox="0 0 858.23 359.43"><path d="M6,0.954 q-0.065,-0.034,-0.173,-0.046 l-0.153,-0.017 a0.483,0.417,0,0,1,-0.067,-0.011 a0.07,0.061,0,0,1,-0.032,-0.014 a0.029,0.025,0,0,1,-0.009,-0.017 a0.037,0.032,0,0,1,0.008,-0.02 a0.059,0.051,0,0,1,0.032,-0.014 a0.352,0.305,0,0,1,0.075,-0.005 a1,1,0,0,1,0.173,0.009 a0.846,0.731,0,0,1,0.123,0.023 a0.494,0.427,0,0,1,0.084,0.029 h0.012 c0.004,-0.018,0.007,-0.036,0.009,-0.054 s0.003,-0.035,0.003,-0.051 a1,0.884,0,0,0,-0.006,-0.104 a0.303,0.262,0,0,0,-0.021,-0.071 a0.183,0.158,0,0,0,-0.044,-0.053 a0.196,0.169,0,0,0,-0.058,-0.033 a0.364,0.315,0,0,0,-0.097,-0.022 a1,0.978,0,0,0,-0.157,-0.008 a1,0.966,0,0,0,-0.232,0.019 a0.523,0.452,0,0,0,-0.17,0.056 a0.286,0.248,0,0,0,-0.103,0.092 a0.304,0.263,0,0,0,-0.034,0.126 q0,0.081,0.03,0.136 a0.217,0.188,0,0,0,0.102,0.086 q0.072,0.031,0.195,0.048 l0.143,0.019 a0.205,0.177,0,0,1,0.069,0.015 a0.046,0.04,0,0,1,0.025,0.025 a0.083,0.071,0,0,1,-0.004,0.036 q-0.027,0.002,-0.063,0.003 t-0.078,0.001 q-0.078,0,-0.137,-0.004 a0.832,0.719,0,0,1,-0.105,-0.013 a0.843,0.729,0,0,1,-0.09,-0.021 q-0.044,-0.013,-0.093,-0.031 h-0.012 a0.429,0.371,0,0,0,-0.017,0.065 a0.699,0.604,0,0,0,-0.005,0.075 a0.477,0.412,0,0,0,0.015,0.112 a0.203,0.175,0,0,0,0.046,0.073 a0.237,0.204,0,0,0,0.045,0.03 a0.321,0.278,0,0,0,0.074,0.026 a0.743,0.643,0,0,0,0.12,0.019 a1,1,0,0,0,0.181,0.008 q0.208,0,0.32,-0.039 t0.156,-0.108 a0.359,0.31,0,0,0,0.044,-0.153 a0.35,0.302,0,0,0,-0.03,-0.131 A0.24,0.208,0,0,0,6,0.954"/><path d="M12,1 q-0.003,-0.055,-0.003,-0.115 V0.643 a0.203,0.107,0,0,0,-0.048,-0.068 q-0.048,-0.032,-0.196,-0.05 t-0.443,-0.018 h-0.035 c-0.014,0,-0.029,0,-0.045,0.001 l-0.048,0.002 c-0.017,0.001,-0.033,0.001,-0.048,0.003 s-0.03,0.002,-0.043,0.004 a1,0.633,0,0,0,-0.027,0.068 a1,0.637,0,0,0,-0.01,0.091 q0,0.107,0.047,0.173 t0.1,0.067 a0.035,0.018,0,0,0,0.012,-0.001 l0.01,-0.002 a0.017,0.009,0,0,0,0.008,-0.004 a0.103,0.055,0,0,0,0.007,-0.006 h0.02 v0.38 q0,0.112,0.106,0.168 t0.349,0.056 a1,0.871,0,0,0,0.178,-0.004 q0.075,-0.004,0.164,-0.013 a1,0.601,0,0,1,-0.037,-0.088 A1,0.923,0,0,1,12,1"/><path d="M12,1 q0.163,0.097,0.4,0.097 c0.032,0,0.067,-0.002,0.104,-0.006 s0.074,-0.011,0.111,-0.02 s0.074,-0.021,0.113,-0.034 s0.074,-0.029,0.109,-0.043 V0.783 q0,-0.257,-0.161,-0.354 t-0.402,-0.097 c-0.032,0,-0.067,0,-0.104,0.003 s-0.074,0.006,-0.111,0.011 s-0.074,0.012,-0.113,0.02 s-0.074,0.015,-0.109,0.023 V0.88 Q12,1,12,1"/><path d="M7,1 a0.153,0.154,0,0,0,-0.006,-0.034 h-0.01 a0.143,0.144,0,0,1,-0.022,0.014 a0.057,0.057,0,0,1,-0.027,0.007 h-0.007 V0.874 a0.28,0.282,0,0,0,-0.037,-0.138 a0.415,0.417,0,0,0,-0.099,-0.119 a0.497,0.5,0,0,0,-0.318,-0.114 a1,1,0,0,0,-0.196,0.008 q-0.072,0.008,-0.113,0.027 a0.244,0.246,0,0,0,-0.07,0.049 a0.133,0.134,0,0,0,-0.037,0.068 a0.435,0.437,0,0,0,-0.009,0.093 q0,0.035,0.003,0.064 a0.465,0.468,0,0,0,0.01,0.06 h0.01 q0.052,-0.017,0.103,-0.029 a1,1,0,0,1,0.102,-0.017 a0.871,0.875,0,0,1,0.103,-0.006 a0.727,0.731,0,0,1,0.073,0.003 c0.023,0.002,0.046,0.006,0.068,0.01 a0.417,0.419,0,0,1,0.063,0.017 a0.233,0.234,0,0,0,-0.013,0.032 a0.254,0.255,0,0,0,-0.01,0.038 c-0.002,0.009,-0.003,0.018,-0.004,0.028 c-0.005,-0.002,-0.011,-0.004,-0.016,-0.007 a0.548,0.551,0,0,0,-0.102,-0.026 a0.815,0.819,0,0,0,-0.132,-0.01 a0.26,0.262,0,0,0,-0.111,0.025 a0.356,0.358,0,0,0,-0.167,0.164 a0.243,0.245,0,0,0,-0.026,0.109 v0.016 a0.307,0.309,0,0,0,0.034,0.148 a0.241,0.242,0,0,0,0.098,0.1 Q6,1,6,1 a0.333,0.334,0,0,0,0.129,-0.023 a0.25,0.251,0,0,0,0.09,-0.062 a0.285,0.286,0,0,0,0.055,-0.088 h0.012 c0.001,0.003,0.003,0.006,0.004,0.01 a0.291,0.293,0,0,0,0.059,0.087 a0.279,0.281,0,0,0,0.079,0.057 a0.198,0.199,0,0,0,0.084,0.02 a0.239,0.24,0,0,0,0.077,-0.012 a0.156,0.156,0,0,0,0.063,-0.042 q0.026,-0.026,0.043,-0.085 a0.488,0.49,0,0,0,0.017,-0.139 A0.533,0.536,0,0,0,7,1 m-0.507,0.023 a0.475,0.478,0,0,1,-0.068,0.004 c-0.021,0,-0.035,-0.003,-0.042,-0.01 s-0.01,-0.018,-0.01,-0.036 v-0.003 a0.176,0.177,0,0,1,0.002,-0.026 a0.174,0.175,0,0,1,0.005,-0.024 a0.285,0.286,0,0,1,0.038,-0.004 c0.013,-0.001,0.026,-0.001,0.04,-0.001 a0.631,0.635,0,0,1,0.065,0.003 c0.011,0.001,0.021,0.003,0.032,0.004 v0.074 l-0.004,0.002 A0.238,0.239,0,0,1,6,1"/><path d="M1,2 Q0.912,2,0.828,2 q-0.07,-0.056,-0.134,-0.113 c0.016,-0.007,0.031,-0.014,0.046,-0.022 a1,0.613,0,0,0,0.123,-0.074 a1,0.829,0,0,0,0.112,-0.091 A1,1,0,0,0,1,1 c0.006,-0.007,0.01,-0.013,0.014,-0.017 a0.051,0.031,0,0,0,0.004,-0.01 a0.042,0.025,0,0,0,-0.005,-0.013 a0.047,0.028,0,0,0,-0.022,-0.01 a0.119,0.072,0,0,0,-0.049,-0.005 h-0.022 C0.968,1,0.938,1,0.907,1 a1,0.829,0,0,1,-0.095,0.086 a1,0.817,0,0,1,-0.101,0.071 q-0.041,0.025,-0.085,0.047 a0.906,0.545,0,0,1,-0.091,0.039 a0.843,0.506,0,0,1,-0.097,0.031 a1,0.612,0,0,1,-0.103,0.025 l-0.009,-0.002 V1 a0.242,0.145,0,0,0,-0.014,-0.054 a0.122,0.073,0,0,0,-0.037,-0.031 a0.077,0.046,0,0,0,-0.047,-0.01 a0.073,0.044,0,0,0,-0.011,0.001 l-0.012,0.001 c-0.004,0,-0.008,0.001,-0.012,0.002 a0.402,0.241,0,0,1,0.02,0.047 a1,0.609,0,0,1,0.004,0.067 V2 a0.039,0.024,0,0,0,0.012,0.018 a0.068,0.041,0,0,0,0.032,0.009 a0.204,0.123,0,0,0,0.044,0.003 H0.327 V2 a1,0.656,0,0,0,0.134,-0.025 a0.909,0.546,0,0,0,0.145,-0.042 h0 l0.013,0.001 c0.014,0.013,0.027,0.027,0.041,0.041 s0.031,0.03,0.049,0.046 s0.039,0.034,0.062,0.053 c0.016,0.013,0.033,0.026,0.051,0.039 s0.036,0.026,0.055,0.039 s0.037,0.025,0.056,0.037 s0.038,0.024,0.057,0.035 a0.173,0.104,0,0,0,0.071,0.027 a0.311,0.187,0,0,0,0.093,0.007 a0.085,0.051,0,0,0,0.015,-0.001 l0.014,-0.001 a0.048,0.029,0,0,0,0.012,-0.002 A2,1,0,0,1,1,2"/><path d="M2,3 a0.196,0.168,0,0,1,-0.051,0.005 a0.135,0.116,0,0,1,-0.029,-0.003 a0.118,0.102,0,0,1,-0.027,-0.008 a0.426,0.365,0,0,1,-0.009,-0.047 c-0.001,-0.015,-0.002,-0.032,-0.002,-0.051 V2 a0.481,0.412,0,0,0,-0.027,-0.143 a0.317,0.272,0,0,0,-0.08,-0.105 a0.361,0.309,0,0,0,-0.13,-0.066 a0.545,0.467,0,0,0,-0.18,-0.023 a1,1,0,0,0,-0.132,0.006 a0.852,0.73,0,0,0,-0.122,0.018 q-0.053,0.011,-0.073,0.028 a0.073,0.062,0,0,0,-0.018,0.025 a0.124,0.106,0,0,0,-0.005,0.034 a0.069,0.059,0,0,0,0.002,0.015 c0.001,0.005,0.003,0.01,0.004,0.015 h0.013 a0.479,0.41,0,0,1,0.087,-0.026 a0.885,0.759,0,0,1,0.109,-0.018 a0.946,0.81,0,0,1,0.119,-0.006 a0.81,0.694,0,0,1,0.131,0.008 a0.383,0.328,0,0,1,0.099,0.026 a0.211,0.181,0,0,1,0.071,0.045 a0.513,0.439,0,0,1,0.018,0.08 q0.005,0.044,0.006,0.107 c0,0.033,0.001,0.074,0.001,0.123 q-0.015,-0.004,-0.035,-0.008 a1,0.906,0,0,0,-0.126,-0.018 a1,1,0,0,0,-0.153,-0.007 a0.577,0.495,0,0,0,-0.172,0.02 a0.353,0.302,0,0,0,-0.128,0.059 a0.299,0.256,0,0,0,-0.08,0.092 a0.334,0.286,0,0,0,-0.028,0.119 V3 a0.321,0.275,0,0,0,0.037,0.137 a0.245,0.21,0,0,0,0.109,0.087 a0.38,0.326,0,0,0,0.17,0.03 a0.43,0.368,0,0,0,0.168,-0.027 a0.477,0.409,0,0,0,0.223,-0.165 H1 a0.433,0.371,0,0,0,0.01,0.08 a0.2,0.172,0,0,0,0.032,0.063 a0.127,0.109,0,0,0,0.056,0.037 a0.207,0.177,0,0,0,0.079,0.011 a0.108,0.093,0,0,0,0.043,-0.006 a0.097,0.083,0,0,0,0.03,-0.018 a0.09,0.077,0,0,0,0.02,-0.029 a0.156,0.134,0,0,0,0.007,-0.044 v-0.013 h-0.013 A0.232,0.199,0,0,1,2,3 m-0.332,-0.097 a0.541,0.464,0,0,1,-0.15,0.077 a0.409,0.351,0,0,1,-0.144,0.024 q-0.105,0,-0.159,-0.04 c-0.036,-0.027,-0.054,-0.068,-0.054,-0.123 v-0.006 A0.351,0.301,0,0,1,1,3 a0.321,0.275,0,0,1,0.108,-0.043 a0.624,0.535,0,0,1,0.163,-0.015 q0.062,0,0.122,0.003 t0.12,0.008 c0.022,0.002,0.044,0.005,0.067,0.008 v0.154 A0.772,0.662,0,0,1,1,3"/><path d="M4,2 a0.117,0.072,0,0,0,-0.063,-0.017 a0.565,0.346,0,0,0,-0.12,-0.007 A0.434,0.265,0,0,0,3,2 a0.717,0.438,0,0,0,-0.201,0.126 a1,0.784,0,0,0,-0.149,0.191 h-0.021 V2 a0.332,0.203,0,0,0,-0.019,-0.075 a0.167,0.102,0,0,0,-0.051,-0.044 A0.105,0.064,0,0,0,3,2 a0.101,0.062,0,0,0,-0.015,0.001 l-0.017,0.002 a0.116,0.071,0,0,0,-0.017,0.003 a0.546,0.334,0,0,1,0.027,0.066 a1,0.85,0,0,1,0.006,0.094 v0.778 a0.06,0.037,0,0,0,0.009,0.021 a0.058,0.036,0,0,0,0.026,0.013 a0.137,0.084,0,0,0,0.039,0.006 a0.34,0.208,0,0,0,0.047,0.002 h0.03 v-0.413 a2,1,0,0,1,0.144,-0.251 q0.096,-0.121,0.216,-0.181 a0.409,0.25,0,0,1,0.359,-0.053 a0.19,0.116,0,0,1,0.062,0.015 h0.019 a0.069,0.042,0,0,0,0.009,-0.013 q0.003,-0.007,0.005,-0.014 c0,-0.004,0.002,-0.009,0.003,-0.014 a0.209,0.128,0,0,0,0.002,-0.015 a0.126,0.077,0,0,0,-0.005,-0.022 A0.065,0.04,0,0,0,4,2"/><path d="M4,3 a0.196,0.168,0,0,1,-0.051,0.005 a0.136,0.116,0,0,1,-0.029,-0.003 a0.119,0.102,0,0,1,-0.027,-0.008 a0.427,0.365,0,0,1,-0.009,-0.047 c-0.001,-0.015,-0.002,-0.032,-0.002,-0.051 V2 a0.481,0.412,0,0,0,-0.027,-0.143 a0.318,0.272,0,0,0,-0.08,-0.105 a0.361,0.309,0,0,0,-0.13,-0.066 a0.545,0.467,0,0,0,-0.18,-0.023 a1,1,0,0,0,-0.133,0.006 a0.853,0.73,0,0,0,-0.122,0.018 q-0.053,0.011,-0.073,0.028 a0.073,0.062,0,0,0,-0.018,0.025 a0.124,0.106,0,0,0,-0.005,0.034 a0.069,0.059,0,0,0,0.002,0.015 c0.001,0.005,0.003,0.01,0.004,0.015 h0.013 a0.479,0.41,0,0,1,0.087,-0.026 a0.886,0.759,0,0,1,0.109,-0.018 a0.946,0.81,0,0,1,0.119,-0.006 a0.81,0.694,0,0,1,0.131,0.008 a0.383,0.328,0,0,1,0.099,0.026 a0.211,0.181,0,0,1,0.071,0.045 a0.513,0.439,0,0,1,0.018,0.08 q0.005,0.044,0.006,0.107 c0,0.033,0.001,0.074,0.001,0.123 c-0.01,-0.003,-0.022,-0.005,-0.035,-0.008 a1,0.906,0,0,0,-0.126,-0.018 a1,1,0,0,0,-0.153,-0.007 a0.578,0.495,0,0,0,-0.172,0.02 a0.353,0.302,0,0,0,-0.128,0.059 a0.299,0.256,0,0,0,-0.08,0.092 a0.334,0.286,0,0,0,-0.028,0.119 V3 a0.321,0.275,0,0,0,0.037,0.137 a0.246,0.21,0,0,0,0.109,0.087 a0.381,0.326,0,0,0,0.17,0.03 a0.43,0.368,0,0,0,0.168,-0.027 a0.478,0.409,0,0,0,0.223,-0.165 H3 a0.433,0.371,0,0,0,0.01,0.08 a0.2,0.172,0,0,0,0.032,0.063 a0.127,0.109,0,0,0,0.056,0.037 a0.207,0.177,0,0,0,0.079,0.011 a0.108,0.093,0,0,0,0.043,-0.006 a0.097,0.083,0,0,0,0.03,-0.018 a0.09,0.077,0,0,0,0.02,-0.029 a0.156,0.134,0,0,0,0.007,-0.044 v-0.013 h-0.013 A0.232,0.199,0,0,1,4,3 m-0.332,-0.097 a0.542,0.464,0,0,1,-0.15,0.077 a0.41,0.351,0,0,1,-0.144,0.024 q-0.105,0,-0.159,-0.04 c-0.036,-0.027,-0.055,-0.068,-0.055,-0.123 v-0.006 A0.351,0.301,0,0,1,3,3 a0.321,0.275,0,0,1,0.108,-0.043 A0.625,0.535,0,0,1,3,3 q0.062,0,0.122,0.003 t0.12,0.008 c0.022,0.002,0.044,0.005,0.067,0.008 v0.154 A0.773,0.662,0,0,1,3,3"/><path d="M3,3 V2 a0.247,0.307,0,0,0,-0.014,-0.105 a0.207,0.257,0,0,0,-0.039,-0.083 a0.18,0.224,0,0,0,-0.06,-0.055 a0.186,0.231,0,0,0,-0.077,-0.019 a0.197,0.245,0,0,0,-0.095,0.03 a0.301,0.374,0,0,0,-0.084,0.086 a0.493,0.613,0,0,0,-0.068,0.129 h-0.009 a0.245,0.305,0,0,0,-0.014,-0.097 a0.191,0.237,0,0,0,-0.039,-0.081 a0.171,0.213,0,0,0,-0.06,-0.051 a0.204,0.253,0,0,0,-0.077,-0.017 a0.197,0.245,0,0,0,-0.095,0.03 a0.301,0.374,0,0,0,-0.084,0.086 a0.493,0.613,0,0,0,-0.068,0.129 h-0.009 v-0.104 a0.173,0.215,0,0,0,-0.006,-0.06 a0.112,0.139,0,0,0,-0.016,-0.042 a0.07,0.088,0,0,0,-0.022,-0.025 a0.049,0.061,0,0,0,-0.024,-0.008 h-0.006 a0.025,0.032,0,0,0,-0.006,0.001 l-0.006,0.002 a0.024,0.03,0,0,0,-0.006,0.003 a0.271,0.337,0,0,1,0.013,0.067 a0.689,0.857,0,0,1,0.003,0.094 v0.784 a0.03,0.037,0,0,0,0.004,0.021 a0.029,0.036,0,0,0,0.013,0.013 a0.068,0.085,0,0,0,0.019,0.006 a0.169,0.21,0,0,0,0.023,0.002 h0.015 V2 a1,1,0,0,1,0.086,-0.173 q0.047,-0.077,0.087,-0.103 a0.167,0.208,0,0,1,0.077,-0.026 a0.132,0.164,0,0,1,0.067,0.018 a0.109,0.136,0,0,1,0.041,0.055 a0.28,0.348,0,0,1,0.025,0.092 c-0.002,0.048,-0.004,0.091,-0.005,0.129 s-0.003,0.072,-0.004,0.104 s-0.002,0.062,-0.002,0.091 s-0.001,0.059,-0.001,0.089 s-0.001,0.063,-0.001,0.099 a0.618,0.768,0,0,0,0.008,0.145 c0.005,0.033,0.012,0.055,0.021,0.066 a0.038,0.047,0,0,0,0.028,0.017 a0.045,0.055,0,0,0,0.008,-0.001 l0.007,-0.002 a0.034,0.042,0,0,0,0.006,-0.003 v-0.601 a0.999,1,0,0,1,0.085,-0.168 q0.048,-0.076,0.087,-0.103 a0.165,0.205,0,0,1,0.08,-0.027 q0.058,0,0.087,0.039 t0.042,0.133 c-0.002,0.048,-0.004,0.091,-0.005,0.127 s-0.003,0.071,-0.004,0.102 s-0.002,0.06,-0.002,0.089 s-0.001,0.058,-0.001,0.088 v0.099 A0.489,0.608,0,0,0,3,3 c0.007,0.033,0.016,0.054,0.027,0.065 a0.053,0.066,0,0,0,0.033,0.016 a0.08,0.099,0,0,0,0.012,-0.001 l0.007,-0.002 a0.018,0.022,0,0,1,0.004,-0.001 A0.618,0.768,0,0,1,3,3 C3,3,3,3,3,3"/><path d="M6,3 a0.194,0.166,0,0,1,-0.051,0.005 a0.137,0.118,0,0,1,-0.029,-0.003 a0.123,0.106,0,0,1,-0.027,-0.008 a0.451,0.386,0,0,1,-0.009,-0.047 c-0.001,-0.015,-0.002,-0.032,-0.002,-0.051 V2 a0.478,0.41,0,0,0,-0.027,-0.143 a0.315,0.27,0,0,0,-0.08,-0.105 a0.358,0.307,0,0,0,-0.13,-0.066 a0.545,0.467,0,0,0,-0.18,-0.023 a1,1,0,0,0,-0.133,0.006 a0.859,0.736,0,0,0,-0.122,0.018 c-0.036,0.008,-0.06,0.017,-0.073,0.028 a0.074,0.064,0,0,0,-0.018,0.025 a0.128,0.11,0,0,0,-0.005,0.034 a0.076,0.065,0,0,0,0.002,0.015 l0.004,0.015 h0.013 a0.486,0.417,0,0,1,0.087,-0.026 a0.895,0.767,0,0,1,0.109,-0.018 a0.949,0.813,0,0,1,0.119,-0.006 a0.808,0.692,0,0,1,0.131,0.008 a0.38,0.325,0,0,1,0.099,0.026 a0.21,0.18,0,0,1,0.071,0.045 a0.524,0.449,0,0,1,0.018,0.08 q0.005,0.044,0.006,0.107 c0.001,0.033,0.001,0.074,0.001,0.123 c-0.01,-0.003,-0.022,-0.005,-0.035,-0.008 a1,0.904,0,0,0,-0.126,-0.018 a1,1,0,0,0,-0.153,-0.007 a0.577,0.494,0,0,0,-0.172,0.02 a0.355,0.304,0,0,0,-0.128,0.059 a0.302,0.259,0,0,0,-0.08,0.092 a0.337,0.288,0,0,0,-0.028,0.119 V3 a0.322,0.276,0,0,0,0.037,0.137 a0.247,0.211,0,0,0,0.109,0.087 a0.382,0.327,0,0,0,0.17,0.03 A0.429,0.367,0,0,0,6,3 a0.476,0.408,0,0,0,0.223,-0.165 h0.015 a0.45,0.386,0,0,0,0.01,0.08 A0.202,0.173,0,0,0,6,3 a0.127,0.109,0,0,0,0.056,0.037 a0.207,0.177,0,0,0,0.079,0.011 a0.107,0.092,0,0,0,0.043,-0.006 a0.094,0.08,0,0,0,0.03,-0.018 a0.087,0.074,0,0,0,0.02,-0.029 a0.153,0.131,0,0,0,0.007,-0.044 v-0.013 h-0.013 A0.224,0.192,0,0,1,6,3 m-0.332,-0.097 a0.539,0.462,0,0,1,-0.15,0.077 a0.409,0.35,0,0,1,-0.144,0.024 q-0.105,0,-0.159,-0.04 c-0.036,-0.027,-0.055,-0.068,-0.055,-0.123 v-0.006 a0.371,0.318,0,0,1,0.011,-0.081 a0.385,0.33,0,0,1,0.026,-0.059 a0.322,0.276,0,0,1,0.108,-0.043 a0.626,0.536,0,0,1,0.164,-0.015 q0.062,0,0.122,0.003 t0.12,0.008 c0.022,0.002,0.044,0.005,0.066,0.008 v0.154 A0.765,0.656,0,0,1,6,3"/><path d="M17,2 h-0.033 c-0.021,0.004,-0.042,0.008,-0.065,0.012 a0.363,0.09,0,0,1,-0.073,0.01 a0.414,0.103,0,0,1,-0.086,0.006 a0.675,0.168,0,0,1,-0.104,0.002 a0.506,0.126,0,0,1,-0.128,-0.004 a0.252,0.063,0,0,1,-0.102,-0.013 a0.486,0.121,0,0,1,-0.068,-0.047 a2,0.52,0,0,1,-0.016,-0.073 V1 a0.725,0.181,0,0,0,-0.026,-0.053 a0.251,0.062,0,0,0,-0.078,-0.031 a0.202,0.05,0,0,0,-0.13,-0.01 h-0.016 a0.052,0.013,0,0,0,-0.018,0.001 a0.052,0.013,0,0,1,-0.016,0.001 a0.084,0.021,0,0,0,-0.018,0.001 a0.039,0.01,0,0,0,-0.016,0.002 a0.915,0.228,0,0,1,0.047,0.047 a2,0.583,0,0,1,0.01,0.066 V2 a1,0.341,0,0,0,0.029,0.073 a0.573,0.143,0,0,0,0.094,0.054 a0.418,0.104,0,0,0,0.172,0.034 a0.654,0.163,0,0,0,0.263,0.012 a0.904,0.225,0,0,0,0.094,-0.001 a0.649,0.162,0,0,0,0.089,-0.004 a0.319,0.08,0,0,0,0.076,-0.007 a0.25,0.062,0,0,0,0.06,-0.011 a0.208,0.052,0,0,0,0.055,-0.02 a0.37,0.092,0,0,0,0.013,-0.028 a0.447,0.111,0,0,0,-0.003,-0.014 A0.183,0.046,0,0,0,17,2"/><path d="M8,2 q-0.095,-0.044,-0.238,-0.044 a0.571,0.452,0,0,0,-0.217,0.033 a0.509,0.403,0,0,0,-0.183,0.101 a0.607,0.481,0,0,0,-0.126,0.174 q-0.046,0.106,-0.046,0.255 v0.033 a0.549,0.435,0,0,0,0.043,0.178 a0.434,0.343,0,0,0,0.119,0.126 A0.511,0.404,0,0,0,8,3 a0.711,0.563,0,0,0,0.213,0.025 a0.885,0.701,0,0,0,0.17,-0.011 a0.578,0.458,0,0,0,0.136,-0.034 a0.337,0.267,0,0,0,0.096,-0.051 a0.134,0.106,0,0,0,0.029,-0.034 a0.166,0.132,0,0,0,0.01,-0.05 c0,-0.01,0,-0.018,-0.001,-0.024 A0.08,0.063,0,0,0,9,3 h-0.014 a0.594,0.47,0,0,1,-0.119,0.074 a0.466,0.369,0,0,1,-0.132,0.041 a0.74,0.586,0,0,1,-0.163,0.013 a0.705,0.558,0,0,1,-0.201,-0.019 a0.449,0.356,0,0,1,-0.153,-0.065 a0.343,0.272,0,0,1,-0.068,-0.097 a0.504,0.399,0,0,1,-0.022,-0.121 v-0.031 c0,-0.016,0,-0.031,0.001,-0.046 l0.013,-0.006 a0.105,0.083,0,0,0,0.03,0.009 a0.157,0.124,0,0,0,0.039,0.004 h0.715 a0.058,0.046,0,0,0,0.053,-0.03 a0.305,0.241,0,0,0,0.025,-0.075 a0.94,0.744,0,0,0,0.007,-0.091 V2 a0.476,0.377,0,0,0,-0.047,-0.17 A0.354,0.281,0,0,0,8,2 m0.069,0.355 c-0.003,0.019,-0.007,0.038,-0.012,0.056 H8 q0.024,-0.152,0.116,-0.243 q0.125,-0.124,0.328,-0.124 a0.714,0.566,0,0,1,0.119,0.007 a0.343,0.272,0,0,1,0.091,0.023 A0.326,0.258,0,0,1,8,2 a0.451,0.357,0,0,1,0.025,0.132 A0.599,0.474,0,0,1,8,2"/><path d="M8,1 a0.592,0.367,0,0,0,-0.248,0.03 a0.374,0.232,0,0,0,-0.162,0.083 a0.36,0.223,0,0,0,-0.057,0.126 V1 a0.383,0.237,0,0,0,0.054,0.128 A0.342,0.212,0,0,0,8,2 a0.455,0.282,0,0,0,0.128,0.023 v0.006 a0.191,0.119,0,0,0,-0.037,0.029 a0.3,0.186,0,0,0,-0.027,0.035 a0.185,0.115,0,0,0,-0.01,0.037 a0.175,0.108,0,0,0,0.019,0.047 l0.001,0.001 v0.008 a0.353,0.218,0,0,0,-0.158,0.03 a0.319,0.198,0,0,0,-0.111,0.067 a0.274,0.17,0,0,0,-0.041,0.09 v0.005 a0.222,0.138,0,0,0,0.043,0.079 a0.311,0.193,0,0,0,0.126,0.063 q0.083,0.025,0.205,0.025 h0.096 q0.166,0,0.266,-0.018 t0.154,-0.048 a0.242,0.15,0,0,0,0.071,-0.065 a0.366,0.227,0,0,0,0.018,-0.07 v-0.004 a0.246,0.152,0,0,0,-0.031,-0.074 a0.252,0.156,0,0,0,-0.092,-0.058 c-0.041,-0.016,-0.093,-0.025,-0.157,-0.027 l-0.206,-0.009 c-0.038,-0.002,-0.065,-0.006,-0.08,-0.014 a0.065,0.04,0,0,1,-0.022,-0.033 a0.246,0.153,0,0,1,0.024,-0.063 a0.208,0.129,0,0,1,0.041,-0.037 h0.006 a0.523,0.324,0,0,0,0.22,-0.028 a0.375,0.232,0,0,0,0.155,-0.078 a0.323,0.2,0,0,0,0.057,-0.118 v-0.005 q0,-0.066,-0.046,-0.111 a0.316,0.196,0,0,0,-0.111,-0.068 v-0.008 c0.053,0.003,0.096,0.006,0.129,0.009 a0.592,0.367,0,0,0,0.088,0.005 a0.035,0.022,0,0,0,0.036,-0.014 a0.145,0.09,0,0,0,0.009,-0.034 v-0.013 q-0.14,-0.009,-0.257,-0.014 T8,1 m-0.018,0.693,0.202,0.006 q0.102,0.003,0.149,0.038 a0.198,0.122,0,0,1,0.047,0.08 v0.003 a0.353,0.219,0,0,1,-0.007,0.042 a0.173,0.107,0,0,1,-0.021,0.036 a0.695,0.43,0,0,1,-0.156,0.034 a0.99,0.613,0,0,1,-0.193,0.009 h-0.1 a0.472,0.292,0,0,1,-0.161,-0.015 a0.235,0.146,0,0,1,-0.102,-0.04 a0.136,0.084,0,0,1,-0.035,-0.055 v-0.006 a0.218,0.135,0,0,1,0.031,-0.071 a0.241,0.149,0,0,1,0.095,-0.053 a0.441,0.273,0,0,1,0.14,-0.027 l0.003,0.001 A0.22,0.136,0,0,0,8,2 M8,1 a0.328,0.203,0,0,1,0.019,0.063 v0.005 q0,0.085,-0.092,0.127 t-0.242,0.042 a0.654,0.405,0,0,1,-0.127,-0.007 a0.646,0.4,0,0,1,-0.115,-0.021 a0.303,0.187,0,0,1,-0.068,-0.072 a0.361,0.223,0,0,1,-0.017,-0.061 v-0.005 q0,-0.097,0.096,-0.145 t0.265,-0.048 c0.029,0,0.057,0,0.083,0.001 a0.343,0.213,0,0,1,0.126,0.05 A0.321,0.199,0,0,1,8,1"/><path d="M10,2 a0.484,0.399,0,0,0,-0.159,-0.115 a0.413,0.34,0,0,0,-0.198,-0.04 a0.424,0.35,0,0,0,-0.253,0.067 q-0.113,0.067,-0.18,0.192 t-0.067,0.299 V3 a0.647,0.533,0,0,0,0.034,0.18 a0.439,0.362,0,0,0,0.1,0.134 a0.426,0.351,0,0,0,0.158,0.083 a0.591,0.487,0,0,0,0.208,0.028 q0.153,0,0.265,-0.05 A0.418,0.345,0,0,0,10,3 q0.061,-0.097,0.061,-0.234 v-0.015 a0.907,0.747,0,0,0,-0.038,-0.221 A0.705,0.581,0,0,0,10,2 m0.032,0.414 a0.509,0.419,0,0,1,-0.042,0.174 a0.326,0.269,0,0,1,-0.129,0.121 q-0.087,0.044,-0.224,0.044 a0.763,0.629,0,0,1,-0.101,-0.005 a0.782,0.645,0,0,1,-0.105,-0.018 a0.355,0.293,0,0,1,-0.139,-0.145 a0.62,0.511,0,0,1,-0.037,-0.17 v-0.011 a0.874,0.72,0,0,1,0.043,-0.231 a0.477,0.393,0,0,1,0.131,-0.172 q0.088,-0.065,0.221,-0.065 c0.027,0,0.052,0.001,0.078,0.003 a0.342,0.282,0,0,1,0.073,0.011 a0.464,0.383,0,0,1,0.177,0.184 a0.902,0.744,0,0,1,0.054,0.268"/><path d="M13,3 a0.322,0.233,0,0,0,-0.103,-0.08 a0.424,0.307,0,0,0,-0.171,-0.046 L12,2 q-0.126,-0.016,-0.186,-0.042 c-0.04,-0.017,-0.066,-0.037,-0.079,-0.059 a0.27,0.195,0,0,1,-0.018,-0.07 A0.214,0.155,0,0,1,12,2 a0.362,0.262,0,0,1,0.135,-0.075 a0.462,0.334,0,0,1,0.199,-0.029 a0.967,0.699,0,0,1,0.142,0.006 a0.536,0.388,0,0,1,0.11,0.02 a0.798,0.577,0,0,1,0.106,0.036 h0.016 a0.069,0.05,0,0,0,0.006,-0.017 c0.001,-0.006,0.001,-0.011,0.001,-0.016 a0.236,0.171,0,0,0,-0.003,-0.025 a0.119,0.086,0,0,0,-0.009,-0.022 a0.094,0.068,0,0,0,-0.019,-0.019 a0.147,0.106,0,0,0,-0.057,-0.024 a0.616,0.446,0,0,0,-0.107,-0.021 a0.861,0.623,0,0,0,-0.159,-0.009 a0.682,0.493,0,0,0,-0.228,0.025 a0.531,0.384,0,0,0,-0.169,0.068 a0.401,0.29,0,0,0,-0.105,0.097 a0.344,0.249,0,0,0,-0.035,0.108 a0.336,0.243,0,0,0,0.034,0.112 a0.268,0.193,0,0,0,0.112,0.08 a0.697,0.504,0,0,0,0.209,0.05 l0.234,0.033 a0.421,0.304,0,0,1,0.133,0.033 a0.236,0.171,0,0,1,0.082,0.054 a0.247,0.179,0,0,1,0.037,0.077 q-0.025,0.093,-0.127,0.132 t-0.281,0.039 q-0.076,0,-0.137,-0.004 a0.584,0.422,0,0,1,-0.115,-0.017 a0.531,0.384,0,0,1,-0.105,-0.033 a0.732,0.53,0,0,1,-0.107,-0.054 h-0.016 a0.045,0.033,0,0,0,-0.004,0.011 a0.187,0.135,0,0,0,-0.001,0.018 a0.316,0.228,0,0,0,0.006,0.044 a0.104,0.075,0,0,0,0.029,0.04 a0.259,0.188,0,0,0,0.073,0.036 a0.657,0.475,0,0,0,0.105,0.027 a0.813,0.588,0,0,0,0.13,0.017 a1,0.991,0,0,0,0.146,0.005 a0.722,0.522,0,0,0,0.273,-0.034 a0.394,0.285,0,0,0,0.176,-0.095 a0.34,0.246,0,0,0,0.062,-0.148 A0.291,0.21,0,0,0,13,3"/></svg>
