<?xml version="1.0" encoding="utf-8"?>
<!-- Generator: Adobe Illustrator 25.2.1, SVG Export Plug-In . SVG Version: 6.00 Build 0)  -->
<svg version="1.1" id="Layer_1" xmlns="http://www.w3.org/2000/svg" xmlns:xlink="http://www.w3.org/1999/xlink" x="0px" y="0px"
	 viewBox="0 0 100 100" style="enable-background:new 0 0 100 100;" xml:space="preserve">
<style type="text/css">
	.st0{fill:#FFFFFF;}
</style>
<circle cx="50" cy="50" r="50"/>
<path class="st0" d="M38.1,55.1c0.5,1.1,0.8,2.4,0.8,3.9c0,1.7-0.4,3.2-1.1,4.6c-0.8,1.4-2.1,2.5-4,3.2C31.8,67.6,29,68,25.4,68
	c-1.9,0-3.4-0.1-4.7-0.2c-1.3-0.2-2.3-0.3-3.1-0.6c-0.8-0.2-1.4-0.5-1.9-0.8c-0.5-0.3-0.9-0.6-1.2-0.9c-0.5-0.6-0.9-1.3-1.2-2.2
	c-0.3-0.9-0.4-2-0.4-3.4c0-0.8,0-1.6,0.1-2.3c0.1-0.7,0.2-1.3,0.4-2h0.3c0.8,0.4,1.7,0.7,2.4,0.9c0.8,0.3,1.5,0.5,2.3,0.6
	c0.8,0.2,1.7,0.3,2.7,0.4c1,0.1,2.2,0.1,3.6,0.1c0.7,0,1.4,0,2,0c0.6,0,1.2,0,1.6-0.1c0.1-0.4,0.2-0.8,0.1-1.1
	c-0.1-0.3-0.3-0.5-0.7-0.7c-0.4-0.2-1-0.4-1.8-0.5l-3.7-0.6c-2.1-0.3-3.8-0.8-5.1-1.5c-1.2-0.6-2.1-1.5-2.6-2.6
	c-0.5-1.1-0.8-2.4-0.8-4.1c0-1.4,0.3-2.7,0.9-3.8c0.6-1.1,1.5-2,2.7-2.8c1.2-0.7,2.7-1.3,4.4-1.7c1.7-0.4,3.8-0.6,6-0.6
	c1.7,0,3,0.1,4.1,0.2c1.1,0.2,1.9,0.4,2.5,0.7c0.6,0.3,1.1,0.6,1.5,1c0.5,0.5,0.9,1,1.1,1.6c0.3,0.6,0.4,1.3,0.5,2.1
	c0.1,0.8,0.2,1.9,0.2,3.1c0,0.5,0,1-0.1,1.5c-0.1,0.5-0.1,1.1-0.2,1.6h-0.3c-0.6-0.3-1.3-0.6-2.2-0.9c-0.9-0.3-2-0.5-3.2-0.7
	c-1.3-0.2-2.7-0.3-4.5-0.3c-0.9,0-1.5,0.1-2,0.2c-0.4,0.1-0.7,0.2-0.8,0.4c-0.1,0.2-0.2,0.4-0.2,0.6c0,0.2,0.1,0.3,0.2,0.5
	c0.2,0.2,0.4,0.3,0.8,0.4c0.4,0.1,1,0.2,1.7,0.3l4,0.5c1.9,0.2,3.4,0.7,4.5,1.4C36.8,53.1,37.6,54,38.1,55.1z M55.4,61.4
	c0-1.1-0.1-2.2-0.1-3.3c0-1.3,0-2.6,0-3.9c0-1.3,0-2.7,0-4c0-1.4,0-2.7,0-4c0-1.3,0-2.5,0-3.7c0-0.7-0.2-1.4-0.7-2
	c-0.5-0.6-1.5-1.1-3-1.5c-1.5-0.4-3.8-0.5-6.8-0.5c-0.1,0-0.3,0-0.5,0c-0.2,0-0.4,0-0.7,0c-0.2,0-0.5,0-0.7,0.1
	c-0.3,0-0.5,0-0.7,0.1c-0.2,0-0.5,0.1-0.7,0.1c-0.2,0.6-0.3,1.3-0.4,2c-0.1,0.7-0.2,1.6-0.2,2.6c0,2.1,0.2,3.7,0.7,5
	c0.5,1.3,1,1.9,1.5,1.9c0.1,0,0.1,0,0.2,0c0.1,0,0.1,0,0.2-0.1c0.1,0,0.1-0.1,0.1-0.1c0-0.1,0.1-0.1,0.1-0.2H44c0,0.7,0,1.4,0,2.2
	s0,1.5,0,2.3c0,0.8,0,1.5,0,2.3c0,0.8,0,1.5,0,2.2c0,0.7,0,1.4,0,2.1c0,2.2,0.5,3.8,1.6,4.9c1.1,1.1,2.9,1.6,5.3,1.6
	c1.1,0,2,0,2.7-0.1c0.8-0.1,1.6-0.2,2.5-0.4c-0.2-0.8-0.4-1.6-0.6-2.6C55.5,63.5,55.5,62.5,55.4,61.4z M44.1,34.7
	c1.5,0.6,3.3,0.9,5.5,0.9c0.4,0,0.9,0,1.4-0.1c0.5,0,1-0.1,1.5-0.2c0.5-0.1,1-0.2,1.6-0.3c0.5-0.1,1-0.2,1.5-0.4v-4
	c0-1.5-0.7-2.6-2.2-3.2c-1.5-0.6-3.3-0.9-5.5-0.9c-0.4,0-0.9,0-1.4,0c-0.5,0-1,0.1-1.5,0.1c-0.5,0.1-1,0.1-1.6,0.2
	c-0.5,0.1-1,0.1-1.5,0.2v4.4C41.9,33.1,42.6,34.2,44.1,34.7z M88,59.4c0,1.6-0.2,2.9-0.5,4c-0.3,1.1-0.8,2-1.3,2.5
	c-0.5,0.6-1.2,1-1.9,1.2c-0.7,0.2-1.5,0.4-2.3,0.4c-0.8,0-1.6-0.2-2.5-0.6c-0.8-0.4-1.6-0.9-2.3-1.7c-0.7-0.7-1.3-1.6-1.7-2.5
	c0-0.1-0.1-0.2-0.1-0.3h-0.3c-0.4,1-0.9,1.8-1.6,2.6c-0.7,0.8-1.6,1.4-2.6,1.8c-1.1,0.4-2.3,0.7-3.8,0.7c-1.8,0-3.3-0.3-4.5-1
	c-1.3-0.7-2.2-1.7-2.9-2.9c-0.7-1.2-1-2.7-1-4.3v-0.5c0-1.1,0.3-2.1,0.8-3.2c0.5-1,1.2-2,2-2.8c0.8-0.8,1.8-1.5,2.8-2
	c1.1-0.5,2.1-0.7,3.3-0.7c1.5,0,2.7,0.1,3.9,0.3c1.1,0.2,2.1,0.4,3,0.8c0.2,0.1,0.3,0.1,0.5,0.2c0-0.3,0.1-0.5,0.1-0.8
	c0.1-0.4,0.2-0.8,0.3-1.1c0.1-0.4,0.2-0.7,0.4-0.9c-0.6-0.2-1.2-0.4-1.8-0.5c-0.6-0.1-1.3-0.2-2-0.3c-0.7-0.1-1.4-0.1-2.1-0.1
	c-1,0-2,0.1-3,0.2c-1,0.1-2,0.3-3,0.5c-1,0.2-2,0.5-3,0.8h-0.3c-0.1-0.6-0.2-1.2-0.3-1.8c-0.1-0.6-0.1-1.2-0.1-1.9
	c0-1,0.1-1.9,0.3-2.7c0.2-0.8,0.5-1.4,1.1-2c0.6-0.6,1.3-1.1,2.1-1.4c0.8-0.4,1.9-0.6,3.3-0.8c1.4-0.2,3.3-0.2,5.7-0.2
	c1.8,0,3.5,0.3,5.1,0.9c1.6,0.6,3,1.4,4.2,2.4c1.2,1,2.2,2.2,2.9,3.5c0.7,1.3,1.1,2.6,1.1,4c0,0.4,0,0.8,0,1.2c0,0.4,0,0.8,0,1.2
	c0,0.4,0,0.8,0,1.2c0,0.4,0,0.8,0,1.2c0,0.6,0,1.1,0,1.7c0,0.6,0,1.1,0,1.7c0,0,0.1,0,0.1,0c0,0,0.1,0,0.1,0c0.3,0,0.5-0.1,0.8-0.2
	c0.3-0.1,0.5-0.3,0.6-0.4h0.3c0.1,0.2,0.1,0.5,0.2,1C88,58.3,88,58.8,88,59.4z M74.8,58c0,0,0.1,0,0.1-0.1c0-0.7,0-1.4,0-2.2
	c-0.3,0-0.6-0.1-0.9-0.1c-0.7-0.1-1.3-0.1-1.9-0.1c-0.4,0-0.8,0-1.2,0c-0.4,0-0.7,0.1-1.1,0.1c-0.1,0.2-0.1,0.5-0.2,0.7
	c0,0.2-0.1,0.5-0.1,0.8v0.1c0,0.5,0.1,0.9,0.3,1c0.2,0.2,0.6,0.3,1.2,0.3c0.7,0,1.4,0,2-0.1C73.7,58.4,74.2,58.2,74.8,58z"/>
</svg>
