<svg viewBox="0 0 595.74 708.262" fill="none" stroke-linecap="square" stroke-miterlimit="10" xmlns="http://www.w3.org/2000/svg"><clipPath id="a"><path d="M0 0h595.74v708.262H0V0z"/></clipPath><g clip-path="url(#a)"><path fill="none" d="M0 0h595.74v708.262H0z"/><path fill="#15c" d="M191.66 168.792h136.12v72.77c-68.06 0-68.06 27.728-136.12 11.974z" fill-rule="evenodd"/><path stroke="#999" stroke-linejoin="round" stroke-linecap="butt" d="M191.66 168.792h136.12v72.77c-68.06 0-68.06 27.728-136.12 11.974z"/><path fill="#fff" d="M244.44 215.043q-2.876 0-5.079-1.234-2.187-1.25-3.453-3.422-1.25-2.188-1.25-5.016 0-2.11.735-3.86.734-1.765 2.078-3.062 1.343-1.297 3.172-2.015 1.828-.72 3.984-.72 1.984 0 3.828.766 1.86.75 3.11 2.204l-2.938 3.328q-.734-.86-1.734-1.36-1-.515-2.282-.515-1.422 0-2.562.64-1.125.64-1.813 1.828-.672 1.188-.672 2.813 0 2.375 1.485 3.797 1.5 1.406 3.953 1.406 1.234 0 2.312-.5 1.079-.516 1.797-1.312l2.313 3.656q-.656.734-1.781 1.328-1.125.578-2.47.922-1.343.328-2.734.328zm16.193 0q-2.89 0-4.844-.984-1.937-.985-3.312-2.75l2.875-3.25q1.328 1.765 2.703 2.375 1.375.609 2.765.609 1.032 0 1.688-.375.672-.375.672-1.11 0-.64-.547-1.062-.547-.437-1.375-.687-.813-.25-1.672-.438-3.094-.672-4.61-2.11-1.515-1.437-1.515-3.812 0-1.734 1-3.015 1-1.297 2.625-2.032 1.625-.734 3.484-.734 2.828 0 4.485.875 1.656.86 2.656 2.344l-2.906 2.797q-.844-.985-1.891-1.47-1.031-.5-2.156-.5-1.11 0-1.781.376-.672.375-.672 1.094 0 .562.468.937.47.375 1.188.61.719.218 1.5.374 1.937.375 3.406 1.094 1.485.719 2.313 1.875.828 1.156.828 2.86 0 1.984-.969 3.343-.953 1.36-2.625 2.063-1.656.703-3.781.703zm16.926 0q-2.89 0-4.843-.984-1.938-.985-3.313-2.75l2.875-3.25q1.328 1.765 2.703 2.375 1.375.609 2.766.609 1.031 0 1.687-.375.672-.375.672-1.11 0-.64-.547-1.062-.546-.437-1.375-.687-.812-.25-1.671-.438-3.094-.672-4.61-2.11-1.515-1.437-1.515-3.812 0-1.734 1-3.015 1-1.297 2.625-2.032 1.625-.734 3.484-.734 2.828 0 4.484.875 1.657.86 2.657 2.344l-2.907 2.797q-.843-.985-1.89-1.47-1.032-.5-2.157-.5-1.109 0-1.78.376-.673.375-.673 1.094 0 .562.47.937.468.375 1.187.61.718.218 1.5.374 1.937.375 3.406 1.094 1.484.719 2.312 1.875.828 1.156.828 2.86 0 1.984-.968 3.343-.953 1.36-2.625 2.063-1.657.703-3.782.703z"/><path fill="#d9d9d9" d="M29.986 191.479H177.94v-17.614l35.228 35.228-35.228 35.229v-17.615H29.986z" fill-rule="evenodd"/><path stroke="#999" stroke-linejoin="round" stroke-linecap="butt" d="M29.986 191.479H177.94v-17.614l35.228 35.228-35.228 35.229v-17.615H29.986z"/><path fill="#000" d="M40.908 216.013v-13.062h4.938q1.78 0 3.14.828 1.375.828 2.172 2.312.797 1.469.797 3.39 0 1.923-.797 3.407-.797 1.469-2.172 2.297-1.36.828-3.14.828h-4.938zm4.844-11.625h-3.375v10.188h3.375q1.375 0 2.422-.625 1.062-.641 1.656-1.782.594-1.156.594-2.687t-.594-2.672q-.594-1.156-1.656-1.781-1.047-.64-2.422-.64zm12.786 11.813q-1.437 0-2.562-.657-1.125-.671-1.781-1.812-.657-1.156-.657-2.625 0-1.453.657-2.594.656-1.156 1.78-1.812 1.126-.657 2.563-.657 1.438 0 2.563.657 1.125.656 1.765 1.812.657 1.14.657 2.594 0 1.469-.657 2.625-.64 1.14-1.765 1.812-1.125.657-2.563.657zm0-1.344q1.032 0 1.813-.484.797-.485 1.234-1.329.453-.859.453-1.937t-.453-1.906q-.437-.844-1.234-1.328-.781-.485-1.813-.485-1.03 0-1.828.485-.797.484-1.25 1.328-.453.843-.453 1.906 0 1.078.453 1.937.453.844 1.25 1.329.797.484 1.828.484zm8.951 1.156l-3.39-9.75h1.515l2.407 7.266 2.593-5.766h.86l2.547 5.672 2.421-7.172h1.5l-3.375 9.75h-.843l-2.719-6.25-2.656 6.25h-.86zm12.09 0v-9.75h1.407l.031 1.656q.453-.78 1.39-1.328.938-.547 1.985-.547 1.625 0 2.453 1 .828 1 .828 3.032v5.937h-1.437v-5.844q0-2.843-2.282-2.796-.859 0-1.53.375-.657.375-1.048 1-.375.609-.375 1.328v5.937H79.58zm10.812 0v-13.812h1.406v13.812h-1.406zm8.295.188q-1.437 0-2.562-.657-1.125-.671-1.781-1.812-.657-1.156-.657-2.625 0-1.453.657-2.594.656-1.156 1.78-1.812 1.126-.657 2.563-.657 1.438 0 2.563.657 1.125.656 1.765 1.812.657 1.14.657 2.594 0 1.469-.657 2.625-.64 1.14-1.765 1.812-1.125.657-2.563.657zm0-1.344q1.032 0 1.813-.484.797-.485 1.234-1.329.453-.859.453-1.937t-.453-1.906q-.437-.844-1.234-1.328-.781-.485-1.813-.485-1.031 0-1.828.485-.797.484-1.25 1.328-.453.843-.453 1.906 0 1.078.453 1.937.453.844 1.25 1.329.797.484 1.828.484zm10.825 1.344q-1.266 0-2.297-.657-1.031-.671-1.625-1.812-.594-1.156-.594-2.61 0-1.468.61-2.609.624-1.156 1.656-1.812 1.047-.657 2.343-.657 1.172 0 2.094.547.922.547 1.406 1.407l.047-1.735h1.407v9.75h-1.438v-1.734q-.516.812-1.484 1.375-.97.547-2.125.547zm.312-1.36q.969 0 1.735-.468.765-.485 1.203-1.329.437-.843.437-1.937 0-1.063-.437-1.906-.438-.844-1.203-1.313-.766-.469-1.735-.469-.984 0-1.75.47-.75.468-1.187 1.312-.422.843-.422 1.906 0 1.078.422 1.937.437.844 1.187 1.329.766.468 1.75.468zm11.41 1.36q-1.327 0-2.39-.657-1.047-.656-1.656-1.796-.61-1.157-.61-2.625 0-1.454.61-2.594.625-1.156 1.672-1.813 1.047-.672 2.344-.672 1.125 0 2.062.516.938.516 1.469 1.266V202.2h1.422v13.812h-1.407l-.03-1.64q-.47.765-1.423 1.296-.953.532-2.062.532zm.188-1.313q.985 0 1.735-.484.765-.485 1.203-1.328.453-.844.453-1.953 0-1.094-.453-1.938-.438-.86-1.203-1.344-.75-.484-1.735-.484-.984 0-1.75.484-.765.485-1.203 1.344-.422.844-.422 1.938 0 1.078.422 1.937.438.86 1.203 1.344.766.484 1.75.484zm18.64 1.313q-1.859 0-3.312-.86-1.453-.86-2.281-2.375-.813-1.531-.813-3.484 0-1.422.485-2.625.484-1.219 1.344-2.11.875-.89 2.03-1.39 1.173-.516 2.532-.516.922 0 1.813.297.89.297 1.64.813.766.5 1.25 1.156l-1.015 1.062q-.704-.859-1.688-1.359t-2-.5q-1.406 0-2.5.672t-1.734 1.844q-.64 1.172-.64 2.656 0 1.547.64 2.734.656 1.188 1.781 1.844 1.14.64 2.64.64 1.032 0 1.985-.406.969-.421 1.547-1.109l.734 1.219q-.437.531-1.156.937-.719.39-1.578.625-.844.235-1.703.235zm11.053 0q-3.063 0-4.781-2.5l1.03-1.141q.876 1.25 1.798 1.766.922.5 2.062.5.86 0 1.531-.282.688-.28 1.079-.78.39-.5.39-1.141 0-1.063-.89-1.61-.875-.547-2.47-.906-1.905-.453-2.905-1.297-.985-.86-.985-2.437 0-1.032.563-1.829.578-.812 1.547-1.265.968-.469 2.171-.469 1.516 0 2.563.61 1.047.609 1.719 1.703l-1.047 1.046q-.594-.937-1.406-1.453-.797-.531-1.86-.531-1.219 0-2 .61-.765.609-.765 1.562 0 .922.703 1.453.718.516 2.343.875 1.938.438 3.079 1.297 1.14.86 1.14 2.36 0 1.14-.578 2.015-.578.875-1.625 1.36-1.031.484-2.406.484zm11.362 0q-3.063 0-4.782-2.5l1.032-1.141q.875 1.25 1.796 1.766.922.5 2.063.5.86 0 1.531-.282.688-.28 1.078-.78.39-.5.39-1.141 0-1.063-.89-1.61-.875-.547-2.468-.906-1.907-.453-2.907-1.297-.984-.86-.984-2.437 0-1.032.562-1.829.579-.812 1.547-1.265.969-.469 2.172-.469 1.516 0 2.563.61 1.047.609 1.718 1.703l-1.046 1.046q-.594-.937-1.407-1.453-.797-.531-1.86-.531-1.218 0-2 .61-.765.609-.765 1.562 0 .922.703 1.453.72.516 2.344.875 1.938.438 3.078 1.297 1.14.86 1.14 2.36 0 1.14-.577 2.015-.578.875-1.625 1.36-1.031.484-2.406.484z"/><path fill="#c9daf8" d="M458.627 168.792h107.127c-11.833 0-21.426 15.772-21.426 35.228 0 19.456 9.593 35.229 21.426 35.229H458.627c-11.833 0-21.426-15.773-21.426-35.229s9.593-35.228 21.426-35.228z" fill-rule="evenodd"/><path stroke="#999" stroke-linejoin="round" stroke-linecap="butt" d="M458.627 168.792h107.127c-11.833 0-21.426 15.772-21.426 35.228 0 19.456 9.593 35.229 21.426 35.229H458.627h0c-11.833 0-21.426-15.773-21.426-35.229s9.593-35.228 21.426-35.228z"/><path fill="none" d="M437.2 180.587h128.552v46.866H437.199z"/><path fill="#434343" d="M475.414 211.347v-15.86h6.719q2.344 0 4.125 1.017 1.797 1 2.797 2.796 1.016 1.782 1.016 4.125 0 2.329-1.016 4.125-1 1.782-2.797 2.797-1.781 1-4.125 1h-6.719zm6.61-12.297h-2.532v8.735h2.532q1.765 0 2.843-1.203 1.079-1.22 1.079-3.157 0-1.953-1.079-3.156-1.078-1.219-2.843-1.219zm18.268 12.516q-1.797 0-3.312-.61-1.516-.609-2.625-1.718-1.11-1.11-1.735-2.594-.609-1.5-.609-3.297 0-1.781.61-3.281.624-1.516 1.734-2.625 1.11-1.11 2.625-1.719 1.515-.625 3.312-.625 1.813 0 3.328.625 1.516.61 2.625 1.719 1.11 1.11 1.72 2.625.609 1.5.609 3.281 0 1.766-.61 3.282-.61 1.5-1.719 2.609-1.109 1.11-2.625 1.719-1.515.609-3.328.609zm0-3.797q1.188 0 2.11-.578.937-.578 1.484-1.578.547-1 .547-2.266 0-1.281-.547-2.281-.547-1-1.484-1.562-.922-.579-2.11-.579-1.203 0-2.14.579-.922.562-1.453 1.562-.532 1-.532 2.281 0 1.266.532 2.266.53 1 1.453 1.578.937.578 2.14.578zm11.214 3.578v-15.86h3.593l4.47 7.235 4.5-7.234h3.468v15.86h-3.953v-4.688q0-1.266.031-2.375.047-1.11.14-2.14l-3.53 5.468h-1.5l-3.423-5.39q.094.952.125 2.046.032 1.078.032 2.39v4.688h-3.953z"/><path fill="#c9daf8" d="M211.229 289.587h121.357c-13.404 0-24.271 15.772-24.271 35.228 0 19.456 10.867 35.228 24.271 35.228H211.23c-13.405 0-24.272-15.772-24.272-35.228 0-19.456 10.867-35.228 24.272-35.228z" fill-rule="evenodd"/><path stroke="#999" stroke-linejoin="round" stroke-linecap="butt" d="M211.229 289.587h121.357c-13.404 0-24.271 15.772-24.271 35.228 0 19.456 10.867 35.228 24.271 35.228H211.23h0c-13.405 0-24.272-15.772-24.272-35.228 0-19.456 10.867-35.228 24.272-35.228z"/><path fill="none" d="M186.915 301.382h145.642v46.866H186.915z"/><path fill="#434343" d="M212.604 332.36q-2.437 0-4.312-1.046-1.86-1.047-2.938-2.906-1.062-1.86-1.062-4.266 0-1.781.625-3.281.625-1.5 1.766-2.594 1.156-1.094 2.703-1.703 1.547-.625 3.39-.625 1.672 0 3.235.656 1.578.64 2.656 1.86l-2.5 2.828q-.625-.72-1.484-1.141-.844-.438-1.938-.438-1.203 0-2.172.547-.953.547-1.531 1.563-.578 1-.578 2.375 0 2.015 1.265 3.219 1.282 1.203 3.36 1.203 1.047 0 1.953-.422.922-.438 1.531-1.125l1.969 3.11q-.563.624-1.516 1.124-.953.5-2.093.781-1.141.282-2.329.282zm13.754 0q-2.438 0-4.094-.827-1.656-.844-2.828-2.329l2.437-2.765q1.14 1.484 2.297 2.015 1.172.516 2.36.516.874 0 1.437-.312.578-.329.578-.954 0-.546-.469-.906-.468-.36-1.172-.578-.703-.219-1.421-.375-2.625-.562-3.922-1.781-1.297-1.235-1.297-3.25 0-1.469.844-2.563.859-1.11 2.234-1.734 1.39-.625 2.984-.625 2.39 0 3.797.75 1.406.734 2.266 2l-2.469 2.375q-.719-.844-1.61-1.25-.874-.422-1.827-.422-.954 0-1.532.313-.562.312-.562.937 0 .469.39.797.407.312 1.016.5.61.187 1.266.328 1.656.313 2.906.938 1.266.609 1.969 1.593.703.985.703 2.422 0 1.688-.813 2.844-.812 1.156-2.234 1.75-1.422.594-3.234.594zm14.386 0q-2.437 0-4.094-.827-1.656-.844-2.828-2.329l2.438-2.765q1.14 1.484 2.297 2.015 1.172.516 2.36.516.874 0 1.437-.312.578-.329.578-.954 0-.546-.469-.906t-1.172-.578q-.703-.219-1.422-.375-2.625-.562-3.922-1.781-1.297-1.235-1.297-3.25 0-1.469.844-2.563.86-1.11 2.235-1.734 1.39-.625 2.984-.625 2.39 0 3.797.75 1.406.734 2.265 2l-2.468 2.375q-.719-.844-1.61-1.25-.875-.422-1.828-.422-.953 0-1.531.313-.563.312-.563.937 0 .469.391.797.406.312 1.016.5.61.187 1.265.328 1.657.313 2.907.938 1.265.609 1.968 1.593.703.985.703 2.422 0 1.688-.812 2.844-.813 1.156-2.234 1.75-1.422.594-3.235.594zm16.371 0q-1.797 0-3.312-.609-1.516-.61-2.625-1.718-1.11-1.11-1.735-2.594-.609-1.5-.609-3.297 0-1.781.61-3.281.624-1.516 1.734-2.625 1.11-1.11 2.625-1.72 1.515-.624 3.312-.624 1.813 0 3.328.625 1.516.61 2.625 1.719 1.11 1.109 1.72 2.625.609 1.5.609 3.28 0 1.767-.61 3.282-.61 1.5-1.719 2.61-1.109 1.109-2.625 1.718-1.515.61-3.328.61zm0-3.796q1.188 0 2.11-.578.937-.578 1.484-1.578.547-1 .547-2.266 0-1.281-.547-2.281-.547-1-1.484-1.563-.922-.578-2.11-.578-1.203 0-2.14.578-.922.563-1.453 1.563-.532 1-.532 2.28 0 1.267.532 2.267.53 1 1.453 1.578.937.578 2.14.578zm11.213 3.578v-15.86h3.594l4.469 7.235 4.5-7.234h3.469v15.859h-3.953v-4.688q0-1.265.03-2.375.048-1.109.141-2.14l-3.53 5.469h-1.5l-3.423-5.391q.094.953.125 2.047.032 1.078.032 2.39v4.688h-3.954z"/><path fill="none" d="M259.72 253.536l.064 36.063"/><path stroke="#666" stroke-width="3" stroke-linejoin="round" stroke-linecap="butt" d="M259.72 253.536l.032 18.063"/><path fill="#666" stroke="#666" stroke-width="3" stroke-linecap="butt" d="M254.797 271.607l4.979 13.606 4.931-13.623z" fill-rule="evenodd"/><path fill="#5d0083" d="M304.616 531.032h145.67v60.881h-145.67z" fill-rule="evenodd"/><path stroke="#999" stroke-linejoin="round" stroke-linecap="butt" d="M304.616 531.032h145.67v60.881h-145.67z"/><path fill="#fff" d="M345.927 568.392V555.33h3.36v10.14h5.765v2.922h-9.125zm14.335.172q-1.219 0-2.203-.656-.985-.672-1.563-1.828-.562-1.172-.562-2.672 0-1.516.562-2.672.578-1.156 1.578-1.812 1-.657 2.282-.657.968 0 1.703.375.734.36 1.219.97v-1.141h3.109v9.921h-3.188v-1.14q-.5.578-1.25.953-.75.36-1.687.36zm.906-2.64q.985 0 1.547-.672.578-.688.578-1.844 0-1.14-.578-1.812-.562-.688-1.547-.688-.969 0-1.547.688-.562.671-.562 1.812 0 1.156.562 1.844.578.672 1.547.672zm8.82 6.765l2-4.672-4.406-9.546h3.562l1.938 4.625q.25.578.406 1.156.078-.188.14-.39.079-.22.173-.454l1.703-4.937h3.562l-4.234 9.921-1.703 4.297h-3.14zm15.024-4.109q-1.547 0-2.782-.672-1.218-.672-1.937-1.828-.703-1.156-.703-2.656 0-1.485.703-2.64.719-1.173 1.937-1.845 1.235-.672 2.782-.672t2.765.672q1.219.672 1.922 1.844.703 1.156.703 2.64 0 1.5-.703 2.657-.703 1.156-1.922 1.828-1.218.672-2.765.672zm0-2.703q.953 0 1.562-.688.61-.703.61-1.765 0-1.078-.61-1.766-.61-.703-1.562-.703-.953 0-1.578.703-.625.688-.625 1.766 0 1.062.625 1.765.625.688 1.578.688zm10.69 2.719q-1.641 0-2.579-1.047-.922-1.063-.922-2.969v-6.11h3.172v5.75q0 .829.406 1.297.407.47 1.14.47.735 0 1.204-.438.469-.453.469-1.157v-5.921h3.172v9.921h-2.97l-.093-1.234q-.484.656-1.297 1.047-.797.39-1.703.39zm9.479-.204v-7.187h-1.719v-2.734h1.719v-2.5h3.172v2.5h1.844v2.734h-1.844v7.187h-3.172z"/><path fill="#5d0083" d="M304.616 433.538h145.67v60.882h-145.67z" fill-rule="evenodd"/><path stroke="#999" stroke-linejoin="round" stroke-linecap="butt" d="M304.616 433.538h145.67v60.882h-145.67z"/><path fill="#fff" d="M323.483 470.899v-13.063h5.922q1.297 0 2.313.547 1.015.532 1.594 1.485.593.937.593 2.125 0 1.328-.64 2.344-.641 1.015-1.735 1.562l2.922 5h-3.828l-2.562-4.531h-1.391v4.531h-3.188zm3.188-7.047h2.39q.72 0 1.126-.453.421-.453.421-1.188 0-.734-.468-1.171-.47-.438-1.313-.438h-2.156v3.25zm14.008 7.235q-1.657 0-2.891-.657-1.219-.672-1.89-1.828-.673-1.156-.673-2.625 0-1.531.657-2.687.656-1.172 1.797-1.844 1.14-.672 2.593-.672 1.39 0 2.469.656 1.094.64 1.688 1.781.593 1.141.578 2.594l-.016.797h-6.703q.25.813.937 1.281.704.454 1.813.454.61 0 1.078-.172.484-.172 1.031-.61l1.469 2.094q-.937.766-1.922 1.11-.984.327-2.015.327zm-.36-7.704q-1.687 0-2.062 1.532h3.843v-.016q-.046-.656-.546-1.078-.485-.438-1.235-.438zm6.558 7.516v-9.922h2.968l.063 1.156q.531-.625 1.312-.984.797-.375 1.672-.375 1.688 0 2.563 1.031.89 1.031.89 3v6.094h-3.171v-5.844q0-1.672-1.438-1.64-.734 0-1.219.453-.484.453-.484 1.094v5.937h-3.156zm15.665.203q-1.266 0-2.266-.656-.984-.672-1.563-1.828-.578-1.172-.578-2.688 0-1.484.578-2.64.579-1.172 1.579-1.844 1-.672 2.296-.672.829 0 1.579.313.765.312 1.265.812v-4.813h3.172V470.9h-2.906l-.094-1.047q-.484.547-1.297.906-.812.344-1.765.344zm.843-2.61q.985 0 1.547-.687.578-.687.578-1.875 0-1.156-.578-1.844-.562-.687-1.547-.687-.968 0-1.547.688-.562.687-.562 1.843 0 1.188.562 1.875.579.688 1.547.688zm12.46 2.594q-1.656 0-2.89-.656-1.219-.672-1.89-1.828-.673-1.156-.673-2.625 0-1.531.657-2.687.656-1.172 1.797-1.844 1.14-.672 2.593-.672 1.39 0 2.47.656 1.093.64 1.687 1.781.593 1.141.578 2.594l-.016.797h-6.703q.25.813.937 1.281.704.454 1.813.454.61 0 1.078-.172.484-.172 1.031-.61l1.47 2.094q-.938.766-1.923 1.11-.984.327-2.015.327zm-.359-7.703q-1.687 0-2.062 1.532h3.843v-.016q-.046-.656-.546-1.078-.485-.438-1.235-.438zm6.558 7.516v-9.922h2.984l.047 1.469q.516-.75 1.281-1.203.782-.469 1.657-.469.312 0 .609.063.297.046.547.125l-.86 3.484q-.203-.11-.562-.203-.36-.11-.766-.11-.781 0-1.281.516-.484.516-.484 1.36v4.89h-3.172zm15.488 0v-7.188h-1.719v-2.734h1.72v-2.5h3.171v2.5h1.844v2.735h-1.844v7.187h-3.172zm6.731 0v-9.922h2.985l.047 1.469q.515-.75 1.28-1.203.782-.469 1.657-.469.313 0 .61.063.296.046.546.125l-.859 3.484q-.203-.11-.563-.203-.359-.11-.765-.11-.781 0-1.281.516-.485.516-.485 1.36v4.89h-3.172zm12.962.188q-1.656 0-2.89-.657-1.22-.672-1.891-1.828-.672-1.156-.672-2.625 0-1.531.656-2.687.656-1.172 1.797-1.844 1.14-.672 2.594-.672 1.39 0 2.468.656 1.094.64 1.688 1.781.594 1.141.578 2.594l-.016.797h-6.703q.25.813.938 1.281.703.454 1.812.454.61 0 1.078-.172.485-.172 1.032-.61l1.468 2.094q-.937.766-1.921 1.11-.985.327-2.016.327zm-.36-7.704q-1.687 0-2.062 1.532h3.844v-.016q-.047-.656-.547-1.078-.484-.438-1.234-.438zm11.293 7.704q-1.657 0-2.891-.657-1.219-.672-1.89-1.828-.673-1.156-.673-2.625 0-1.531.657-2.687.656-1.172 1.797-1.844 1.14-.672 2.593-.672 1.39 0 2.469.656 1.094.64 1.688 1.781.593 1.141.578 2.594l-.016.797h-6.703q.25.813.937 1.281.704.454 1.813.454.61 0 1.078-.172.484-.172 1.031-.61l1.469 2.094q-.937.766-1.922 1.11-.984.327-2.015.327zm-.36-7.704q-1.687 0-2.062 1.532h3.843v-.016q-.046-.656-.546-1.078-.485-.438-1.235-.438z"/><path fill="#1d7625" d="M304.616 628.525h145.67v60.882h-145.67z" fill-rule="evenodd"/><path stroke="#999" stroke-linejoin="round" stroke-linecap="butt" d="M304.616 628.525h145.67v60.882h-145.67z"/><path fill="#fff" d="M353.92 665.886v-13.063h5.688q1.25 0 2.235.563.984.562 1.547 1.547.578.968.578 2.218 0 1.297-.578 2.313-.563 1-1.547 1.594-.985.578-2.235.578h-2.328v4.25h-3.36zm3.298-7.188h1.89q.594 0 1-.406.407-.422.407-1.094 0-.672-.407-1.047-.406-.39-1-.39h-1.89v2.937zm12.288 7.36q-1.219 0-2.203-.657-.984-.671-1.563-1.828-.562-1.172-.562-2.672 0-1.515.562-2.671.579-1.157 1.579-1.813 1-.656 2.28-.656.97 0 1.704.375.734.36 1.219.969v-1.141h3.11v9.922h-3.188v-1.14q-.5.577-1.25.952-.75.36-1.688.36zm.906-2.64q.985 0 1.547-.673.578-.687.578-1.844 0-1.14-.578-1.812-.562-.688-1.547-.688-.968 0-1.547.688-.562.672-.562 1.812 0 1.157.562 1.844.579.672 1.547.672zm9.638-9.376q-.875 0-1.36-.422-.484-.422-.484-1.187 0-.688.485-1.125.5-.453 1.36-.453.874 0 1.374.421.5.407.5 1.157 0 .703-.5 1.156-.5.453-1.375.453zm-1.562 11.844v-9.922h3.156v9.922h-3.156zm5.972 0v-9.922h2.968l.063 1.156q.531-.625 1.312-.984.797-.375 1.672-.375 1.688 0 2.563 1.031.89 1.031.89 3v6.094h-3.171v-5.844q0-1.672-1.438-1.64-.734 0-1.219.453-.484.453-.484 1.093v5.938h-3.156zm12.727 0v-7.188h-1.719v-2.734h1.719v-2.5h3.172v2.5h1.844v2.734h-1.844v7.188h-3.172z"/><path fill="none" d="M377.45 494.42v36.598"/><path stroke="#666" stroke-width="3" stroke-linejoin="round" stroke-linecap="butt" d="M377.45 494.42v18.598"/><path fill="#666" stroke="#666" stroke-width="3" stroke-linecap="butt" d="M372.496 513.018l4.955 13.615 4.955-13.615z" fill-rule="evenodd"/><path fill="none" d="M377.45 591.913v36.599"/><path stroke="#666" stroke-width="3" stroke-linejoin="round" stroke-linecap="butt" d="M377.45 591.913v18.599"/><path fill="#666" stroke="#666" stroke-width="3" stroke-linecap="butt" d="M372.496 610.512l4.955 13.614 4.955-13.614z" fill-rule="evenodd"/><path fill="none" d="M259.772 360.043v36.748h117.67v36.733"/><path stroke="#666" stroke-width="3" stroke-linejoin="round" stroke-linecap="butt" d="M259.772 360.043v36.748h117.67v18.733"/><path fill="#666" stroke="#666" stroke-width="3" stroke-linecap="butt" d="M372.486 415.524l4.955 13.614 4.955-13.614z" fill-rule="evenodd"/><path fill="none" d="M501.478 239.249v97.143H377.446v97.156"/><path stroke="#666" stroke-width="3" stroke-linejoin="round" stroke-linecap="butt" d="M501.478 239.249v97.143H377.446v79.156"/><path fill="#666" stroke="#666" stroke-width="3" stroke-linecap="butt" d="M372.49 415.548l4.956 13.614 4.955-13.614z" fill-rule="evenodd"/><path fill="none" d="M377.452 102.026v35.804h124.031v30.967"/><path stroke="#666" stroke-width="3" stroke-linejoin="round" stroke-linecap="butt" d="M377.452 102.026v35.804h124.031v12.967"/><path fill="#666" stroke="#666" stroke-width="3" stroke-linecap="butt" d="M496.528 150.797l4.955 13.615 4.955-13.615z" fill-rule="evenodd"/><path fill="none" d="M377.452 102.026v35.804H259.719v30.967"/><path stroke="#666" stroke-width="3" stroke-linejoin="round" stroke-linecap="butt" d="M377.452 102.026v35.804H259.719v12.967"/><path fill="#666" stroke="#666" stroke-width="3" stroke-linecap="butt" d="M254.764 150.797l4.955 13.615 4.955-13.615z" fill-rule="evenodd"/><path fill="#15c" d="M309.392 17.282h136.12v72.77c-68.06 0-68.06 27.728-136.12 11.974z" fill-rule="evenodd"/><path stroke="#999" stroke-linejoin="round" stroke-linecap="butt" d="M309.392 17.282h136.12v72.77c-68.06 0-68.06 27.728-136.12 11.974z"/><path fill="#fff" d="M340.564 63.267V44.611h4.797v7.219h6.656V44.61h4.797v18.656h-4.797v-7.171h-6.656v7.171h-4.797zm24.97 0V48.8h-5.562V44.61h16.093V48.8h-5.734v14.468h-4.797zm13.681 0V44.611h4.235l5.25 8.5 5.312-8.5h4.078v18.656h-4.672v-5.515q0-1.5.047-2.797.063-1.313.172-2.516l-4.156 6.438h-1.766l-4.03-6.36q.108 1.125.14 2.407.047 1.28.047 2.828v5.515h-4.657zm23.458 0V44.611h4.797V59.08h8.234v4.187h-13.031z"/><path fill="#d9d9d9" d="M139.406 45.04H287.36V27.424l35.228 35.229-35.228 35.228V80.268H139.406z" fill-rule="evenodd"/><path stroke="#999" stroke-linejoin="round" stroke-linecap="butt" d="M139.406 45.04H287.36V27.424l35.228 35.229-35.228 35.228V80.268H139.406z"/><path fill="#000" d="M150.328 69.574V56.51h4.938q1.78 0 3.14.828 1.375.828 2.172 2.313.797 1.468.797 3.39 0 1.922-.797 3.407-.797 1.468-2.172 2.296-1.36.829-3.14.829h-4.938zm4.844-11.625h-3.375v10.187h3.375q1.375 0 2.422-.625 1.062-.64 1.656-1.781.594-1.156.594-2.688 0-1.531-.594-2.672-.594-1.156-1.656-1.78-1.047-.641-2.422-.641zm12.786 11.812q-1.437 0-2.562-.656-1.125-.672-1.781-1.813-.657-1.156-.657-2.625 0-1.453.657-2.593.656-1.157 1.78-1.813 1.126-.656 2.563-.656 1.438 0 2.563.656 1.125.656 1.765 1.813.657 1.14.657 2.593 0 1.469-.657 2.625-.64 1.14-1.765 1.813-1.125.656-2.563.656zm0-1.344q1.032 0 1.813-.484.797-.484 1.234-1.328.453-.86.453-1.938 0-1.078-.453-1.906-.437-.844-1.234-1.328-.781-.484-1.813-.484-1.031 0-1.828.484-.797.484-1.25 1.328-.453.844-.453 1.906 0 1.078.453 1.938.453.844 1.25 1.328.797.484 1.828.484zm8.951 1.157l-3.39-9.75h1.515l2.407 7.265 2.593-5.765h.86l2.547 5.671 2.421-7.171h1.5l-3.375 9.75h-.843l-2.72-6.25-2.655 6.25h-.86zm12.09 0v-9.75h1.407l.03 1.656q.454-.781 1.392-1.328.937-.547 1.984-.547 1.625 0 2.453 1 .828 1 .828 3.031v5.938h-1.437V63.73q0-2.844-2.282-2.797-.859 0-1.53.375-.657.375-1.048 1-.375.61-.375 1.328v5.938H189zm10.812 0V55.76h1.406v13.813h-1.406zm8.295.187q-1.437 0-2.562-.656-1.125-.672-1.782-1.813-.656-1.156-.656-2.625 0-1.453.656-2.593.657-1.157 1.782-1.813 1.125-.656 2.562-.656 1.438 0 2.563.656 1.125.656 1.765 1.813.657 1.14.657 2.593 0 1.469-.657 2.625-.64 1.14-1.765 1.813-1.125.656-2.563.656zm0-1.344q1.031 0 1.813-.484.797-.484 1.234-1.328.453-.86.453-1.938 0-1.078-.453-1.906-.437-.844-1.234-1.328-.782-.484-1.813-.484t-1.828.484q-.797.484-1.25 1.328-.453.844-.453 1.906 0 1.078.453 1.938.453.844 1.25 1.328.797.484 1.828.484zm10.825 1.344q-1.266 0-2.297-.656-1.032-.672-1.625-1.813-.594-1.156-.594-2.61 0-1.468.61-2.608.624-1.157 1.656-1.813 1.046-.656 2.343-.656 1.172 0 2.094.547.922.547 1.406 1.406l.047-1.734h1.406v9.75h-1.437v-1.735q-.516.813-1.484 1.375-.97.547-2.125.547zm.312-1.36q.969 0 1.734-.468.766-.484 1.204-1.328.437-.844.437-1.938 0-1.062-.437-1.906-.438-.844-1.204-1.312-.765-.47-1.734-.47-.984 0-1.75.47-.75.468-1.187 1.312-.422.844-.422 1.906 0 1.078.422 1.938.437.844 1.187 1.328.766.469 1.75.469zm11.41 1.36q-1.327 0-2.39-.656-1.047-.656-1.656-1.797-.61-1.156-.61-2.625 0-1.453.61-2.594.625-1.156 1.672-1.812 1.047-.672 2.343-.672 1.125 0 2.063.515.937.516 1.469 1.266v-5.625h1.422v13.813h-1.407l-.03-1.641q-.47.766-1.423 1.297-.953.531-2.062.531zm.188-1.312q.985 0 1.735-.485.765-.484 1.203-1.328.453-.844.453-1.953 0-1.094-.453-1.938-.438-.859-1.203-1.343-.75-.485-1.735-.485-.984 0-1.75.485-.765.484-1.203 1.343-.422.844-.422 1.938 0 1.078.422 1.937.438.86 1.203 1.344.766.485 1.75.485zm13.234 1.125V56.51h1.47v5.828h7.265v-5.828h1.469v13.063h-1.47v-5.797h-7.265v5.797h-1.469zm16.44 0V57.949h-3.75V56.51h9.077v1.438h-3.86v11.625h-1.468zm7.814 0V56.51h1.437l4.656 7.594 4.75-7.594h1.313v13.063h-1.469V63.62q0-1.328.031-2.421.047-1.11.125-2.141l-4.297 6.734h-1l-4.218-6.734q.093.984.109 2.078.031 1.094.031 2.484v5.954h-1.468zm16.007 0V56.51h1.468v11.625h6.266v1.438h-7.734z"/></g></svg>
