<svg viewBox="0 0 680.018 928.118" fill="none" stroke-linecap="square" stroke-miterlimit="10" xmlns="http://www.w3.org/2000/svg"><clipPath id="a"><path d="M0 0h680.018v928.118H0V0z"/></clipPath><g clip-path="url(#a)"><path fill="none" d="M0 0h680.018v928.118H0zM524.794 190.449l-.063 316.44"/><path stroke="#f4cccc" stroke-width="2" stroke-linejoin="round" stroke-linecap="butt" stroke-dasharray="8.0,6.0" d="M524.794 190.449l-.063 316.44"/><path fill="none" d="M531.844 94.214H667.97v40.41H531.844z"/><path fill="#000" d="M546.188 120.026q-2.844 0-4.438-2.328l.953-1.047q.813 1.156 1.672 1.625.86.469 1.906.469.797 0 1.422-.25.64-.266 1-.72.375-.468.375-1.077 0-.985-.828-1.485-.828-.5-2.297-.86-1.765-.405-2.703-1.187-.922-.796-.922-2.265 0-.953.531-1.703.532-.75 1.422-1.172.907-.438 2.032-.438 1.406 0 2.375.578.968.563 1.593 1.563l-.968.969q-.547-.86-1.297-1.344-.75-.484-1.735-.484-1.125 0-1.843.562-.72.563-.72 1.453 0 .86.657 1.344.656.484 2.172.812 1.797.422 2.844 1.22 1.062.796 1.062 2.187 0 1.047-.531 1.859-.531.813-1.5 1.266-.953.453-2.234.453zm7.724-.172v-7.797h-2.031v-1.266h2.031v-2.359h1.313v2.36h2.265v1.265h-2.265v7.797h-1.313zm6.728 3.984l1.53-3.734-4.202-9.313h1.484l3.11 6.938q.062.156.124.344.079.172.141.359.063-.14.11-.281l.124-.313 2.704-7.047h1.5l-3.657 9.063-1.562 3.984h-1.406zm8.047-3.984v-12.828H570v12.828h-1.313zm7.712.172q-1.36 0-2.422-.578-1.047-.594-1.64-1.657-.579-1.062-.579-2.421 0-1.391.563-2.454.578-1.078 1.593-1.687 1.032-.625 2.344-.625 1.219 0 2.14.562.938.563 1.438 1.547.5.969.47 2.25l-.017.61h-7.187q.094 1.468 1.016 2.343.921.86 2.437.86.656 0 1.281-.203.64-.22 1.407-.875l.671.953q-.609.594-1.546.984-.922.39-1.97.39zm-.156-8.172q-1.25 0-2.063.672-.812.656-1.016 1.937h5.797v-.11q-.03-.608-.36-1.187-.327-.593-.937-.953-.593-.36-1.421-.36zm8.896 8.172q-1.188 0-2.094-.422-.906-.422-1.469-1.156l.938-.813q.984 1.235 2.719 1.235.843 0 1.359-.375.531-.375.531-1.032 0-.562-.484-.922-.219-.171-.64-.328-.407-.156-1-.328-.97-.265-1.61-.547-.64-.297-1.016-.687-.515-.578-.515-1.469 0-.75.406-1.328.406-.578 1.125-.906.719-.344 1.625-.344.969 0 1.875.406t1.484 1.047l-.812.89q-.516-.546-1.157-.874-.625-.328-1.328-.328-.843 0-1.359.39-.5.375-.5 1 0 .5.39.828.25.188.688.36.438.156 1.094.328.75.219 1.281.437.547.203.89.5.86.657.86 1.813 0 .75-.437 1.36-.422.593-1.172.937-.735.328-1.672.328zm10.996-11.172q-.485 0-.75-.25-.25-.25-.25-.703 0-.438.25-.688.265-.265.75-.265.468 0 .718.25.266.25.266.703 0 .437-.266.703-.25.25-.718.25zm-.657 11v-9.063h1.328v9.063h-1.328zm3.97 0v-9.063h1.297l.031 1.547q.422-.734 1.297-1.234t1.844-.5q1.515 0 2.28.922.767.922.767 2.812v5.516h-1.329v-5.422q0-2.656-2.14-2.594-.797 0-1.406.344-.61.344-.97.922-.359.562-.359 1.234v5.516h-1.312zm14.85 0v-12.828h1.312v5.375q.454-.797 1.313-1.297.875-.5 1.797-.5 1.562 0 2.328.922.766.922.766 2.812v5.516h-1.329v-5.422q0-2.64-2.156-2.594-.781 0-1.39.344-.61.344-.97.922-.359.562-.359 1.234v5.516h-1.312zm13.998.172q-1.36 0-2.422-.578-1.046-.594-1.64-1.657-.578-1.062-.578-2.421 0-1.391.562-2.454.578-1.078 1.594-1.687 1.031-.625 2.344-.625 1.218 0 2.14.562.938.563 1.438 1.547.5.969.469 2.25l-.016.61h-7.188q.094 1.468 1.016 2.343.922.86 2.438.86.656 0 1.28-.203.641-.22 1.407-.875l.672.953q-.61.594-1.547.984-.922.39-1.969.39zm-.156-8.172q-1.25 0-2.062.672-.813.656-1.016 1.937h5.797v-.11q-.031-.608-.36-1.187-.328-.593-.937-.953-.594-.36-1.422-.36zm9.443 8.172q-1.172 0-2.125-.61-.953-.625-1.515-1.687-.547-1.063-.547-2.422 0-1.36.562-2.422.578-1.078 1.547-1.672.969-.61 2.172-.61 1.094 0 1.937.5.86.5 1.313 1.298l.031-1.61h1.328v9.063h-1.343v-1.61q-.485.766-1.391 1.282-.89.5-1.969.5zm.297-1.266q.906 0 1.61-.437.718-.438 1.124-1.22.407-.78.407-1.812 0-.984-.407-1.765-.406-.781-1.125-1.219-.703-.437-1.609-.437-.922 0-1.625.437-.703.438-1.11 1.219-.39.781-.39 1.765 0 1.016.39 1.813.407.781 1.11 1.219.703.437 1.625.437zm10.603 1.266q-1.25 0-2.235-.61-.968-.609-1.53-1.671-.563-1.063-.563-2.438 0-1.344.562-2.406.578-1.063 1.547-1.672.969-.625 2.188-.625 1.03 0 1.906.484.89.469 1.375 1.157v-5.22h1.312v12.829h-1.297l-.046-1.531q-.422.718-1.313 1.218-.875.485-1.906.485zm.172-1.219q.906 0 1.609-.437.719-.454 1.125-1.235.406-.797.406-1.828 0-1.016-.406-1.797-.406-.797-1.125-1.25-.703-.453-1.61-.453-.921 0-1.624.453-.703.453-1.11 1.25-.39.781-.39 1.797t.39 1.813q.407.796 1.11 1.25.703.437 1.625.437z"/><path fill="none" d="M531.87 149.819h136.126v61.417H531.87z"/><path fill="#000" d="M546.214 175.63q-2.844 0-4.438-2.327l.953-1.047q.813 1.156 1.672 1.625.86.469 1.907.469.796 0 1.421-.25.641-.266 1-.72.375-.468.375-1.077 0-.985-.828-1.485-.828-.5-2.297-.86-1.765-.405-2.703-1.187-.922-.796-.922-2.265 0-.953.532-1.703.53-.75 1.422-1.172.906-.438 2.03-.438 1.407 0 2.376.578.969.563 1.594 1.563l-.97.969q-.546-.86-1.296-1.344-.75-.484-1.734-.484-1.125 0-1.844.562-.719.563-.719 1.453 0 .86.656 1.344.657.484 2.172.812 1.797.422 2.844 1.22 1.062.796 1.062 2.187 0 1.047-.53 1.859-.532.813-1.5 1.266-.954.453-2.235.453zm8.006 3.813l1.531-3.734-4.203-9.313h1.484l3.11 6.938q.062.156.125.344.078.172.14.359.063-.14.11-.281l.125-.313 2.703-7.047h1.5l-3.657 9.063-1.562 3.984h-1.406zm8.016-3.984v-9.063h1.297l.031 1.547q.422-.734 1.297-1.234t1.844-.5q1.516 0 2.281.922.766.922.766 2.812v5.516h-1.328v-5.422q0-2.656-2.14-2.594-.798 0-1.407.344-.61.344-.969.922-.36.562-.36 1.234v5.516h-1.312zm13.811.172q-1.281 0-2.297-.61-1-.625-1.578-1.687-.578-1.063-.578-2.422 0-1.344.578-2.406.578-1.063 1.594-1.672 1.015-.625 2.312-.625 1.14 0 2.094.469.953.468 1.531 1.28l-.765.938q-.5-.64-1.266-1.03-.766-.407-1.547-.407-.922 0-1.656.453-.735.438-1.156 1.219-.407.781-.407 1.781 0 1 .422 1.797.438.781 1.156 1.234.735.438 1.625.438 1.594 0 2.797-1.422l.782.953q-.61.781-1.594 1.25-.969.469-2.047.469zm5.32-.172V162.63h1.312v5.375q.453-.797 1.312-1.297.875-.5 1.797-.5 1.563 0 2.328.922.766.922.766 2.812v5.516h-1.328v-5.422q0-2.64-2.156-2.594-.782 0-1.391.344-.61.344-.969.922-.36.562-.36 1.234v5.516h-1.312zm9.998 0v-9.063h1.312l.016 1.75q.375-.812 1.11-1.375.75-.562 1.702-.562.297 0 .547.047.266.047.438.11l-.36 1.468q-.453-.188-.906-.188-.781 0-1.36.375-.562.375-.874.985-.297.594-.297 1.328v5.125h-1.328zm10.099.172q-1.328 0-2.375-.61-1.047-.625-1.656-1.687-.61-1.063-.61-2.438 0-1.343.61-2.406.61-1.078 1.656-1.672 1.047-.61 2.375-.61 1.344 0 2.39.61 1.047.594 1.641 1.672.594 1.063.594 2.406 0 1.375-.594 2.438-.594 1.062-1.64 1.687-1.047.61-2.391.61zm0-1.25q.953 0 1.687-.438.735-.453 1.157-1.234.422-.797.422-1.813 0-1-.422-1.765-.422-.781-1.157-1.219-.734-.453-1.687-.453-.953 0-1.703.453-.735.438-1.156 1.219-.407.781-.407 1.765 0 1.016.407 1.813.421.781 1.156 1.234.75.438 1.703.438zm6.518 1.078v-9.063h1.297l.031 1.547q.422-.734 1.297-1.234t1.844-.5q1.515 0 2.281.922.766.922.766 2.812v5.516h-1.328v-5.422q0-2.656-2.141-2.594-.797 0-1.406.344-.61.344-.969.922-.36.562-.36 1.234v5.516h-1.312zm13.998.172q-1.328 0-2.375-.61-1.047-.625-1.656-1.687-.61-1.063-.61-2.438 0-1.343.61-2.406.61-1.078 1.656-1.672 1.047-.61 2.375-.61 1.344 0 2.391.61 1.047.594 1.64 1.672.594 1.063.594 2.406 0 1.375-.593 2.438-.594 1.062-1.641 1.687-1.047.61-2.39.61zm0-1.25q.953 0 1.688-.438.734-.453 1.156-1.234.422-.797.422-1.813 0-1-.422-1.765-.422-.781-1.156-1.219-.735-.453-1.688-.453t-1.703.453q-.734.438-1.156 1.219-.406.781-.406 1.765 0 1.016.406 1.813.422.781 1.156 1.234.75.438 1.703.438zm9.722 1.25q-1.563 0-2.391-.938-.828-.953-.828-2.75v-5.547h1.328v5.282q0 2.765 2.281 2.765.735 0 1.344-.343.61-.344.953-.922.36-.578.36-1.282v-5.5h1.328v9.063h-1.313l-.047-1.563q-.422.75-1.25 1.25-.828.485-1.765.485zm9.883 0q-1.187 0-2.094-.422-.906-.422-1.468-1.156l.937-.813q.984 1.235 2.719 1.235.844 0 1.36-.375.53-.375.53-1.032 0-.562-.484-.922-.219-.171-.64-.328-.407-.156-1-.328-.97-.265-1.61-.547-.64-.297-1.016-.687-.515-.578-.515-1.469 0-.75.406-1.328.406-.578 1.125-.906.719-.344 1.625-.344.969 0 1.875.406t1.484 1.047l-.812.89q-.516-.546-1.156-.874-.625-.328-1.328-.328-.844 0-1.36.39-.5.375-.5 1 0 .5.39.828.25.188.688.36.438.156 1.094.328.75.219 1.281.437.547.203.891.5.86.657.86 1.813 0 .75-.438 1.36-.422.593-1.172.937-.734.328-1.672.328zM545.433 196.43q-1.172 0-2.094-.577-.906-.594-1.453-1.625l.906-.953q.656 1.046 1.281 1.437.625.375 1.36.375 1.062 0 1.734-.734.672-.75.672-1.907v-7.015h-2.219v-1.297h5.406v1.297h-1.78v7.14q0 1.11-.5 1.985t-1.36 1.375q-.844.5-1.953.5zm11.75 0q-2.844 0-4.438-2.327l.953-1.047q.813 1.156 1.672 1.625.86.469 1.906.469.797 0 1.422-.25.64-.266 1-.72.375-.468.375-1.077 0-.985-.828-1.485-.828-.5-2.297-.86-1.766-.405-2.703-1.187-.922-.796-.922-2.265 0-.953.531-1.703.532-.75 1.422-1.172.906-.438 2.031-.438 1.407 0 2.375.578.97.563 1.594 1.563l-.969.969q-.546-.86-1.296-1.344-.75-.484-1.735-.484-1.125 0-1.844.562-.718.563-.718 1.453 0 .86.656 1.344.656.484 2.172.812 1.797.422 2.844 1.22 1.062.796 1.062 2.187 0 1.047-.531 1.859-.531.813-1.5 1.266-.953.453-2.235.453zm12.154-11.171q-.484 0-.75-.25-.25-.25-.25-.703 0-.438.25-.688.266-.265.75-.265.469 0 .719.25.265.25.265.703 0 .437-.265.703-.25.25-.719.25zm-.656 11v-9.063h1.328v9.063h-1.328zm3.97 0v-9.063h1.296l.032 1.547q.421-.734 1.296-1.234t1.844-.5q1.516 0 2.281.922.766.922.766 2.812v5.516h-1.328v-5.422q0-2.656-2.14-2.594-.798 0-1.407.344-.61.344-.969.922-.36.562-.36 1.234v5.516h-1.312zm14.85 0V183.43h1.312v5.375q.453-.797 1.312-1.297.875-.5 1.797-.5 1.563 0 2.328.922.766.922.766 2.812v5.516h-1.328v-5.422q0-2.64-2.156-2.594-.782 0-1.39.344-.61.344-.97.922-.359.562-.359 1.234v5.516H587.5zm13.998.172q-1.36 0-2.422-.578-1.047-.594-1.64-1.657-.579-1.062-.579-2.421 0-1.391.563-2.454.578-1.078 1.593-1.687 1.032-.625 2.344-.625 1.219 0 2.14.562.938.563 1.438 1.547.5.969.469 2.25l-.016.61h-7.187q.094 1.468 1.016 2.343.921.86 2.437.86.656 0 1.281-.203.64-.22 1.407-.875l.671.953q-.609.594-1.546.984-.922.39-1.97.39zm-.156-8.172q-1.25 0-2.063.672-.812.656-1.016 1.937h5.797v-.11q-.031-.608-.36-1.187-.327-.593-.937-.953-.593-.36-1.421-.36zm9.443 8.172q-1.172 0-2.125-.61-.953-.625-1.516-1.687-.547-1.063-.547-2.422 0-1.36.563-2.422.578-1.078 1.547-1.672.968-.61 2.171-.61 1.094 0 1.938.5.86.5 1.312 1.298l.032-1.61h1.328v9.063h-1.344v-1.61q-.484.766-1.39 1.282-.891.5-1.97.5zm.297-1.266q.906 0 1.609-.437.719-.438 1.125-1.22.406-.78.406-1.812 0-.984-.406-1.765-.406-.781-1.125-1.219-.703-.437-1.61-.437-.921 0-1.624.437-.704.438-1.11 1.219-.39.781-.39 1.765 0 1.016.39 1.813.406.781 1.11 1.219.703.437 1.625.437zm10.602 1.266q-1.25 0-2.234-.61-.969-.609-1.531-1.671-.563-1.063-.563-2.438 0-1.344.563-2.406.578-1.063 1.547-1.672.968-.625 2.187-.625 1.031 0 1.906.484.89.469 1.375 1.157v-5.22h1.313v12.829h-1.297l-.047-1.531q-.422.718-1.312 1.218-.875.485-1.907.485zm.172-1.219q.906 0 1.61-.437.718-.454 1.125-1.235.406-.797.406-1.828 0-1.016-.406-1.797-.407-.797-1.125-1.25-.704-.453-1.61-.453-.922 0-1.625.453t-1.11 1.25q-.39.781-.39 1.797t.39 1.813q.407.796 1.11 1.25.703.437 1.625.437z"/><path fill="#c9daf8" d="M142.914 152.792h136.12v72.77c-68.06 0-68.06 27.728-136.12 11.974z" fill-rule="evenodd"/><path fill="#000" d="M197.226 197.952q-2.594 0-4.578-1.11-1.985-1.11-3.11-3.078-1.125-1.969-1.125-4.515 0-1.907.656-3.485.672-1.578 1.875-2.734 1.22-1.172 2.86-1.813 1.64-.656 3.594-.656 1.765 0 3.437.688 1.672.671 2.797 1.968l-2.64 3q-.673-.765-1.579-1.218-.89-.454-2.047-.454-1.265 0-2.297.579-1.015.562-1.625 1.64-.609 1.063-.609 2.531 0 2.141 1.344 3.407 1.344 1.265 3.547 1.265 1.11 0 2.078-.453.969-.453 1.625-1.172l2.078 3.282q-.594.671-1.61 1.203-1 .53-2.218.828-1.203.297-2.453.297zm14.563 0q-2.594 0-4.344-.875-1.75-.891-3-2.485l2.594-2.922q1.203 1.579 2.438 2.141 1.234.547 2.484.547.937 0 1.531-.328.61-.344.61-1.016 0-.578-.5-.953-.485-.39-1.235-.61-.75-.234-1.515-.406-2.782-.593-4.157-1.89-1.36-1.297-1.36-3.438 0-1.562.892-2.718.906-1.172 2.359-1.829 1.469-.656 3.156-.656 2.547 0 4.031.781 1.485.782 2.407 2.125l-2.625 2.516q-.766-.89-1.703-1.328-.938-.453-1.938-.453-1.016 0-1.625.344-.594.328-.594.984 0 .5.422.844.422.328 1.063.53.656.204 1.359.345 1.75.343 3.078 1 1.328.64 2.078 1.687.75 1.031.75 2.578 0 1.766-.875 3-.86 1.219-2.36 1.86-1.5.625-3.421.625zm15.24 0q-2.594 0-4.344-.875-1.75-.891-3-2.485l2.594-2.922q1.203 1.579 2.437 2.141 1.235.547 2.485.547.937 0 1.531-.328.61-.344.61-1.016 0-.578-.5-.953-.485-.39-1.235-.61-.75-.234-1.516-.406-2.78-.593-4.156-1.89-1.36-1.297-1.36-3.438 0-1.562.891-2.718.907-1.172 2.36-1.829 1.469-.656 3.156-.656 2.547 0 4.031.781 1.485.782 2.407 2.125l-2.625 2.516q-.766-.89-1.704-1.328-.937-.453-1.937-.453-1.016 0-1.625.344-.594.328-.594.984 0 .5.422.844.422.328 1.063.53.656.204 1.359.345 1.75.343 3.078 1 1.328.64 2.078 1.687.75 1.031.75 2.578 0 1.766-.875 3-.86 1.219-2.36 1.86-1.5.625-3.421.625z"/><path fill="#434343" d="M46.651 173.232h89.48v-9.431l26.362 26.362-26.362 26.362v-9.432h-89.48z" fill-rule="evenodd"/><path fill="#fff" d="M57.292 196.023V184.82h4.25q1.515 0 2.687.718 1.188.703 1.86 1.97.687 1.265.687 2.921 0 1.64-.688 2.906-.671 1.266-1.859 1.985-1.172.703-2.687.703h-4.25zm4.171-9.969h-2.906v8.734h2.906q1.157 0 2.063-.53.906-.548 1.422-1.532.515-.985.515-2.297 0-1.313-.515-2.297-.516-.984-1.422-1.531-.906-.547-2.063-.547zm10.951 10.125q-1.234 0-2.203-.563-.953-.562-1.515-1.546-.563-.985-.563-2.25 0-1.25.563-2.235.562-.984 1.515-1.547.969-.562 2.203-.562 1.235 0 2.203.562.97.563 1.516 1.547.563.985.563 2.235 0 1.265-.563 2.25-.547.984-1.516 1.546-.968.563-2.203.563zm0-1.14q.891 0 1.563-.423.687-.421 1.062-1.14.391-.735.391-1.656 0-.938-.39-1.641-.376-.719-1.063-1.125-.672-.422-1.563-.422-.875 0-1.562.422-.688.406-1.078 1.125-.375.719-.375 1.64 0 .922.375 1.657.39.719 1.078 1.14.687.422 1.562.422zm7.69.984l-2.923-8.375h1.297l2.063 6.25 2.234-4.953h.734l2.188 4.875 2.078-6.172h1.281l-2.89 8.375h-.719l-2.344-5.36-2.265 5.36h-.735zm10.367 0v-8.375h1.203l.031 1.437q.375-.672 1.188-1.14.812-.47 1.703-.47 1.39 0 2.094.86.718.86.718 2.594v5.094h-1.234v-5.016q0-2.437-1.969-2.39-.734 0-1.297.328-.562.312-.89.843-.328.516-.328 1.141v5.094h-1.22zm9.263 0v-11.844h1.219v11.844h-1.219zm7.112.156q-1.234 0-2.203-.563-.953-.562-1.515-1.546-.563-.985-.563-2.25 0-1.25.563-2.235.562-.984 1.515-1.547.969-.562 2.203-.562 1.235 0 2.204.562.968.563 1.515 1.547.563.985.563 2.235 0 1.265-.563 2.25-.547.984-1.515 1.546-.97.563-2.204.563zm0-1.14q.891 0 1.563-.423.687-.421 1.062-1.14.391-.735.391-1.656 0-.938-.39-1.641-.376-.719-1.063-1.125-.672-.422-1.563-.422-.875 0-1.562.422-.688.406-1.078 1.125-.375.719-.375 1.64 0 .922.375 1.657.39.719 1.078 1.14.687.422 1.562.422zm9.29 1.14q-1.093 0-1.984-.563-.875-.562-1.39-1.546-.5-.985-.5-2.235 0-1.265.515-2.25.531-.984 1.422-1.547.906-.562 2.016-.562 1 0 1.797.469.796.468 1.203 1.203l.03-1.5h1.22v8.375h-1.235v-1.485q-.437.703-1.28 1.172-.83.469-1.813.469zm.266-1.172q.828 0 1.485-.406.656-.406 1.03-1.125.376-.719.376-1.656 0-.922-.375-1.641t-1.031-1.125q-.657-.406-1.485-.406-.844 0-1.5.406-.64.406-1.015 1.125-.36.719-.36 1.64 0 .922.36 1.657.375.719 1.015 1.125.656.406 1.5.406zm9.795 1.172q-1.156 0-2.062-.547-.907-.562-1.422-1.547-.516-.984-.516-2.25 0-1.25.516-2.234.531-.985 1.422-1.547.906-.578 2.031-.578.953 0 1.766.453.812.437 1.25 1.062v-4.812h1.218v11.844h-1.203l-.031-1.407q-.39.657-1.219 1.11-.812.453-1.75.453zm.156-1.11q.829 0 1.485-.421.656-.422 1.031-1.14.375-.735.375-1.673 0-.953-.375-1.672-.375-.734-1.031-1.14-.656-.422-1.485-.422-.843 0-1.5.422-.656.406-1.03 1.14-.36.72-.36 1.672 0 .922.36 1.656.374.735 1.03 1.157.657.422 1.5.422z"/><path fill="#f4cccc" d="M481.88 544.792h107.127c-11.833 0-21.425 15.772-21.425 35.228 0 19.456 9.592 35.229 21.425 35.229H481.88c-11.833 0-21.425-15.773-21.425-35.229s9.592-35.228 21.425-35.228z" fill-rule="evenodd"/><path fill="none" d="M460.452 556.587h128.553v48.473H460.452z"/><path fill="#000" d="M497.115 588.627V571.83h7.125q2.47 0 4.36 1.079 1.906 1.062 2.969 2.953 1.078 1.89 1.078 4.359 0 2.484-1.078 4.375-1.063 1.89-2.97 2.969-1.89 1.062-4.359 1.062h-7.125zm7.016-13.031h-2.687v9.266h2.687q1.86 0 3-1.282 1.14-1.296 1.14-3.359 0-2.062-1.14-3.344-1.14-1.281-3-1.281zm19.343 13.266q-1.906 0-3.516-.641-1.594-.656-2.781-1.828-1.172-1.172-1.828-2.75-.64-1.594-.64-3.484 0-1.907.64-3.5.656-1.594 1.828-2.766 1.187-1.172 2.781-1.813 1.61-.656 3.516-.656 1.922 0 3.515.656 1.61.641 2.782 1.813 1.187 1.172 1.828 2.766.656 1.593.656 3.5 0 1.875-.656 3.468-.64 1.594-1.828 2.766-1.172 1.172-2.782 1.828-1.593.64-3.515.64zm0-4.032q1.265 0 2.25-.609.984-.61 1.562-1.656.578-1.063.578-2.406 0-1.375-.578-2.422-.578-1.063-1.562-1.657-.985-.609-2.25-.609-1.281 0-2.266.61-.984.593-1.547 1.656-.562 1.047-.562 2.422 0 1.343.562 2.406.563 1.047 1.547 1.656.985.61 2.266.61zm11.873 3.797V571.83h3.813l4.734 7.657 4.781-7.657h3.672v16.797h-4.203v-4.968q0-1.344.047-2.516t.14-2.266l-3.75 5.797h-1.577l-3.625-5.719q.093 1.016.125 2.172.046 1.14.046 2.532v4.968h-4.203z"/><path fill="#f4cccc" d="M162.482 313.587H283.84c-13.405 0-24.272 15.772-24.272 35.228 0 19.456 10.867 35.228 24.272 35.228H162.482c-13.405 0-24.271-15.772-24.271-35.228 0-19.456 10.866-35.228 24.271-35.228z" fill-rule="evenodd"/><path fill="none" d="M138.168 325.382H283.81v48.472H138.168z"/><path fill="#000" d="M164.86 357.656q-2.594 0-4.579-1.11-1.984-1.108-3.109-3.077-1.125-1.969-1.125-4.516 0-1.906.656-3.484.672-1.578 1.875-2.735 1.22-1.171 2.86-1.812 1.64-.656 3.593-.656 1.766 0 3.438.687 1.672.672 2.797 1.969l-2.64 3q-.673-.766-1.579-1.219-.89-.453-2.047-.453-1.265 0-2.297.578-1.015.563-1.625 1.64-.609 1.063-.609 2.532 0 2.14 1.344 3.406 1.343 1.266 3.547 1.266 1.109 0 2.078-.453.968-.453 1.625-1.172l2.078 3.281q-.594.672-1.61 1.203-1 .532-2.218.828-1.203.297-2.453.297zm14.563 0q-2.594 0-4.344-.875-1.75-.89-3-2.484l2.594-2.922q1.203 1.578 2.437 2.14 1.235.548 2.485.548.937 0 1.531-.329.61-.343.61-1.015 0-.578-.5-.953-.485-.391-1.235-.61-.75-.234-1.516-.406-2.78-.594-4.156-1.89-1.36-1.297-1.36-3.438 0-1.563.891-2.719.907-1.172 2.36-1.828 1.469-.656 3.156-.656 2.547 0 4.031.781 1.485.781 2.407 2.125l-2.625 2.516q-.766-.891-1.704-1.328-.937-.454-1.937-.454-1.016 0-1.625.344-.594.328-.594.985 0 .5.422.843.422.328 1.063.532.656.203 1.359.343 1.75.344 3.078 1 1.328.64 2.078 1.688.75 1.031.75 2.578 0 1.766-.875 3-.86 1.219-2.36 1.86-1.5.624-3.421.624zm15.24 0q-2.594 0-4.344-.875-1.75-.89-3-2.484l2.594-2.922q1.203 1.578 2.437 2.14 1.235.548 2.485.548.937 0 1.531-.329.61-.343.61-1.015 0-.578-.5-.953-.485-.391-1.235-.61-.75-.234-1.516-.406-2.78-.594-4.156-1.89-1.36-1.297-1.36-3.438 0-1.563.891-2.719.907-1.172 2.36-1.828 1.468-.656 3.156-.656 2.547 0 4.031.781 1.485.781 2.406 2.125l-2.625 2.516q-.765-.891-1.703-1.328-.937-.454-1.937-.454-1.016 0-1.625.344-.594.328-.594.985 0 .5.422.843.422.328 1.062.532.657.203 1.36.343 1.75.344 3.078 1 1.328.64 2.078 1.688.75 1.031.75 2.578 0 1.766-.875 3-.86 1.219-2.36 1.86-1.5.624-3.421.624zm17.334 0q-1.907 0-3.516-.64-1.594-.657-2.781-1.828-1.172-1.172-1.828-2.75-.641-1.594-.641-3.485 0-1.906.64-3.5.657-1.594 1.829-2.765 1.187-1.172 2.781-1.813 1.61-.656 3.516-.656 1.921 0 3.515.656 1.61.64 2.781 1.813 1.188 1.171 1.829 2.765.656 1.594.656 3.5 0 1.875-.656 3.469-.641 1.594-1.829 2.766-1.171 1.171-2.78 1.828-1.595.64-3.516.64zm0-4.031q1.265 0 2.25-.61.984-.609 1.562-1.656.578-1.062.578-2.406 0-1.375-.578-2.422-.578-1.062-1.562-1.656-.985-.61-2.25-.61-1.282 0-2.266.61-.984.594-1.547 1.656-.562 1.047-.562 2.422 0 1.344.562 2.406.563 1.047 1.547 1.657.984.609 2.266.609zm11.873 3.797v-16.797h3.813l4.734 7.656 4.781-7.656h3.672v16.797h-4.203v-4.969q0-1.344.047-2.515.047-1.172.14-2.266l-3.75 5.797h-1.578l-3.625-5.719q.094 1.016.125 2.172.047 1.14.047 2.531v4.969h-4.203z"/><path fill="none" d="M210.974 237.536l.063 76.063"/><path stroke="#666" stroke-width="2" stroke-linejoin="round" stroke-linecap="butt" d="M210.974 237.536l.053 64.063"/><path fill="#666" stroke="#666" stroke-width="2" stroke-linecap="butt" d="M207.723 301.601l3.311 9.074 3.296-9.08z" fill-rule="evenodd"/><path fill="#d2b3e0" d="M451.894 763.818h145.67v60.881h-145.67z" fill-rule="evenodd"/><path fill="#000" d="M493.205 801.178v-13.062h3.36v10.14h5.765v2.923h-9.125zm14.335.172q-1.219 0-2.203-.656-.984-.672-1.562-1.828-.563-1.172-.563-2.672 0-1.515.563-2.672.578-1.156 1.578-1.812 1-.657 2.28-.657.97 0 1.704.375.734.36 1.219.97v-1.141h3.11v9.922h-3.188v-1.141q-.5.578-1.25.953-.75.36-1.688.36zm.906-2.64q.985 0 1.547-.672.578-.688.578-1.844 0-1.14-.578-1.812-.562-.688-1.547-.688-.968 0-1.546.688-.563.672-.563 1.812 0 1.156.563 1.844.578.672 1.546.672zm8.82 6.765l2-4.672-4.406-9.546h3.563l1.937 4.625q.25.578.406 1.156.079-.188.141-.39.078-.22.172-.454l1.703-4.937h3.563l-4.235 9.922-1.703 4.296h-3.14zm15.024-4.109q-1.547 0-2.781-.672-1.22-.672-1.938-1.828-.703-1.156-.703-2.656 0-1.485.703-2.64.719-1.173 1.938-1.845 1.234-.672 2.78-.672 1.548 0 2.766.672 1.22.672 1.922 1.844.703 1.156.703 2.64 0 1.5-.703 2.657-.703 1.156-1.922 1.828-1.218.672-2.765.672zm0-2.703q.953 0 1.562-.688.61-.703.61-1.765 0-1.078-.61-1.766-.609-.703-1.562-.703-.953 0-1.578.703-.625.688-.625 1.766 0 1.062.625 1.765.625.688 1.578.688zm10.69 2.719q-1.641 0-2.579-1.047-.922-1.063-.922-2.969v-6.11h3.172v5.75q0 .829.406 1.298.407.468 1.141.468t1.203-.437q.469-.453.469-1.157v-5.921h3.172v9.922h-2.969l-.094-1.235q-.484.656-1.297 1.047-.796.39-1.703.39zm9.48-.203v-7.188h-1.72v-2.734h1.72v-2.5h3.171v2.5h1.844v2.734h-1.844v7.188h-3.172z"/><path fill="#d2b3e0" d="M451.894 674.324h145.67v60.882h-145.67z" fill-rule="evenodd"/><path fill="#000" d="M470.762 711.685v-13.062h5.921q1.297 0 2.313.546 1.016.532 1.594 1.485.593.937.593 2.125 0 1.328-.64 2.344-.64 1.015-1.735 1.562l2.922 5h-3.828l-2.562-4.531h-1.39v4.531h-3.188zm3.187-7.047h2.39q.72 0 1.126-.453.422-.453.422-1.187 0-.735-.47-1.172-.468-.438-1.312-.438h-2.156v3.25zm14.008 7.235q-1.657 0-2.89-.657-1.22-.672-1.892-1.828-.671-1.156-.671-2.625 0-1.531.656-2.687.656-1.172 1.797-1.844 1.14-.672 2.593-.672 1.391 0 2.47.656 1.093.641 1.687 1.782.593 1.14.578 2.593l-.016.797h-6.703q.25.813.938 1.281.703.454 1.812.454.61 0 1.078-.172.485-.172 1.031-.61l1.47 2.094q-.938.766-1.923 1.11-.984.328-2.015.328zm-.36-7.704q-1.687 0-2.062 1.532h3.844v-.016q-.047-.656-.547-1.078-.485-.438-1.235-.438zm6.558 7.516v-9.922h2.969l.062 1.156q.531-.625 1.313-.984.797-.375 1.672-.375 1.687 0 2.562 1.031.89 1.032.89 3v6.094h-3.171v-5.844q0-1.672-1.438-1.64-.734 0-1.218.453-.485.453-.485 1.094v5.937h-3.156zm15.665.203q-1.266 0-2.266-.656-.984-.672-1.562-1.828-.579-1.172-.579-2.688 0-1.484.579-2.64.578-1.172 1.578-1.844 1-.672 2.297-.672.828 0 1.578.313.765.312 1.265.812v-4.812h3.172v13.812h-2.906l-.094-1.047q-.484.547-1.297.906-.812.344-1.765.344zm.843-2.61q.985 0 1.547-.687.579-.687.579-1.875 0-1.156-.579-1.843-.562-.688-1.547-.688-.968 0-1.546.688-.563.687-.563 1.843 0 1.188.563 1.875.578.688 1.546.688zm12.46 2.595q-1.655 0-2.89-.657-1.219-.672-1.89-1.828-.672-1.156-.672-2.625 0-1.531.656-2.687.656-1.172 1.797-1.844 1.14-.672 2.594-.672 1.39 0 2.468.656 1.094.641 1.688 1.782.594 1.14.578 2.593l-.016.797h-6.703q.25.813.938 1.281.703.454 1.812.454.61 0 1.078-.172.485-.172 1.032-.61l1.468 2.094q-.937.766-1.922 1.11-.984.328-2.015.328zm-.359-7.704q-1.687 0-2.062 1.532h3.844v-.016q-.047-.656-.547-1.078-.485-.438-1.235-.438zm6.558 7.516v-9.922h2.984l.047 1.469q.516-.75 1.281-1.203.782-.469 1.657-.469.312 0 .61.063.296.046.546.125l-.86 3.484q-.203-.11-.562-.203-.36-.11-.766-.11-.78 0-1.28.516-.485.516-.485 1.36v4.89h-3.172zm15.488 0v-7.187h-1.718v-2.735h1.718v-2.5h3.172v2.5h1.844v2.735h-1.844v7.187h-3.172zm6.732 0v-9.922h2.984l.047 1.469q.515-.75 1.281-1.203.781-.469 1.656-.469.313 0 .61.063.297.046.547.125l-.86 3.484q-.203-.11-.562-.203-.36-.11-.766-.11-.781 0-1.281.516-.485.516-.485 1.36v4.89h-3.171zm12.961.188q-1.656 0-2.89-.657-1.22-.672-1.891-1.828-.672-1.156-.672-2.625 0-1.531.656-2.687.656-1.172 1.797-1.844 1.14-.672 2.594-.672 1.39 0 2.469.656 1.093.641 1.687 1.782.594 1.14.578 2.593l-.015.797h-6.704q.25.813.938 1.281.703.454 1.812.454.61 0 1.079-.172.484-.172 1.03-.61l1.47 2.094q-.938.766-1.922 1.11-.985.328-2.016.328zm-.36-7.704q-1.687 0-2.062 1.532h3.844v-.016q-.047-.656-.547-1.078-.484-.438-1.234-.438zm11.293 7.704q-1.657 0-2.89-.657-1.22-.672-1.892-1.828-.671-1.156-.671-2.625 0-1.531.656-2.687.656-1.172 1.797-1.844 1.14-.672 2.593-.672 1.391 0 2.47.656 1.093.641 1.687 1.782.593 1.14.578 2.593l-.016.797h-6.703q.25.813.938 1.281.703.454 1.812.454.61 0 1.078-.172.485-.172 1.031-.61l1.47 2.094q-.938.766-1.923 1.11-.984.328-2.015.328zm-.36-7.704q-1.687 0-2.062 1.532h3.844v-.016q-.047-.656-.547-1.078-.485-.438-1.235-.438z"/><path fill="#9ccfa1" d="M451.894 853.311h145.67v60.882h-145.67z" fill-rule="evenodd"/><path fill="#000" d="M501.2 890.672v-13.063h5.687q1.25 0 2.234.563.984.562 1.547 1.547.578.969.578 2.219 0 1.296-.578 2.312-.563 1-1.547 1.594-.984.578-2.234.578h-2.328v4.25h-3.36zm3.296-7.188h1.89q.594 0 1-.406.407-.422.407-1.094 0-.671-.406-1.046-.407-.391-1-.391h-1.891v2.937zm12.288 7.36q-1.218 0-2.203-.656-.984-.672-1.562-1.829-.563-1.171-.563-2.671 0-1.516.563-2.672.578-1.157 1.578-1.813 1-.656 2.281-.656.969 0 1.703.375.735.36 1.219.969v-1.14h3.11v9.92h-3.188v-1.14q-.5.578-1.25.953-.75.36-1.688.36zm.907-2.64q.984 0 1.546-.673.579-.687.579-1.843 0-1.141-.579-1.813-.562-.687-1.546-.687-.97 0-1.547.687-.563.672-.563 1.813 0 1.156.563 1.843.578.672 1.547.672zm9.637-9.376q-.875 0-1.36-.422-.483-.422-.483-1.187 0-.688.484-1.125.5-.453 1.36-.453.874 0 1.374.422.5.406.5 1.156 0 .703-.5 1.156-.5.453-1.375.453zm-1.562 11.844v-9.922h3.156v9.922h-3.156zm5.972 0v-9.922h2.969l.062 1.156q.531-.625 1.313-.984.797-.375 1.672-.375 1.687 0 2.562 1.031.89 1.031.89 3v6.094h-3.171v-5.844q0-1.672-1.438-1.64-.734 0-1.218.453-.485.453-.485 1.093v5.938h-3.156zm12.727 0v-7.188h-1.719v-2.734h1.72v-2.5h3.171v2.5h1.844v2.734h-1.844v7.188h-3.172z"/><path fill="none" d="M524.729 735.206v28.598"/><path stroke="#666" stroke-width="2" stroke-linejoin="round" stroke-linecap="butt" d="M524.729 735.206v16.598"/><path fill="#666" stroke="#666" stroke-width="2" stroke-linecap="butt" d="M521.426 751.804l3.303 9.077 3.303-9.077z" fill-rule="evenodd"/><path fill="none" d="M524.729 824.7v28.598"/><path stroke="#666" stroke-width="2" stroke-linejoin="round" stroke-linecap="butt" d="M524.729 824.7v16.598"/><path fill="#666" stroke="#666" stroke-width="2" stroke-linecap="butt" d="M521.426 841.298l3.303 9.076 3.303-9.076z" fill-rule="evenodd"/><path fill="none" d="M211.025 384.043v263.181h308.756"/><path stroke="#666" stroke-width="2" stroke-linejoin="round" stroke-linecap="butt" d="M211.025 384.043v263.181h308.756"/><path fill="none" d="M524.73 615.249v11.703h.064v11.698"/><path stroke="#666" stroke-width="2" stroke-linejoin="round" stroke-linecap="butt" d="M524.73 615.249v11.703h.064v11.698"/><path fill="none" d="M524.727 524.01v10.391h.063v10.397"/><path stroke="#666" stroke-width="2" stroke-linejoin="round" stroke-linecap="butt" d="M524.727 524.01v8.788"/><path fill="#666" stroke="#666" stroke-width="2" stroke-linecap="butt" d="M521.424 532.815l3.35 9.06 3.256-9.094z" fill-rule="evenodd"/><path fill="none" d="M514.815 114.419H210.972v38.362"/><path stroke="#666" stroke-width="2" stroke-linejoin="round" stroke-linecap="butt" d="M514.815 114.419H210.972v26.362"/><path fill="#666" stroke="#666" stroke-width="2" stroke-linecap="butt" d="M207.669 140.78l3.303 9.077 3.304-9.076z" fill-rule="evenodd"/><path fill="#c9daf8" d="M456.67 10.068h136.12v72.77c-68.06 0-68.06 27.728-136.12 11.974z" fill-rule="evenodd"/><path fill="#000" d="M491.512 54.994V38.197h4.329v6.5h6v-6.5h4.312v16.797h-4.312V48.54h-6v6.454h-4.329zm22.487 0V41.962h-5.016v-3.765h14.5v3.765h-5.156v13.032H514zm12.313 0V38.197h3.813l4.734 7.656 4.781-7.656h3.672v16.797h-4.203v-4.97q0-1.343.047-2.515.047-1.172.14-2.265l-3.75 5.796h-1.577l-3.625-5.718q.093 1.015.125 2.172.046 1.14.046 2.53v4.97h-4.203zm21.12 0V38.197h4.328v13.03h7.407v3.767h-11.735z"/><path fill="none" d="M531.87 615.136h136.126v61.418H531.87z"/><path fill="#000" d="M544.98 640.777l-3.672-12.125h1.468l2.344 7.984q.188.64.313 1.187.14.532.234 1.047.156-.531.281-.906.125-.375.235-.688.109-.312.265-.703l2.047-5.171h1.281l2.078 5.234q.25.594.422 1.11.188.5.36 1.093.093-.422.14-.688.047-.265.14-.593.095-.344.298-1.016l2.328-7.89h1.484l-3.703 12.125h-1.125l-3.11-7.407-3 7.407h-1.109zm16.837.171q-1.172 0-2.125-.609-.954-.625-1.516-1.688-.547-1.062-.547-2.421 0-1.36.563-2.422.578-1.078 1.546-1.672.97-.61 2.172-.61 1.094 0 1.938.5.86.5 1.312 1.297l.032-1.609h1.328v9.063h-1.344v-1.61q-.484.766-1.39 1.281-.891.5-1.97.5zm.296-1.265q.907 0 1.61-.438.719-.437 1.125-1.218.406-.782.406-1.813 0-.984-.406-1.766-.406-.78-1.125-1.218-.703-.438-1.61-.438-.921 0-1.625.438-.703.437-1.109 1.218-.39.782-.39 1.766 0 1.016.39 1.813.406.78 1.11 1.218.703.438 1.624.438zm7.744-9.906q-.485 0-.75-.25-.25-.25-.25-.704 0-.437.25-.687.265-.266.75-.266.469 0 .719.25.265.25.265.703 0 .438-.265.704-.25.25-.72.25zm-.656 11v-9.063h1.328v9.063H569.2zm5.219 0v-7.797h-2.031v-1.266h2.031v-2.36h1.313v2.36h2.265v1.266h-2.265v7.797h-1.313zm11.08 0v-7.766h-1.61v-1.203h1.61v-1.485q0-1 .655-1.656.672-.656 1.766-.656.547 0 1 .203.453.188.75.531l-.469 1.032q-.28-.282-.593-.407-.313-.14-.61-.14-1.156 0-1.156 1.109v1.469h2.297v1.203h-2.297v7.766h-1.344zm9.189.171q-1.329 0-2.375-.609-1.047-.625-1.657-1.688-.609-1.062-.609-2.437 0-1.344.61-2.406.609-1.078 1.656-1.672 1.046-.61 2.375-.61 1.343 0 2.39.61 1.047.594 1.64 1.672.595 1.062.595 2.406 0 1.375-.594 2.438-.594 1.062-1.64 1.687-1.048.61-2.391.61zm0-1.25q.953 0 1.687-.437.734-.453 1.156-1.234.422-.797.422-1.813 0-1-.422-1.766-.422-.78-1.156-1.218-.734-.453-1.687-.453-.954 0-1.704.453-.734.437-1.156 1.218-.406.782-.406 1.766 0 1.016.406 1.813.422.78 1.156 1.234.75.437 1.704.437zm6.518 1.079v-9.063h1.312l.016 1.75q.375-.813 1.11-1.375.75-.563 1.702-.563.297 0 .547.047.266.047.438.11l-.36 1.469q-.453-.188-.906-.188-.781 0-1.36.375-.562.375-.874.984-.297.594-.297 1.329v5.125h-1.328zm11.848 0v-12.125h4.594q1.64 0 2.906.765 1.281.766 2.015 2.14.75 1.376.75 3.157 0 1.781-.75 3.156-.734 1.36-2.015 2.14-1.266.767-2.906.767h-4.594zm4.515-10.797h-3.14v9.468h3.14q1.266 0 2.235-.593.984-.594 1.531-1.657.563-1.062.563-2.484t-.563-2.484q-.547-1.063-1.531-1.657-.969-.593-2.235-.593zm13.393 10.968q-1.282 0-2.375-.453-1.094-.468-1.891-1.297-.797-.843-1.25-1.984-.438-1.14-.438-2.484 0-1.328.438-2.47.453-1.14 1.25-1.968.797-.844 1.89-1.312 1.094-.47 2.376-.47 1.28 0 2.375.47 1.093.468 1.89 1.312.813.828 1.25 1.969.438 1.14.438 2.469 0 1.343-.438 2.484-.437 1.14-1.25 1.984-.797.829-1.89 1.297-1.094.453-2.375.453zm0-1.343q1.312 0 2.328-.625 1.03-.625 1.609-1.72.594-1.108.594-2.53 0-1.407-.594-2.5-.578-1.11-1.61-1.735-1.015-.64-2.327-.64-1.329 0-2.344.64-1.016.625-1.61 1.735-.578 1.093-.578 2.5 0 1.422.578 2.53.594 1.095 1.61 1.72 1.015.625 2.344.625zm8.586 1.172v-12.125h1.344l4.328 7.046 4.407-7.046h1.218v12.125h-1.36v-5.532q0-1.234.032-2.25.031-1.015.11-1.984l-4 6.25h-.922l-3.922-6.25q.094.906.11 1.922.03 1.015.03 2.312v5.532h-1.375zM546.26 661.748q-1.296 0-2.327-.5-1.016-.515-1.61-1.39-.594-.89-.594-2 0-1.235.657-2.188.672-.969 1.953-1.531-.563-.922-.563-1.719 0-.89.453-1.594.47-.703 1.266-1.109.813-.406 1.86-.406 1.187 0 2.109.625.922.625 1.25 1.61l-1.047.655q-.344-.89-.922-1.265-.562-.375-1.375-.375-1.031 0-1.594.469-.562.468-.562 1.343 0 .563.344 1.157.359.593.828 1.156l.843.953 2.641 2.906q.688-1.11.906-2.672h1.282q-.282 2.141-1.344 3.61l1.937 2.093h-1.78l-1.063-1.109q-.704.61-1.594.953-.89.328-1.953.328zm-3.124-4.078q0 .828.437 1.469.438.64 1.188 1t1.734.36q.734 0 1.36-.235.64-.25 1.14-.703l-3.016-3.328q-.25-.282-.484-.563-.234-.281-.453-.515-1.906.687-1.906 2.515zm21.857 4.078q-1.734 0-3.093-.797-1.344-.796-2.11-2.203-.765-1.422-.765-3.234 0-1.313.453-2.438.453-1.14 1.25-1.968.812-.828 1.89-1.297 1.094-.469 2.36-.469.843 0 1.672.281.843.282 1.53.75.704.453 1.157 1.063l-.937.984q-.657-.797-1.579-1.25-.906-.453-1.843-.453-1.297 0-2.328.625-1.016.625-1.61 1.703-.594 1.078-.594 2.469 0 1.437.594 2.547.61 1.094 1.656 1.703 1.063.594 2.454.594.953 0 1.843-.39.89-.392 1.422-1.032l.703 1.156q-.422.484-1.093.86-.657.359-1.454.578-.78.218-1.578.218zm10.263 0q-2.844 0-4.438-2.328l.953-1.047q.813 1.157 1.672 1.625.86.47 1.906.47.797 0 1.422-.25.64-.267 1-.72.375-.468.375-1.078 0-.984-.828-1.484t-2.297-.86q-1.765-.406-2.703-1.187-.922-.797-.922-2.266 0-.953.532-1.703.53-.75 1.421-1.172.907-.437 2.032-.437 1.406 0 2.375.578.968.562 1.593 1.562l-.968.97q-.547-.86-1.297-1.345-.75-.484-1.735-.484-1.125 0-1.843.563-.72.562-.72 1.453 0 .86.657 1.343.656.485 2.172.813 1.797.422 2.844 1.219 1.062.797 1.062 2.187 0 1.047-.531 1.86-.531.812-1.5 1.265-.953.453-2.234.453zm10.552 0q-2.843 0-4.437-2.328l.953-1.047q.812 1.157 1.672 1.625.86.47 1.906.47.797 0 1.422-.25.64-.267 1-.72.375-.468.375-1.078 0-.984-.828-1.484t-2.297-.86q-1.766-.406-2.703-1.187-.922-.797-.922-2.266 0-.953.531-1.703.531-.75 1.422-1.172.906-.437 2.031-.437 1.407 0 2.375.578.97.562 1.594 1.562l-.969.97q-.547-.86-1.297-1.345-.75-.484-1.734-.484-1.125 0-1.844.563-.718.562-.718 1.453 0 .86.656 1.343.656.485 2.172.813 1.797.422 2.843 1.219 1.063.797 1.063 2.187 0 1.047-.531 1.86-.532.812-1.5 1.265-.953.453-2.235.453zm12.006 0q-1.281 0-2.375-.453-1.093-.469-1.89-1.297-.797-.843-1.25-1.984-.438-1.14-.438-2.484 0-1.329.438-2.47.453-1.14 1.25-1.968.797-.844 1.89-1.312 1.094-.47 2.375-.47 1.282 0 2.375.47 1.094.468 1.89 1.312.813.828 1.25 1.969.438 1.14.438 2.469 0 1.343-.437 2.484-.438 1.14-1.25 1.984-.797.828-1.89 1.297-1.094.453-2.376.453zm0-1.343q1.313 0 2.328-.625 1.032-.625 1.61-1.72.594-1.109.594-2.53 0-1.407-.594-2.5-.578-1.11-1.61-1.735-1.015-.64-2.328-.64-1.328 0-2.343.64-1.016.625-1.61 1.735-.578 1.093-.578 2.5 0 1.421.578 2.53.594 1.095 1.61 1.72 1.015.625 2.343.625zm8.587 1.171v-12.125h1.344l4.328 7.047 4.406-7.047h1.219v12.125h-1.36v-5.53q0-1.235.032-2.25.031-1.016.11-1.985l-4 6.25h-.923l-3.921-6.25q.093.906.109 1.922.031 1.015.031 2.312v5.531h-1.375z"/><path fill="#434343" d="M354.173 30.369h89.48v-9.432l26.363 26.362-26.362 26.362V64.23h-89.48z" fill-rule="evenodd"/><path fill="#fff" d="M364.814 53.16V41.955h4.25q1.515 0 2.687.719 1.188.703 1.86 1.969.687 1.265.687 2.921 0 1.641-.687 2.907-.672 1.265-1.86 1.984-1.172.703-2.687.703h-4.25zm4.172-9.97h-2.907v8.735h2.907q1.156 0 2.062-.531.906-.547 1.422-1.532.516-.984.516-2.297 0-1.312-.516-2.296-.516-.985-1.422-1.532-.906-.547-2.062-.547zm10.95 10.125q-1.234 0-2.203-.562-.953-.563-1.515-1.547-.563-.984-.563-2.25 0-1.25.563-2.234.562-.985 1.515-1.547.97-.563 2.204-.563 1.234 0 2.203.563.968.562 1.515 1.547.563.984.563 2.234 0 1.266-.563 2.25-.547.984-1.515 1.547-.97.562-2.203.562zm0-1.14q.891 0 1.563-.422.688-.422 1.063-1.14.39-.735.39-1.657 0-.937-.39-1.64-.375-.72-1.063-1.126-.672-.421-1.562-.421-.875 0-1.563.421-.687.407-1.078 1.125-.375.72-.375 1.641 0 .922.375 1.656.39.72 1.078 1.141.688.422 1.563.422zm7.69.984l-2.922-8.375H386l2.063 6.25 2.234-4.953h.735l2.187 4.875 2.078-6.172h1.282l-2.891 8.375h-.719l-2.344-5.36-2.265 5.36h-.735zm10.367 0v-8.375h1.203l.031 1.438q.375-.672 1.188-1.14.812-.47 1.703-.47 1.39 0 2.094.86.719.86.719 2.593v5.094h-1.235v-5.015q0-2.438-1.969-2.391-.734 0-1.296.328-.563.313-.891.844-.328.515-.328 1.14v5.094h-1.219zm9.263 0V41.315h1.22V53.16h-1.22zm7.113.156q-1.235 0-2.203-.562-.954-.563-1.516-1.547-.563-.984-.563-2.25 0-1.25.563-2.234.562-.985 1.516-1.547.968-.563 2.203-.563 1.234 0 2.203.563.969.562 1.515 1.547.563.984.563 2.234 0 1.266-.563 2.25-.546.984-1.515 1.547-.969.562-2.203.562zm0-1.14q.89 0 1.562-.422.688-.422 1.063-1.14.39-.735.39-1.657 0-.937-.39-1.64-.375-.72-1.063-1.126-.672-.421-1.562-.421-.875 0-1.563.421-.687.407-1.078 1.125-.375.72-.375 1.641 0 .922.375 1.656.39.72 1.078 1.141.688.422 1.563.422zm9.29 1.14q-1.094 0-1.985-.562-.875-.563-1.39-1.547-.5-.984-.5-2.234 0-1.266.515-2.25.532-.985 1.422-1.547.907-.563 2.016-.563 1 0 1.797.47.797.468 1.203 1.202l.031-1.5h1.219v8.375h-1.234v-1.484q-.438.703-1.282 1.172-.828.468-1.812.468zm.265-1.171q.829 0 1.485-.407.656-.406 1.031-1.125.375-.718.375-1.656 0-.922-.375-1.64-.375-.72-1.031-1.126-.656-.406-1.485-.406-.843 0-1.5.406-.64.407-1.015 1.125-.36.72-.36 1.641 0 .922.36 1.656.375.72 1.015 1.125.657.407 1.5.407zm9.795 1.171q-1.156 0-2.062-.546-.906-.563-1.422-1.547-.516-.985-.516-2.25 0-1.25.516-2.235.531-.984 1.422-1.547.906-.578 2.031-.578.953 0 1.766.453.812.438 1.25 1.063v-4.813h1.219V53.16h-1.204l-.03-1.406q-.391.656-1.22 1.11-.812.452-1.75.452zm.157-1.109q.828 0 1.484-.422t1.031-1.14q.375-.735.375-1.672 0-.953-.375-1.672-.375-.735-1.03-1.14-.657-.423-1.485-.423-.844 0-1.5.422-.657.406-1.032 1.14-.359.72-.359 1.673 0 .922.36 1.656.374.734 1.03 1.156.657.422 1.5.422z"/><path fill="#fff2cc" d="M514.815 638.655l9.913 17.147 9.913-17.147z" fill-rule="evenodd"/><path stroke="#000" stroke-linejoin="round" stroke-linecap="butt" d="M514.815 638.655l9.913 17.147 9.913-17.147z"/><path fill="#fff2cc" d="M514.815 114.419l9.921-9.922 9.921 9.922-9.92 9.92z" fill-rule="evenodd"/><path stroke="#000" stroke-linejoin="round" stroke-linecap="butt" d="M514.815 114.419l9.921-9.922 9.921 9.922-9.92 9.92z"/><path fill="none" d="M524.728 655.802v9.26h.063v9.26"/><path stroke="#666" stroke-width="2" stroke-linejoin="round" stroke-linecap="butt" d="M524.728 655.802v6.52"/><path fill="#666" stroke="#666" stroke-width="2" stroke-linecap="butt" d="M521.425 662.34l3.35 9.058 3.256-9.094z" fill-rule="evenodd"/><path fill="#c9daf8" d="M336.352 217.108h136.12v72.77c-68.06 0-68.06 27.727-136.12 11.973z" fill-rule="evenodd"/><path fill="#000" d="M395.046 262.267q-1.891 0-3.266-.797-1.36-.812-2.125-2.218l2.453-2.516q.61.875 1.172 1.281.578.39 1.266.39.812 0 1.296-.546.5-.562.5-1.437v-7.454h-3.093v-3.734h9.89v3.734h-2.594v7.954q0 1.656-.734 2.859-.734 1.187-1.969 1.844-1.234.64-2.796.64zm17.477 0q-2.593 0-4.343-.875-1.75-.89-3-2.484l2.593-2.922q1.203 1.578 2.438 2.14 1.234.548 2.484.548.938 0 1.531-.329.61-.343.61-1.015 0-.578-.5-.953-.485-.391-1.235-.61-.75-.234-1.515-.406-2.781-.594-4.156-1.89-1.36-1.297-1.36-3.438 0-1.563.89-2.719.907-1.172 2.36-1.828 1.469-.656 3.156-.656 2.547 0 4.032.781 1.484.781 2.406 2.125l-2.625 2.516q-.766-.891-1.703-1.328-.938-.454-1.938-.454-1.015 0-1.625.344-.593.328-.593.985 0 .5.421.843.422.328 1.063.532.656.203 1.36.343 1.75.344 3.077 1 1.329.64 2.079 1.688.75 1.031.75 2.578 0 1.766-.875 3-.86 1.219-2.36 1.86-1.5.624-3.422.624z"/><path fill="#434343" d="M255.874 240.254h89.48v-9.431l26.363 26.362-26.363 26.362v-9.431h-89.48z" fill-rule="evenodd"/><path fill="#fff" d="M266.515 263.045v-11.203h4.25q1.515 0 2.687.719 1.188.703 1.86 1.968.687 1.266.687 2.922 0 1.64-.687 2.907-.672 1.265-1.86 1.984-1.172.703-2.687.703h-4.25zm4.172-9.969h-2.907v8.735h2.907q1.156 0 2.062-.532.906-.546 1.422-1.53.516-.985.516-2.298 0-1.312-.516-2.297-.516-.984-1.422-1.53-.906-.548-2.062-.548zm10.95 10.125q-1.234 0-2.203-.562-.953-.563-1.515-1.547-.563-.984-.563-2.25 0-1.25.563-2.234.562-.985 1.515-1.547.969-.563 2.203-.563 1.235 0 2.204.563.968.562 1.515 1.547.563.984.563 2.234 0 1.266-.563 2.25-.547.984-1.515 1.547-.97.562-2.204.562zm0-1.14q.891 0 1.563-.422.687-.422 1.062-1.14.391-.735.391-1.657 0-.938-.39-1.64-.376-.72-1.063-1.126-.672-.422-1.563-.422-.875 0-1.562.422-.688.407-1.078 1.125-.375.719-.375 1.64 0 .923.375 1.657.39.719 1.078 1.14.687.423 1.562.423zm7.69.984l-2.923-8.375h1.297l2.063 6.25 2.234-4.953h.735l2.187 4.875 2.078-6.172h1.281l-2.89 8.375h-.719l-2.344-5.36-2.265 5.36h-.735zm10.367 0v-8.375h1.203l.031 1.438q.375-.672 1.188-1.141.812-.469 1.703-.469 1.39 0 2.094.86.718.859.718 2.593v5.094h-1.234v-5.016q0-2.437-1.969-2.39-.734 0-1.297.328-.562.312-.89.844-.328.515-.328 1.14v5.094h-1.22zm9.263 0v-11.844h1.219v11.844h-1.219zm7.112.156q-1.234 0-2.203-.562-.953-.563-1.515-1.547-.563-.984-.563-2.25 0-1.25.563-2.234.562-.985 1.515-1.547.97-.563 2.203-.563 1.235 0 2.204.563.968.562 1.515 1.547.563.984.563 2.234 0 1.266-.563 2.25-.547.984-1.515 1.547-.97.562-2.204.562zm0-1.14q.891 0 1.563-.422.687-.422 1.062-1.14.391-.735.391-1.657 0-.938-.39-1.64-.376-.72-1.063-1.126-.672-.422-1.563-.422-.875 0-1.562.422-.688.407-1.078 1.125-.375.719-.375 1.64 0 .923.375 1.657.39.719 1.078 1.14.687.423 1.562.423zm9.29 1.14q-1.093 0-1.984-.562-.875-.563-1.39-1.547-.5-.984-.5-2.234 0-1.266.515-2.25.531-.985 1.422-1.547.906-.563 2.016-.563 1 0 1.797.469.796.469 1.203 1.203l.031-1.5h1.219v8.375h-1.235v-1.484q-.437.703-1.28 1.172-.829.468-1.813.468zm.266-1.172q.828 0 1.485-.406.656-.406 1.03-1.125.376-.719.376-1.656 0-.922-.375-1.64-.375-.72-1.031-1.126-.657-.406-1.485-.406-.844 0-1.5.406-.64.407-1.015 1.125-.36.719-.36 1.64 0 .923.36 1.657.375.719 1.015 1.125.656.406 1.5.406zm9.795 1.172q-1.156 0-2.062-.547-.906-.562-1.422-1.546-.516-.985-.516-2.25 0-1.25.516-2.235.531-.984 1.422-1.547.906-.578 2.031-.578.953 0 1.766.453.812.438 1.25 1.063V251.2h1.218v11.844h-1.203l-.031-1.406q-.39.656-1.219 1.11-.812.452-1.75.452zm.157-1.11q.828 0 1.484-.421.656-.422 1.031-1.14.375-.735.375-1.672 0-.954-.375-1.672-.375-.735-1.031-1.141-.656-.422-1.484-.422-.844 0-1.5.422-.657.406-1.032 1.14-.36.72-.36 1.673 0 .921.36 1.656.375.734 1.032 1.156.656.422 1.5.422z"/><path fill="#fff2cc" d="M331.595 485.003h145.67v60.882h-145.67z" fill-rule="evenodd"/><path fill="#000" d="M382.057 511.551q-2.016 0-3.375-.687-1.36-.688-2.328-1.922l2.015-2.282q.938 1.235 1.89 1.672.97.422 1.938.422.719 0 1.188-.265.469-.266.469-.782 0-.453-.391-.75-.375-.297-.953-.468-.578-.188-1.172-.313-2.172-.469-3.234-1.469-1.063-1.015-1.063-2.672 0-1.218.703-2.109.703-.906 1.828-1.422 1.14-.515 2.453-.515 1.97 0 3.125.609 1.172.61 1.875 1.64l-2.03 1.97q-.595-.688-1.329-1.032-.734-.36-1.516-.36-.78 0-1.25.266-.468.266-.468.766 0 .39.328.656t.828.422q.516.156 1.047.266 1.36.265 2.39.765 1.047.5 1.625 1.313.579.812.579 2.015 0 1.375-.672 2.329-.672.953-1.844 1.453-1.156.484-2.656.484zm11.565 0q-1.469 0-2.625-.672-1.14-.672-1.812-1.828-.657-1.172-.657-2.656 0-1.485.657-2.64.672-1.173 1.812-1.845 1.156-.671 2.625-.671 1.328 0 2.438.453 1.125.453 1.78 1.28l-1.718 2.048q-.375-.453-.937-.75-.563-.297-1.282-.297-1 0-1.64.687-.625.672-.625 1.72 0 1.03.625 1.734.64.687 1.64.687.72 0 1.266-.266.547-.265.953-.75l1.703 2.063q-.656.781-1.781 1.25-1.125.453-2.422.453zm5.83-.187v-9.922h2.984l.047 1.468q.516-.75 1.282-1.203.78-.468 1.656-.468.312 0 .61.062.296.047.546.125l-.86 3.484q-.202-.109-.562-.203-.36-.11-.765-.11-.782 0-1.282.517-.484.515-.484 1.359v4.89h-3.172zm10.404-11.844q-.875 0-1.36-.422-.484-.422-.484-1.188 0-.687.484-1.125.5-.453 1.36-.453.875 0 1.375.422.5.406.5 1.156 0 .704-.5 1.157-.5.453-1.375.453zm-1.563 11.844v-9.922h3.156v9.922h-3.156zm5.972 4.109v-14.031h2.985l.046 1.015q.485-.53 1.282-.86.812-.343 1.75-.343 1.265 0 2.234.656.984.641 1.547 1.813.578 1.172.578 2.672 0 1.484-.578 2.656-.563 1.156-1.563 1.828-.984.656-2.265.656-.828 0-1.578-.312-.75-.313-1.266-.813v5.063h-3.172zm5.219-6.594q.953 0 1.531-.672t.578-1.812q0-1.156-.578-1.828-.562-.672-1.531-.672-.984 0-1.563.672-.578.672-.578 1.828 0 1.14.578 1.812.579.672 1.563.672zm7.9 2.485v-7.188h-1.718v-2.734h1.718v-2.5h3.172v2.5h1.844v2.734h-1.844v7.188h-3.172zM359.09 533.364V520.3h9.25v2.813h-6.015v2.265h5.219v2.688h-5.219v2.484h6.235v2.813h-9.47zm10.877 0l3.594-5.079-3.5-4.843h3.766l1.672 2.578 1.312-2.578h3.735l-3.407 4.89 3.563 5.032h-3.75l-1.766-2.782-1.515 2.782h-3.704zm16.58.187q-1.656 0-2.89-.656-1.22-.672-1.891-1.828-.672-1.157-.672-2.625 0-1.532.656-2.688.656-1.172 1.797-1.844 1.14-.671 2.594-.671 1.39 0 2.468.656 1.094.64 1.688 1.781.594 1.14.578 2.594l-.016.797h-6.703q.25.812.938 1.281.703.453 1.812.453.61 0 1.078-.172.485-.172 1.032-.61l1.468 2.095q-.937.765-1.922 1.109-.984.328-2.015.328zm-.36-7.703q-1.687 0-2.062 1.531h3.844v-.015q-.047-.657-.547-1.079-.485-.437-1.235-.437zm10.933 7.703q-1.469 0-2.625-.672-1.14-.672-1.812-1.828-.657-1.172-.657-2.656 0-1.485.657-2.64.671-1.173 1.812-1.845 1.156-.671 2.625-.671 1.328 0 2.438.453 1.125.453 1.78 1.281l-1.718 2.047q-.375-.453-.937-.75-.563-.297-1.282-.297-1 0-1.64.687-.625.672-.625 1.72 0 1.03.625 1.734.64.687 1.64.687.719 0 1.266-.266.547-.265.953-.75l1.703 2.063q-.656.781-1.781 1.25-1.125.453-2.422.453zm9.19.016q-1.641 0-2.579-1.047-.922-1.063-.922-2.969v-6.11h3.172v5.75q0 .829.407 1.298.406.468 1.14.468.735 0 1.203-.437.469-.453.469-1.156v-5.922h3.172v9.922h-2.969l-.094-1.235q-.484.656-1.296 1.047-.797.39-1.704.39zm9.48-.203v-7.188h-1.72v-2.734h1.72v-2.5h3.171v2.5h1.844v2.734h-1.844v7.188h-3.172zm8.496-11.844q-.875 0-1.36-.422-.484-.422-.484-1.188 0-.687.485-1.125.5-.453 1.359-.453.875 0 1.375.422.5.406.5 1.156 0 .704-.5 1.157-.5.453-1.375.453zm-1.562 11.844v-9.922h3.156v9.922h-3.156zm10.675.187q-1.547 0-2.782-.672-1.218-.672-1.937-1.828-.703-1.156-.703-2.656 0-1.485.703-2.64.719-1.173 1.937-1.845 1.235-.671 2.782-.671t2.765.671q1.22.672 1.922 1.844.703 1.156.703 2.64 0 1.5-.703 2.657-.703 1.156-1.922 1.828-1.218.672-2.765.672zm0-2.703q.953 0 1.562-.688.61-.703.61-1.765 0-1.078-.61-1.766-.61-.703-1.562-.703-.953 0-1.578.703-.625.688-.625 1.766 0 1.062.625 1.765.625.688 1.578.688zm7.33 2.516v-9.922h2.969l.062 1.156q.531-.625 1.313-.984.797-.375 1.672-.375 1.687 0 2.562 1.03.89 1.032.89 3v6.095h-3.171v-5.844q0-1.672-1.438-1.64-.734 0-1.218.452-.485.453-.485 1.094v5.938h-3.156z"/><path fill="#fff2cc" d="M514.873 180.528l9.921-9.922 9.921 9.922-9.921 9.92z" fill-rule="evenodd"/><path stroke="#000" stroke-linejoin="round" stroke-linecap="butt" d="M514.873 180.528l9.921-9.922 9.921 9.922-9.921 9.92z"/><path fill="none" d="M514.873 180.528H404.416v36.566"/><path stroke="#666" stroke-width="2" stroke-linejoin="round" stroke-linecap="butt" d="M514.873 180.528H404.416v24.566"/><path fill="#666" stroke="#666" stroke-width="2" stroke-linecap="butt" d="M401.113 205.094l3.303 9.077 3.303-9.077z" fill-rule="evenodd"/><path fill="none" d="M404.41 452.43l.032 32.567"/><path stroke="#666" stroke-width="2" stroke-linejoin="round" stroke-linecap="butt" d="M404.41 452.43l.02 20.567"/><path fill="#666" stroke="#666" stroke-width="2" stroke-linecap="butt" d="M401.127 473l3.312 9.074 3.295-9.08z" fill-rule="evenodd"/><path fill="none" d="M477.264 515.444h19.448v.063h19.45"/><path stroke="#666" stroke-width="2" stroke-linejoin="round" stroke-linecap="butt" d="M477.264 515.444h19.448v.063h7.45"/><path fill="#666" stroke="#666" stroke-width="2" stroke-linecap="butt" d="M504.162 518.81l9.076-3.303-9.076-3.304z" fill-rule="evenodd"/><path fill="#fff2cc" d="M516.16 515.444a8.567 8.567 0 0117.134 0 8.567 8.567 0 01-17.134 0z" fill-rule="evenodd"/><path stroke="#000" stroke-linejoin="round" stroke-linecap="butt" d="M516.16 515.444h0a8.567 8.567 0 018.567-8.567h0a8.567 8.567 0 018.567 8.567h0a8.567 8.567 0 01-8.567 8.566h0a8.567 8.567 0 01-8.567-8.566z"/><path fill="none" d="M524.73 94.812v7.264h.063v2.437"/><path stroke="#666" stroke-width="2" stroke-linejoin="round" stroke-linecap="butt" d="M524.73 94.812v7.264h.063v2.437"/><path fill="none" d="M449.12 309.41h151.213v61.418H449.121z"/><path fill="#980000" d="M468.994 335.05v-12.124h3.125v4.687h4.329v-4.687h3.125v12.125h-3.125v-4.656h-4.329v4.656h-3.125zm16.238 0v-9.406h-3.625v-2.718h10.47v2.719h-3.72v9.406h-3.125zm8.888 0v-12.124h2.766l3.406 5.515 3.453-5.515h2.656v12.125h-3.047v-3.594q0-.969.032-1.813.047-.843.11-1.625l-2.704 4.172h-1.14l-2.61-4.125q.062.735.078 1.563.031.828.031 1.828v3.594h-3.03zm15.249 0v-12.124h3.125v9.406h5.36v2.719h-8.485zm15.986 3.813v-13.031h2.766l.062.953q.438-.5 1.188-.812.75-.313 1.61-.313 1.187 0 2.093.61.906.609 1.437 1.687.532 1.078.532 2.484 0 1.375-.532 2.454-.53 1.078-1.468 1.703-.922.609-2.094.609-.781 0-1.485-.281-.687-.297-1.171-.766v4.703h-2.938zm4.844-6.11q.89 0 1.422-.624.547-.625.547-1.688 0-1.078-.532-1.703-.53-.625-1.437-.625-.922 0-1.453.625-.532.625-.532 1.703 0 1.063.532 1.688.531.625 1.453.625zm10.004 2.454q-1.14 0-2.063-.61-.906-.624-1.437-1.702-.516-1.079-.516-2.47 0-1.406.516-2.468.531-1.078 1.453-1.688.938-.625 2.125-.625.906 0 1.578.344.688.344 1.125.906v-1.062h2.906v9.219h-2.968v-1.063q-.47.547-1.172.89-.688.329-1.547.329zm.828-2.438q.922 0 1.453-.625.531-.64.531-1.718 0-1.063-.53-1.688-.532-.64-1.454-.64-.906 0-1.437.64-.516.625-.516 1.688 0 1.078.516 1.719.53.625 1.437.625zm7.318 2.282v-9.219h2.766l.062 1.375q.454-.703 1.172-1.125.72-.438 1.547-.438.281 0 .563.047.281.047.5.125l-.797 3.235q-.188-.094-.516-.188-.328-.11-.703-.11-.734 0-1.203.5-.453.485-.453 1.25v4.548h-2.938zm11.133.172q-1.375 0-2.438-.422-1.047-.438-1.656-1.172l1.766-1.531q.53.546 1.218.796.688.235 1.266.235.453 0 .687-.172.25-.188.25-.484 0-.329-.296-.5-.313-.172-1.454-.47-1.593-.405-2.359-1.155-.36-.344-.547-.797-.187-.453-.187-1.016 0-.89.515-1.531.516-.656 1.375-1 .86-.36 1.828-.36 1.157 0 2.157.375t1.734 1.016l-1.531 1.703q-.453-.406-1.11-.719-.64-.312-1.25-.312-.906 0-.906.656 0 .36.375.578.156.079.531.22.391.124 1.063.312.812.218 1.39.515.594.281.954.656.547.61.547 1.5 0 .891-.516 1.594-.5.688-1.39 1.094-.891.39-2.016.39zm9.91 0q-1.531 0-2.672-.61-1.14-.625-1.765-1.687-.61-1.078-.61-2.453 0-1.422.594-2.5.61-1.079 1.672-1.704 1.062-.625 2.406-.625 1.297 0 2.297.61 1.016.594 1.563 1.656.562 1.063.546 2.406l-.015.75h-6.235q.235.75.875 1.188.657.422 1.672.422.578 0 1.016-.156.453-.172.953-.579l1.36 1.954q-.86.703-1.782 1.015-.922.313-1.875.313zm-.328-7.157q-1.578 0-1.922 1.422h3.578v-.015q-.047-.61-.5-1-.453-.407-1.156-.407zm6.092 6.985v-9.219h2.765l.063 1.375q.453-.703 1.172-1.125.719-.438 1.547-.438.281 0 .562.047t.5.125l-.797 3.235q-.187-.094-.515-.188-.328-.11-.703-.11-.735 0-1.204.5-.453.485-.453 1.25v4.548h-2.937zM468.866 356.038q-.875 0-1.64-.312-.75-.328-1.22-.844l-.077.953h-2.703v-12.812h2.937v4.515q.469-.484 1.156-.781.703-.312 1.47-.312 1.187 0 2.108.625.938.625 1.47 1.703.53 1.078.53 2.468 0 1.407-.53 2.485-.516 1.078-1.423 1.703-.906.61-2.078.61zm-.812-2.453q.906 0 1.437-.625.547-.64.547-1.719 0-1.078-.547-1.703-.531-.64-1.437-.64-.907 0-1.438.64-.531.625-.531 1.703 0 1.079.531 1.72.531.624 1.438.624zm6.66 2.266v-12.828h2.938v12.828h-2.938zm9.592.172q-1.437 0-2.578-.625-1.125-.625-1.78-1.688-.657-1.078-.657-2.469 0-1.39.656-2.468t1.781-1.703q1.141-.625 2.578-.625 1.438 0 2.579.625 1.14.625 1.78 1.703.657 1.078.657 2.468 0 1.391-.656 2.47-.64 1.062-1.781 1.687t-2.579.625zm0-2.516q.891 0 1.454-.64.578-.641.578-1.626 0-1-.578-1.64-.563-.656-1.454-.656-.875 0-1.468.656-.578.64-.578 1.64 0 .985.578 1.625.593.641 1.468.641zm10.88 2.516q-1.36 0-2.437-.625-1.063-.625-1.672-1.703-.61-1.079-.61-2.454 0-1.39.61-2.468t1.672-1.703q1.078-.625 2.437-.625 1.235 0 2.266.421 1.047.422 1.656 1.188l-1.594 1.906q-.343-.422-.875-.687-.531-.282-1.187-.282-.938 0-1.531.641-.579.625-.579 1.594 0 .953.579 1.61.593.64 1.53.64.657 0 1.173-.25.515-.25.89-.703l1.578 1.922q-.609.734-1.656 1.156-1.047.422-2.25.422zm5.416-.172v-12.828h2.938v6.734l3.015-3.125h3.875l-4.265 3.984 4.14 5.235h-3.453l-2.594-3.438-.718.672v2.766h-2.938zm15.03.172q-1.531 0-2.672-.61-1.14-.625-1.765-1.687-.61-1.078-.61-2.453 0-1.422.594-2.5.61-1.078 1.672-1.703 1.062-.625 2.406-.625 1.297 0 2.297.609 1.016.594 1.562 1.656.563 1.063.547 2.406l-.015.75h-6.235q.235.75.875 1.188.657.422 1.672.422.578 0 1.016-.156.453-.172.953-.579l1.36 1.954q-.86.703-1.782 1.015-.922.313-1.875.313zm-.328-7.157q-1.578 0-1.922 1.422h3.578v-.015q-.047-.61-.5-1-.453-.407-1.156-.407zm9.514 7.172q-1.172 0-2.094-.61-.922-.624-1.453-1.702-.532-1.078-.532-2.485 0-1.39.532-2.468.53-1.078 1.453-1.703.937-.625 2.14-.625.766 0 1.47.296.702.297 1.171.75v-4.468h2.953v12.828h-2.703l-.094-.969q-.453.5-1.203.828-.75.328-1.64.328zm.78-2.422q.923 0 1.454-.64.531-.64.531-1.735 0-1.078-.531-1.718-.531-.641-1.453-.641-.89 0-1.422.64-.531.641-.531 1.72 0 1.093.53 1.734.532.64 1.423.64zm18.489 2.422q-.875 0-1.64-.312-.75-.328-1.22-.844l-.078.953h-2.703v-12.812h2.938v4.515q.469-.484 1.156-.781.703-.312 1.469-.312 1.187 0 2.11.625.937.625 1.468 1.703.531 1.078.531 2.468 0 1.407-.531 2.485-.516 1.078-1.422 1.703-.906.61-2.078.61zm-.813-2.453q.907 0 1.438-.625.547-.64.547-1.719 0-1.078-.547-1.703-.531-.64-1.438-.64-.906 0-1.437.64-.531.625-.531 1.703 0 1.079.531 1.72.531.624 1.437.624zm7.408 6.25l1.844-4.328-4.078-8.875h3.296l1.813 4.297q.219.531.375 1.078.078-.172.125-.375.062-.203.156-.406l1.594-4.594h3.312l-3.937 9.219-1.594 3.984h-2.906zm18.732-3.812q-1.375 0-2.36-.578-.983-.579-1.546-1.61l1.766-1.812q.453.64.86.937.405.281.905.281.594 0 .938-.39.36-.406.36-1.063v-5.36h-2.235v-2.702h7.14v2.703h-1.859v5.734q0 1.188-.531 2.063-.531.86-1.422 1.328-.89.469-2.016.469zm12.608 0q-1.875 0-3.14-.641-1.266-.64-2.157-1.781l1.86-2.11q.875 1.141 1.765 1.547.891.39 1.797.39.672 0 1.094-.233.438-.25.438-.735 0-.422-.36-.687-.344-.282-.89-.453-.532-.172-1.079-.282-2.015-.437-3-1.375-.984-.937-.984-2.468 0-1.141.64-1.97.657-.843 1.704-1.312 1.062-.484 2.281-.484 1.828 0 2.906.562 1.078.563 1.735 1.532l-1.89 1.812q-.548-.64-1.235-.953-.672-.328-1.39-.328-.735 0-1.173.25-.422.234-.422.703 0 .375.297.625.297.234.766.39.469.141.969.235 1.265.25 2.218.719.97.469 1.5 1.219.547.75.547 1.859 0 1.281-.625 2.172-.625.875-1.703 1.344-1.078.453-2.469.453z"/><path fill="none" d="M524.736 124.34v23.133h.063v23.135"/><path stroke="#666" stroke-width="2" stroke-linejoin="round" stroke-linecap="butt" d="M524.736 124.34v23.133h.063v11.135"/><path fill="#666" stroke="#666" stroke-width="2" stroke-linecap="butt" d="M521.496 158.608l3.303 9.076 3.304-9.076z" fill-rule="evenodd"/><path fill="none" d="M404.41 435.297l.032-86.174"/><path stroke="#f4cccc" stroke-width="2" stroke-linejoin="round" stroke-linecap="butt" stroke-dasharray="8.0,6.0" d="M404.41 435.297l.032-86.174"/><path fill="none" d="M336.348 358.106h136.126v61.418H336.348z"/><path fill="#980000" d="M360.05 383.918q-1.376 0-2.36-.578t-1.547-1.61l1.766-1.812q.453.64.86.938.405.28.905.28.594 0 .938-.39.36-.406.36-1.062v-5.36h-2.235v-2.703h7.14v2.703h-1.859v5.735q0 1.187-.531 2.062-.531.86-1.422 1.328-.89.47-2.016.47zm12.607 0q-1.875 0-3.14-.64-1.266-.641-2.156-1.782l1.859-2.11q.875 1.142 1.766 1.548.89.39 1.796.39.672 0 1.094-.234.438-.25.438-.734 0-.422-.36-.688-.343-.281-.89-.453-.532-.172-1.078-.281-2.016-.438-3-1.375-.985-.938-.985-2.469 0-1.14.64-1.969.657-.843 1.704-1.312 1.062-.485 2.281-.485 1.828 0 2.906.563 1.079.562 1.735 1.531l-1.89 1.813q-.548-.64-1.235-.953-.672-.329-1.39-.329-.735 0-1.173.25-.422.235-.422.704 0 .375.297.625.297.234.766.39.469.14.969.235 1.265.25 2.218.718.97.47 1.5 1.22.547.75.547 1.858 0 1.282-.625 2.172-.625.875-1.703 1.344-1.078.453-2.469.453zm17.983.016q-.875 0-1.641-.313-.75-.328-1.219-.843l-.078.953h-2.703v-12.813h2.937v4.516q.47-.485 1.157-.781.703-.313 1.468-.313 1.188 0 2.11.625.937.625 1.469 1.703.53 1.078.53 2.469 0 1.406-.53 2.484-.516 1.078-1.422 1.703-.907.61-2.078.61zm-.813-2.453q.906 0 1.438-.625.546-.64.546-1.72 0-1.077-.546-1.702-.532-.64-1.438-.64-.906 0-1.437.64-.532.625-.532 1.703t.532 1.719q.53.625 1.437.625zm6.66 2.265v-12.828h2.938v12.828h-2.938zm9.593.172q-1.438 0-2.578-.625-1.125-.625-1.782-1.687-.656-1.078-.656-2.47 0-1.39.656-2.468.657-1.078 1.782-1.703 1.14-.625 2.578-.625 1.437 0 2.578.625 1.14.625 1.781 1.703.656 1.078.656 2.469 0 1.39-.656 2.469-.64 1.062-1.781 1.687-1.14.625-2.578.625zm0-2.515q.89 0 1.453-.641.578-.64.578-1.625 0-1-.578-1.64-.563-.657-1.453-.657-.875 0-1.469.656-.578.64-.578 1.64 0 .985.578 1.626.594.64 1.469.64zm10.88 2.515q-1.36 0-2.438-.625-1.063-.625-1.672-1.703-.61-1.078-.61-2.453 0-1.39.61-2.469.61-1.078 1.672-1.703 1.078-.625 2.437-.625 1.235 0 2.266.422 1.047.422 1.656 1.187l-1.593 1.907q-.344-.422-.875-.688-.532-.281-1.188-.281-.937 0-1.531.64-.578.626-.578 1.594 0 .953.578 1.61.594.64 1.531.64.656 0 1.172-.25.516-.25.89-.703l1.579 1.922q-.61.734-1.657 1.156-1.046.422-2.25.422zm5.415-.172v-12.828h2.938v6.735l3.015-3.125h3.875l-4.265 3.984 4.14 5.234h-3.453l-2.593-3.437-.72.672v2.765h-2.937zm15.03.172q-1.53 0-2.672-.61-1.14-.624-1.765-1.687-.61-1.078-.61-2.453 0-1.422.594-2.5.61-1.078 1.672-1.703 1.063-.625 2.406-.625 1.297 0 2.297.61 1.016.593 1.563 1.656.562 1.062.547 2.406l-.016.75h-6.234q.234.75.875 1.187.656.422 1.671.422.579 0 1.016-.156.453-.172.953-.578l1.36 1.953q-.86.703-1.782 1.016-.922.312-1.875.312zm-.328-7.156q-1.578 0-1.922 1.422h3.578v-.016q-.046-.61-.5-1-.453-.406-1.156-.406zm9.514 7.172q-1.172 0-2.094-.61-.922-.625-1.453-1.703t-.531-2.484q0-1.39.53-2.469.532-1.078 1.454-1.703.938-.625 2.14-.625.766 0 1.47.297.703.297 1.171.75v-4.469h2.953v12.828h-2.703l-.093-.968q-.454.5-1.204.828-.75.328-1.64.328zm.781-2.422q.922 0 1.453-.64.531-.641.531-1.735 0-1.078-.53-1.719-.532-.64-1.454-.64-.89 0-1.422.64-.531.64-.531 1.719 0 1.094.531 1.734.531.64 1.422.64zM380.425 404.734q-.875 0-1.641-.313-.75-.328-1.219-.843l-.078.953h-2.703v-12.813h2.937v4.516q.47-.485 1.157-.781.703-.313 1.468-.313 1.188 0 2.11.625.937.625 1.469 1.703.53 1.078.53 2.469 0 1.406-.53 2.484-.516 1.078-1.422 1.703-.907.61-2.078.61zm-.813-2.453q.906 0 1.438-.625.546-.641.546-1.72 0-1.077-.546-1.702-.532-.64-1.438-.64-.906 0-1.437.64-.532.625-.532 1.703t.532 1.719q.53.625 1.437.625zm7.408 6.25l1.843-4.328-4.078-8.875h3.297l1.813 4.296q.218.532.375 1.079.078-.172.125-.375.062-.204.156-.407l1.594-4.593h3.312l-3.937 9.218-1.594 3.985h-2.906zm21.294-3.813q-1.875 0-3.312-.797-1.422-.812-2.234-2.234-.813-1.422-.813-3.25 0-1.375.469-2.516.484-1.14 1.36-1.984.874-.844 2.062-1.313 1.187-.468 2.578-.468 1.297 0 2.5.5 1.203.484 2.015 1.422l-1.906 2.171q-.484-.562-1.14-.89-.641-.328-1.485-.328-.906 0-1.656.422-.734.406-1.172 1.187-.437.766-.437 1.828 0 1.531.968 2.453.969.922 2.563.922.797 0 1.5-.328t1.172-.844l1.5 2.375q-.422.485-1.157.86-.734.375-1.609.593-.875.22-1.766.22zm10.514 0q-1.875 0-3.14-.64-1.266-.641-2.157-1.782l1.86-2.11q.874 1.142 1.765 1.548.89.39 1.797.39.672 0 1.094-.234.437-.25.437-.734 0-.422-.36-.688-.343-.281-.89-.453-.531-.172-1.078-.281-2.016-.438-3-1.375-.984-.938-.984-2.469 0-1.14.64-1.969.656-.843 1.703-1.312 1.063-.485 2.282-.485 1.828 0 2.906.563 1.078.562 1.734 1.531l-1.89 1.813q-.547-.641-1.235-.953-.672-.329-1.39-.329-.735 0-1.172.25-.422.235-.422.704 0 .375.297.625.297.234.765.39.47.14.97.235 1.265.25 2.218.718.969.469 1.5 1.219.547.75.547 1.86 0 1.28-.625 2.171-.625.875-1.703 1.344-1.079.453-2.47.453zm11.003 0q-1.875 0-3.14-.64-1.266-.641-2.157-1.782l1.86-2.11q.875 1.142 1.765 1.548.89.39 1.797.39.672 0 1.094-.234.437-.25.437-.734 0-.422-.359-.688-.344-.281-.89-.453-.532-.172-1.079-.281-2.015-.438-3-1.375-.984-.938-.984-2.469 0-1.14.64-1.969.657-.843 1.704-1.312 1.062-.485 2.28-.485 1.829 0 2.907.563 1.078.562 1.734 1.531l-1.89 1.813q-.547-.641-1.235-.953-.671-.329-1.39-.329-.735 0-1.172.25-.422.235-.422.704 0 .375.297.625.297.234.766.39.468.14.968.235 1.266.25 2.22.718.968.469 1.5 1.219.546.75.546 1.86 0 1.28-.625 2.171-.625.875-1.703 1.344-1.078.453-2.469.453z"/><path fill="#fff2cc" d="M395.862 340.56a8.567 8.567 0 0117.134 0 8.567 8.567 0 11-17.134 0z" fill-rule="evenodd"/><path stroke="#000" stroke-linejoin="round" stroke-linecap="butt" d="M395.862 340.56h0a8.567 8.567 0 018.567-8.568h0a8.567 8.567 0 018.567 8.567h0a8.567 8.567 0 01-8.567 8.567h0a8.567 8.567 0 01-8.567-8.567z"/><path fill="#fff2cc" d="M202.437 443.864a8.567 8.567 0 1117.134 0 8.567 8.567 0 11-17.134 0z" fill-rule="evenodd"/><path stroke="#000" stroke-linejoin="round" stroke-linecap="butt" d="M202.437 443.864h0a8.567 8.567 0 018.567-8.567h0a8.567 8.567 0 018.567 8.567h0a8.567 8.567 0 01-8.567 8.566h0a8.567 8.567 0 01-8.567-8.566z"/><path fill="none" d="M219.57 443.864h88.137v.063h88.147"/><path stroke="#666" stroke-width="2" stroke-linejoin="round" stroke-linecap="butt" d="M219.57 443.864h88.137v.063h76.147"/><path fill="#666" stroke="#666" stroke-width="2" stroke-linecap="butt" d="M383.854 447.23l9.077-3.303-9.077-3.304z" fill-rule="evenodd"/><path fill="#fff2cc" d="M395.844 443.864a8.567 8.567 0 1117.134 0 8.567 8.567 0 11-17.134 0z" fill-rule="evenodd"/><path stroke="#000" stroke-linejoin="round" stroke-linecap="butt" d="M395.844 443.864h0a8.567 8.567 0 018.567-8.567h0a8.567 8.567 0 018.567 8.567h0a8.567 8.567 0 01-8.567 8.566h0a8.567 8.567 0 01-8.567-8.566z"/><path fill="none" d="M404.412 301.851v17.492h.063v12.65"/><path stroke="#666" stroke-width="2" stroke-linejoin="round" stroke-linecap="butt" d="M404.412 301.851v17.492h.063v.65"/><path fill="#666" stroke="#666" stroke-width="2" stroke-linecap="butt" d="M401.172 319.993l3.303 9.076 3.304-9.076z" fill-rule="evenodd"/></g></svg>
