<svg viewBox="0 0 596.034 862.136" fill="none" stroke-linecap="square" stroke-miterlimit="10" xmlns="http://www.w3.org/2000/svg"><clipPath id="a"><path d="M0 0h596.034v862.136H0V0z"/></clipPath><g clip-path="url(#a)"><path fill="none" d="M0 0h596.034v862.136H0z"/><path fill="#c9daf8" d="M191.66 368.792h136.12v72.77c-68.06 0-68.06 27.728-136.12 11.974z" fill-rule="evenodd"/><path fill="#000" d="M245.972 413.952q-2.593 0-4.578-1.11-1.984-1.11-3.11-3.078-1.124-1.969-1.124-4.515 0-1.907.656-3.485.672-1.578 1.875-2.734 1.219-1.172 2.86-1.813 1.64-.656 3.593-.656 1.766 0 3.438.688 1.672.671 2.797 1.968l-2.64 3q-.673-.765-1.58-1.218-.89-.454-2.046-.454-1.266 0-2.297.579-1.015.562-1.625 1.64-.61 1.063-.61 2.531 0 2.141 1.345 3.407 1.343 1.265 3.546 1.265 1.11 0 2.079-.453.968-.453 1.625-1.172l2.078 3.282q-.594.671-1.61 1.203-1 .53-2.218.828-1.204.297-2.454.297zm14.564 0q-2.594 0-4.344-.875-1.75-.891-3-2.485l2.594-2.922q1.203 1.579 2.437 2.141 1.235.547 2.485.547.937 0 1.53-.328.61-.344.61-1.016 0-.578-.5-.953-.484-.39-1.234-.61-.75-.234-1.516-.406-2.781-.593-4.156-1.89-1.36-1.297-1.36-3.438 0-1.562.891-2.718.907-1.172 2.36-1.829 1.468-.656 3.156-.656 2.547 0 4.031.781 1.484.782 2.406 2.125l-2.625 2.516q-.765-.89-1.703-1.328-.937-.453-1.937-.453-1.016 0-1.625.344-.594.328-.594.984 0 .5.422.844.422.328 1.062.53.657.204 1.36.345 1.75.343 3.078 1 1.328.64 2.078 1.687.75 1.031.75 2.578 0 1.766-.875 3-.86 1.219-2.36 1.86-1.5.625-3.421.625zm15.24 0q-2.594 0-4.344-.875-1.75-.891-3-2.485l2.594-2.922q1.203 1.579 2.437 2.141 1.235.547 2.485.547.937 0 1.53-.328.61-.344.61-1.016 0-.578-.5-.953-.484-.39-1.234-.61-.75-.234-1.516-.406-2.781-.593-4.156-1.89-1.36-1.297-1.36-3.438 0-1.562.891-2.718.906-1.172 2.36-1.829 1.468-.656 3.156-.656 2.547 0 4.031.781 1.484.782 2.406 2.125l-2.625 2.516q-.765-.89-1.703-1.328-.937-.453-1.937-.453-1.016 0-1.625.344-.594.328-.594.984 0 .5.422.844.422.328 1.062.53.657.204 1.36.345 1.75.343 3.078 1 1.328.64 2.078 1.687.75 1.031.75 2.578 0 1.766-.875 3-.86 1.219-2.36 1.86-1.5.625-3.421.625z"/><path fill="#434343" d="M60.018 389.232h124.85v-9.431l26.363 26.362-26.362 26.362v-9.432H60.019z" fill-rule="evenodd"/><path fill="#fff" d="M70.659 412.023V400.82h4.25q1.516 0 2.688.718 1.187.703 1.859 1.97.687 1.265.687 2.921 0 1.64-.687 2.906-.672 1.266-1.86 1.985-1.171.703-2.687.703h-4.25zm4.172-9.969h-2.906v8.734h2.906q1.156 0 2.062-.53.907-.548 1.422-1.532.516-.985.516-2.297 0-1.313-.516-2.297-.515-.984-1.422-1.531-.906-.547-2.062-.547zm10.95 10.125q-1.234 0-2.202-.563-.953-.562-1.516-1.546-.562-.985-.562-2.25 0-1.25.562-2.235.563-.984 1.516-1.547.968-.562 2.203-.562 1.234 0 2.203.562.969.563 1.516 1.547.562.985.562 2.235 0 1.265-.562 2.25-.547.984-1.516 1.546-.969.563-2.203.563zm0-1.14q.891 0 1.563-.423.688-.421 1.063-1.14.39-.735.39-1.656 0-.938-.39-1.641-.375-.719-1.063-1.125-.672-.422-1.562-.422-.875 0-1.563.422-.687.406-1.078 1.125-.375.719-.375 1.64 0 .922.375 1.657.39.719 1.078 1.14.688.422 1.563.422zm7.69.984l-2.922-8.375h1.297l2.062 6.25 2.235-4.953h.734l2.187 4.875 2.079-6.172h1.28l-2.89 8.375h-.719l-2.343-5.36-2.266 5.36h-.734zm10.367 0v-8.375h1.203l.032 1.437q.375-.672 1.187-1.14.813-.47 1.703-.47 1.39 0 2.094.86.719.86.719 2.594v5.094h-1.235v-5.016q0-2.437-1.968-2.39-.735 0-1.297.328-.563.312-.89.843-.329.516-.329 1.141v5.094h-1.219zm9.264 0v-11.844h1.218v11.844h-1.218zm7.112.156q-1.235 0-2.203-.563-.953-.562-1.516-1.546-.562-.985-.562-2.25 0-1.25.562-2.235.563-.984 1.516-1.547.968-.562 2.203-.562 1.234 0 2.203.562.969.563 1.516 1.547.562.985.562 2.235 0 1.265-.562 2.25-.547.984-1.516 1.546-.969.563-2.203.563zm0-1.14q.89 0 1.562-.423.688-.421 1.063-1.14.39-.735.39-1.656 0-.938-.39-1.641-.375-.719-1.063-1.125-.672-.422-1.562-.422-.875 0-1.563.422-.687.406-1.078 1.125-.375.719-.375 1.64 0 .922.375 1.657.39.719 1.078 1.14.688.422 1.563.422zm9.29 1.14q-1.094 0-1.984-.563-.875-.562-1.391-1.546-.5-.985-.5-2.235 0-1.265.516-2.25.53-.984 1.421-1.547.907-.562 2.016-.562 1 0 1.797.469.797.468 1.203 1.203l.031-1.5h1.22v8.375h-1.235v-1.485q-.438.703-1.282 1.172-.828.469-1.812.469zm.266-1.172q.828 0 1.484-.406t1.031-1.125q.375-.719.375-1.656 0-.922-.375-1.641t-1.031-1.125q-.656-.406-1.484-.406-.844 0-1.5.406-.641.406-1.016 1.125-.36.719-.36 1.64 0 .922.36 1.657.375.719 1.016 1.125.656.406 1.5.406zm9.795 1.172q-1.157 0-2.063-.547-.906-.562-1.422-1.547-.515-.984-.515-2.25 0-1.25.515-2.234.531-.985 1.422-1.547.906-.578 2.031-.578.953 0 1.766.453.812.437 1.25 1.062v-4.812h1.219v11.844h-1.203l-.032-1.407q-.39.657-1.218 1.11-.813.453-1.75.453zm.156-1.11q.828 0 1.484-.421.656-.422 1.031-1.14.375-.735.375-1.673 0-.953-.375-1.672-.375-.734-1.03-1.14-.657-.422-1.485-.422-.844 0-1.5.422-.656.406-1.031 1.14-.36.72-.36 1.672 0 .922.36 1.656.375.735 1.03 1.157.657.422 1.5.422zm15.979 1.11q-1.594 0-2.844-.734-1.25-.735-1.953-2.032-.703-1.312-.703-2.984 0-1.219.406-2.25.422-1.047 1.172-1.813.75-.78 1.75-1.203 1-.437 2.156-.437.797 0 1.563.265.765.25 1.406.688.656.422 1.062.984l-.859.907q-.61-.735-1.453-1.157-.844-.422-1.719-.422-1.187 0-2.14.579-.938.578-1.485 1.578-.547 1-.547 2.281 0 1.328.547 2.344.563 1.015 1.531 1.578.985.547 2.266.547.875 0 1.688-.36.828-.359 1.328-.953l.64 1.063q-.375.453-1 .797-.61.343-1.343.546-.72.188-1.47.188zm9.472 0q-2.625 0-4.093-2.14l.89-.97q.75 1.063 1.532 1.5.796.422 1.78.422.735 0 1.313-.234t.907-.656q.343-.438.343-.985 0-.921-.765-1.375-.75-.468-2.11-.796-1.625-.375-2.484-1.094-.86-.735-.86-2.094 0-.89.485-1.578.5-.688 1.328-1.078.828-.406 1.875-.406 1.297 0 2.188.53.89.532 1.468 1.454l-.89.89q-.516-.796-1.203-1.234-.688-.453-1.594-.453-1.047 0-1.719.516-.656.515-.656 1.343 0 .797.61 1.25.609.438 2 .75 1.655.375 2.624 1.11.985.734.985 2.015 0 .985-.5 1.735-.485.75-1.375 1.172-.891.406-2.079.406zm9.744 0q-2.625 0-4.093-2.14l.89-.97q.75 1.063 1.532 1.5.796.422 1.78.422.735 0 1.313-.234t.907-.656q.343-.438.343-.985 0-.921-.765-1.375-.75-.468-2.11-.796-1.625-.375-2.484-1.094-.86-.735-.86-2.094 0-.89.485-1.578.5-.688 1.328-1.078.828-.406 1.875-.406 1.297 0 2.188.53.89.532 1.468 1.454l-.89.89q-.516-.796-1.203-1.234-.688-.453-1.594-.453-1.047 0-1.719.516-.656.515-.656 1.343 0 .797.61 1.25.609.438 2 .75 1.655.375 2.624 1.11.985.734.985 2.015 0 .985-.5 1.735-.485.75-1.375 1.172-.891.406-2.079.406z"/><path fill="#f4cccc" d="M394.627 416.792h107.127c-11.833 0-21.426 15.772-21.426 35.228 0 19.456 9.593 35.229 21.426 35.229H394.627c-11.833 0-21.426-15.773-21.426-35.229s9.593-35.228 21.426-35.228z" fill-rule="evenodd"/><path fill="none" d="M373.2 428.587h128.552v48.473H373.199z"/><path fill="#000" d="M409.862 460.627V443.83h7.125q2.469 0 4.36 1.079 1.906 1.062 2.968 2.953 1.078 1.89 1.078 4.359 0 2.484-1.078 4.375-1.062 1.89-2.968 2.969-1.891 1.062-4.36 1.062h-7.125zm7.016-13.031h-2.688v9.266h2.688q1.86 0 3-1.282 1.14-1.296 1.14-3.359 0-2.062-1.14-3.344-1.14-1.281-3-1.281zm19.342 13.266q-1.906 0-3.515-.641-1.594-.656-2.781-1.828-1.172-1.172-1.829-2.75-.64-1.594-.64-3.484 0-1.907.64-3.5.657-1.594 1.829-2.766 1.187-1.172 2.78-1.813 1.61-.656 3.516-.656 1.922 0 3.516.656 1.61.641 2.781 1.813 1.188 1.172 1.828 2.766.657 1.593.657 3.5 0 1.875-.657 3.468-.64 1.594-1.828 2.766-1.172 1.172-2.78 1.828-1.595.64-3.517.64zm0-4.032q1.266 0 2.25-.609.985-.61 1.563-1.656.578-1.063.578-2.406 0-1.375-.578-2.422-.578-1.063-1.563-1.657-.984-.609-2.25-.609-1.28 0-2.265.61-.985.593-1.547 1.656-.563 1.047-.563 2.422 0 1.343.563 2.406.562 1.047 1.547 1.656.984.61 2.265.61zm11.874 3.797V443.83h3.813l4.734 7.657 4.781-7.657h3.672v16.797h-4.203v-4.968q0-1.344.047-2.516t.14-2.266l-3.75 5.797h-1.578l-3.625-5.719q.094 1.016.125 2.172.047 1.14.047 2.532v4.968h-4.203z"/><path fill="#f4cccc" d="M211.229 481.587h121.357c-13.404 0-24.271 15.772-24.271 35.228 0 19.456 10.867 35.228 24.271 35.228H211.23c-13.405 0-24.272-15.772-24.272-35.228 0-19.456 10.867-35.228 24.272-35.228z" fill-rule="evenodd"/><path fill="none" d="M186.915 493.382h145.642v48.472H186.915z"/><path fill="#000" d="M213.606 525.656q-2.593 0-4.578-1.11-1.984-1.109-3.11-3.077-1.124-1.969-1.124-4.516 0-1.906.656-3.484.672-1.578 1.875-2.735 1.219-1.171 2.86-1.812 1.64-.656 3.593-.656 1.766 0 3.438.687 1.672.672 2.797 1.969l-2.641 3q-.672-.766-1.578-1.219-.89-.453-2.047-.453-1.266 0-2.297.578-1.016.563-1.625 1.64-.61 1.063-.61 2.532 0 2.14 1.344 3.406t3.547 1.266q1.11 0 2.078-.453.97-.453 1.625-1.172l2.079 3.281q-.594.672-1.61 1.203-1 .532-2.219.828-1.203.297-2.453.297zm14.564 0q-2.594 0-4.344-.875-1.75-.89-3-2.484l2.594-2.922q1.203 1.578 2.437 2.14 1.235.548 2.485.548.937 0 1.53-.329.61-.343.61-1.015 0-.578-.5-.953-.484-.391-1.234-.61-.75-.234-1.516-.406-2.781-.594-4.156-1.89-1.36-1.298-1.36-3.438 0-1.563.891-2.719.906-1.172 2.36-1.828 1.468-.656 3.156-.656 2.547 0 4.031.781 1.484.781 2.406 2.125l-2.625 2.516q-.765-.891-1.703-1.328-.937-.454-1.937-.454-1.016 0-1.625.344-.594.328-.594.985 0 .5.422.843.422.328 1.062.532.657.203 1.36.343 1.75.344 3.078 1 1.328.64 2.078 1.688.75 1.031.75 2.578 0 1.765-.875 3-.86 1.219-2.36 1.86-1.5.624-3.421.624zm15.24 0q-2.594 0-4.344-.875-1.75-.89-3-2.484l2.594-2.922q1.203 1.578 2.437 2.14 1.234.548 2.484.548.938 0 1.532-.329.61-.343.61-1.015 0-.578-.5-.953-.485-.391-1.235-.61-.75-.234-1.516-.406-2.781-.594-4.156-1.89-1.36-1.298-1.36-3.438 0-1.563.891-2.719.906-1.172 2.36-1.828 1.468-.656 3.156-.656 2.547 0 4.031.781 1.484.781 2.406 2.125l-2.625 2.516q-.765-.891-1.703-1.328-.937-.454-1.937-.454-1.016 0-1.625.344-.594.328-.594.985 0 .5.422.843.422.328 1.062.532.656.203 1.36.343 1.75.344 3.078 1 1.328.64 2.078 1.688.75 1.031.75 2.578 0 1.765-.875 3-.86 1.219-2.36 1.86-1.5.624-3.421.624zm17.333 0q-1.906 0-3.515-.64-1.594-.657-2.782-1.828-1.171-1.172-1.828-2.75-.64-1.594-.64-3.485 0-1.906.64-3.5.657-1.594 1.828-2.765 1.188-1.172 2.782-1.813 1.609-.656 3.515-.656 1.922 0 3.516.656 1.61.64 2.781 1.813 1.188 1.171 1.828 2.765.657 1.594.657 3.5 0 1.875-.657 3.469-.64 1.594-1.828 2.765-1.172 1.172-2.781 1.829-1.594.64-3.516.64zm0-4.031q1.266 0 2.25-.61.985-.609 1.563-1.656.578-1.062.578-2.406 0-1.375-.578-2.422-.578-1.062-1.563-1.656-.984-.61-2.25-.61-1.281 0-2.265.61-.985.594-1.547 1.656-.563 1.047-.563 2.422 0 1.344.563 2.406.562 1.047 1.547 1.657.984.609 2.265.609zm11.874 3.797v-16.797h3.812l4.735 7.656 4.781-7.656h3.672v16.797h-4.203v-4.969q0-1.344.047-2.516.046-1.171.14-2.265l-3.75 5.797h-1.578l-3.625-5.719q.094 1.016.125 2.172.047 1.14.047 2.531v4.969h-4.203z"/><path fill="none" d="M259.72 453.536l.064 28.063"/><path stroke="#666" stroke-width="2" stroke-linejoin="round" stroke-linecap="butt" d="M259.72 453.536l.037 16.063"/><path fill="#666" stroke="#666" stroke-width="2" stroke-linecap="butt" d="M256.453 469.606l3.324 9.069 3.283-9.084z" fill-rule="evenodd"/><path fill="#d2b3e0" d="M364.641 699.818h145.67v60.881H364.64z" fill-rule="evenodd"/><path fill="#000" d="M405.952 737.178v-13.062h3.36v10.14h5.765v2.923h-9.125zm14.335.172q-1.219 0-2.203-.656-.985-.672-1.563-1.828-.562-1.172-.562-2.672 0-1.515.562-2.672.578-1.156 1.578-1.812 1-.657 2.282-.657.968 0 1.703.375.734.36 1.219.97v-1.141h3.109v9.922h-3.188v-1.141q-.5.578-1.25.953-.75.36-1.687.36zm.906-2.64q.985 0 1.547-.672.578-.688.578-1.844 0-1.14-.578-1.812-.562-.688-1.547-.688-.969 0-1.547.688-.562.672-.562 1.812 0 1.156.562 1.844.578.672 1.547.672zm8.82 6.765l2-4.672-4.406-9.546h3.562l1.938 4.625q.25.578.406 1.156.078-.188.14-.39.079-.22.173-.454l1.703-4.937h3.562l-4.234 9.922-1.703 4.296h-3.14zm15.024-4.109q-1.547 0-2.782-.672-1.218-.672-1.937-1.828-.703-1.156-.703-2.656 0-1.485.703-2.64.719-1.173 1.937-1.845 1.235-.672 2.782-.672 1.546 0 2.765.672t1.922 1.844q.703 1.156.703 2.64 0 1.5-.703 2.657-.703 1.156-1.922 1.828-1.219.672-2.765.672zm0-2.703q.953 0 1.562-.688.61-.703.61-1.765 0-1.078-.61-1.766-.61-.703-1.562-.703-.954 0-1.579.703-.625.688-.625 1.766 0 1.062.625 1.765.625.688 1.579.688zm10.69 2.719q-1.642 0-2.579-1.047-.922-1.063-.922-2.969v-6.11h3.172v5.75q0 .829.406 1.298.406.468 1.14.468.735 0 1.204-.437.469-.453.469-1.157v-5.921h3.172v9.922h-2.97l-.093-1.235q-.484.656-1.297 1.047-.797.39-1.703.39zm9.479-.203v-7.188h-1.719v-2.734h1.719v-2.5h3.172v2.5h1.844v2.734h-1.844v7.188h-3.172z"/><path fill="#d2b3e0" d="M364.641 610.324h145.67v60.882H364.64z" fill-rule="evenodd"/><path fill="#000" d="M383.508 647.685v-13.062h5.922q1.297 0 2.313.546 1.015.532 1.593 1.485.594.937.594 2.125 0 1.328-.64 2.344-.641 1.015-1.735 1.562l2.922 5h-3.828l-2.563-4.531h-1.39v4.531h-3.188zm3.188-7.047h2.39q.72 0 1.125-.453.422-.453.422-1.187 0-.735-.468-1.172-.47-.438-1.313-.438h-2.156v3.25zm14.007 7.235q-1.656 0-2.89-.657-1.219-.672-1.89-1.828-.673-1.156-.673-2.625 0-1.531.657-2.687.656-1.172 1.796-1.844 1.141-.672 2.594-.672 1.39 0 2.469.656 1.094.641 1.687 1.782.594 1.14.579 2.593l-.016.797h-6.703q.25.813.937 1.281.703.454 1.813.454.61 0 1.078-.172.484-.172 1.031-.61l1.469 2.094q-.938.766-1.922 1.11-.984.328-2.016.328zm-.359-7.704q-1.687 0-2.062 1.532h3.843v-.016q-.047-.656-.547-1.078-.484-.438-1.234-.438zm6.558 7.516v-9.922h2.968l.063 1.156q.531-.625 1.312-.984.797-.375 1.672-.375 1.688 0 2.563 1.031.89 1.032.89 3v6.094H413.2v-5.844q0-1.672-1.438-1.64-.734 0-1.219.453-.484.453-.484 1.094v5.937h-3.156zm15.664.203q-1.265 0-2.265-.656-.985-.672-1.563-1.828-.578-1.172-.578-2.688 0-1.484.578-2.64.578-1.172 1.578-1.844 1-.672 2.297-.672.828 0 1.578.313.766.312 1.266.812v-4.812h3.172v13.812h-2.906l-.094-1.047q-.484.547-1.297.906-.812.344-1.766.344zm.844-2.61q.985 0 1.547-.687.578-.687.578-1.875 0-1.156-.578-1.843-.562-.688-1.547-.688-.969 0-1.547.688-.562.687-.562 1.843 0 1.188.562 1.875.578.688 1.547.688zm12.46 2.595q-1.656 0-2.89-.657-1.219-.672-1.89-1.828-.673-1.156-.673-2.625 0-1.531.657-2.687.656-1.172 1.796-1.844 1.141-.672 2.594-.672 1.39 0 2.469.656 1.094.641 1.687 1.782.594 1.14.579 2.593l-.016.797h-6.703q.25.813.937 1.281.703.454 1.813.454.61 0 1.078-.172.484-.172 1.031-.61l1.469 2.094q-.938.766-1.922 1.11-.984.328-2.016.328zm-.359-7.704q-1.687 0-2.062 1.532h3.843v-.016q-.047-.656-.547-1.078-.484-.438-1.234-.438zm6.558 7.516v-9.922h2.984l.047 1.469q.516-.75 1.281-1.203.781-.469 1.656-.469.313 0 .61.063.297.046.547.125l-.86 3.484q-.203-.11-.562-.203-.36-.11-.766-.11-.781 0-1.281.516-.484.516-.484 1.36v4.89h-3.172zm15.488 0v-7.187h-1.719v-2.735h1.72v-2.5h3.171v2.5h1.844v2.735h-1.844v7.187h-3.172zm6.731 0v-9.922h2.985l.047 1.469q.515-.75 1.28-1.203.782-.469 1.657-.469.313 0 .61.063.296.046.546.125l-.86 3.484q-.202-.11-.562-.203-.359-.11-.765-.11-.781 0-1.281.516-.485.516-.485 1.36v4.89h-3.172zm12.962.188q-1.656 0-2.89-.657-1.22-.672-1.891-1.828-.672-1.156-.672-2.625 0-1.531.656-2.687.656-1.172 1.797-1.844 1.14-.672 2.594-.672 1.39 0 2.468.656 1.094.641 1.688 1.782.594 1.14.578 2.593l-.016.797h-6.703q.25.813.938 1.281.703.454 1.812.454.61 0 1.078-.172.485-.172 1.032-.61l1.468 2.094q-.937.766-1.922 1.11-.984.328-2.015.328zm-.36-7.704q-1.687 0-2.062 1.532h3.844v-.016q-.047-.656-.547-1.078-.485-.438-1.235-.438zm11.292 7.704q-1.656 0-2.89-.657-1.219-.672-1.89-1.828-.673-1.156-.673-2.625 0-1.531.657-2.687.656-1.172 1.796-1.844 1.141-.672 2.594-.672 1.39 0 2.469.656 1.094.641 1.687 1.782.594 1.14.579 2.593l-.016.797h-6.703q.25.813.937 1.281.703.454 1.813.454.61 0 1.078-.172.484-.172 1.031-.61l1.469 2.094q-.938.766-1.922 1.11-.984.328-2.016.328zm-.359-7.704q-1.687 0-2.062 1.532h3.843v-.016q-.047-.656-.547-1.078-.484-.438-1.234-.438z"/><path fill="#9ccfa1" d="M364.641 789.311h145.67v60.882H364.64z" fill-rule="evenodd"/><path fill="#000" d="M413.946 826.672v-13.063h5.687q1.25 0 2.235.563.984.562 1.547 1.547.578.969.578 2.219 0 1.296-.578 2.312-.563 1-1.547 1.594-.985.578-2.235.578h-2.328v4.25h-3.36zm3.297-7.188h1.89q.594 0 1-.406.407-.422.407-1.094 0-.671-.407-1.046-.406-.391-1-.391h-1.89v2.937zm12.288 7.36q-1.219 0-2.203-.656-.984-.672-1.563-1.829-.562-1.171-.562-2.671 0-1.516.562-2.672.579-1.157 1.579-1.813 1-.656 2.28-.656.97 0 1.704.375.734.36 1.219.969v-1.14h3.109v9.92h-3.187v-1.14q-.5.578-1.25.953-.75.36-1.688.36zm.906-2.64q.985 0 1.547-.673.578-.687.578-1.843 0-1.141-.578-1.813-.562-.687-1.547-.687-.968 0-1.547.687-.562.672-.562 1.813 0 1.156.562 1.843.579.672 1.547.672zm9.638-9.376q-.875 0-1.36-.422-.484-.422-.484-1.187 0-.688.485-1.125.5-.453 1.359-.453.875 0 1.375.422.5.406.5 1.156 0 .703-.5 1.156-.5.453-1.375.453zm-1.562 11.844v-9.922h3.156v9.922h-3.156zm5.972 0v-9.922h2.968l.063 1.156q.531-.625 1.312-.984.797-.375 1.672-.375 1.688 0 2.563 1.031.89 1.031.89 3v6.094h-3.172v-5.844q0-1.672-1.437-1.64-.734 0-1.219.453-.484.453-.484 1.093v5.938h-3.156zm12.727 0v-7.188h-1.719v-2.734h1.719v-2.5h3.172v2.5h1.844v2.734h-1.844v7.188h-3.172z"/><path fill="none" d="M437.476 671.206v28.598"/><path stroke="#666" stroke-width="2" stroke-linejoin="round" stroke-linecap="butt" d="M437.476 671.206v16.598"/><path fill="#666" stroke="#666" stroke-width="2" stroke-linecap="butt" d="M434.172 687.804l3.304 9.077 3.303-9.077z" fill-rule="evenodd"/><path fill="none" d="M437.476 760.7v28.598"/><path stroke="#666" stroke-width="2" stroke-linejoin="round" stroke-linecap="butt" d="M437.476 760.7v16.598"/><path fill="#666" stroke="#666" stroke-width="2" stroke-linecap="butt" d="M434.172 777.298l3.304 9.076 3.303-9.076z" fill-rule="evenodd"/><path fill="none" d="M259.772 552.043v31.181h172.756"/><path stroke="#666" stroke-width="2" stroke-linejoin="round" stroke-linecap="butt" d="M259.772 552.043v31.181h172.756"/><path fill="none" d="M437.478 487.249v43.703h.063v43.698"/><path stroke="#666" stroke-width="2" stroke-linejoin="round" stroke-linecap="butt" d="M437.478 487.249v43.703h.063v43.698"/><path fill="none" d="M437.51 343.732v36.53h.062v36.541"/><path stroke="#666" stroke-width="2" stroke-linejoin="round" stroke-linecap="butt" d="M437.51 343.732v36.53h.062v24.541"/><path fill="#666" stroke="#666" stroke-width="2" stroke-linecap="butt" d="M434.269 404.803l3.303 9.076 3.304-9.076z" fill-rule="evenodd"/><path fill="none" d="M427.588 333.811H259.714v34.992"/><path stroke="#666" stroke-width="2" stroke-linejoin="round" stroke-linecap="butt" d="M427.588 333.811H259.714v22.992"/><path fill="#666" stroke="#666" stroke-width="2" stroke-linecap="butt" d="M256.41 356.803l3.304 9.076 3.303-9.076z" fill-rule="evenodd"/><path fill="#c9daf8" d="M369.417 10.068h136.12v72.77c-68.06 0-68.06 27.728-136.12 11.974z" fill-rule="evenodd"/><path fill="#000" d="M404.26 54.994V38.197h4.327v6.5h6v-6.5h4.313v16.797h-4.313V48.54h-6v6.454h-4.328zm22.486 0V41.962h-5.016v-3.765h14.5v3.765h-5.156v13.032h-4.328zm12.313 0V38.197h3.813l4.734 7.656 4.781-7.656h3.672v16.797h-4.203v-4.97q0-1.343.047-2.515.047-1.172.14-2.265l-3.75 5.796h-1.578l-3.625-5.718q.094 1.015.125 2.172.047 1.14.047 2.53v4.97h-4.203zm21.12 0V38.197h4.328v13.03h7.406v3.767H460.18z"/><path fill="none" d="M444.617 551.136h136.126v61.418H444.617z"/><path fill="#000" d="M457.726 576.777l-3.672-12.125h1.469l2.344 7.984q.187.64.312 1.187.14.532.235 1.047.156-.531.28-.906.126-.375.235-.688.11-.312.266-.703l2.047-5.171h1.281l2.078 5.234q.25.594.422 1.11.188.5.36 1.093.093-.422.14-.688.047-.265.14-.593.094-.344.298-1.016l2.328-7.89h1.484l-3.703 12.125h-1.125l-3.11-7.407-3 7.407h-1.109zm16.837.171q-1.172 0-2.125-.609-.953-.625-1.515-1.688-.547-1.062-.547-2.421 0-1.36.562-2.422.578-1.078 1.547-1.672.969-.61 2.172-.61 1.094 0 1.938.5.859.5 1.312 1.297l.031-1.609h1.328v9.063h-1.343v-1.61q-.485.766-1.391 1.281-.89.5-1.969.5zm.297-1.265q.906 0 1.61-.438.718-.437 1.125-1.218.406-.782.406-1.813 0-.984-.406-1.766-.407-.78-1.125-1.218-.704-.438-1.61-.438-.922 0-1.625.438-.703.437-1.11 1.218-.39.782-.39 1.766 0 1.016.39 1.813.407.78 1.11 1.218.703.438 1.625.438zm7.744-9.906q-.485 0-.75-.25-.25-.25-.25-.704 0-.437.25-.687.265-.266.75-.266.468 0 .718.25.266.25.266.703 0 .438-.266.704-.25.25-.718.25zm-.657 11v-9.063h1.328v9.063h-1.328zm5.22 0v-7.797h-2.031v-1.266h2.03v-2.36h1.313v2.36h2.266v1.266h-2.266v7.797h-1.312zm11.079 0v-7.766h-1.61v-1.203h1.61v-1.485q0-1 .656-1.656.672-.656 1.766-.656.547 0 1 .203.453.188.75.531l-.469 1.032q-.281-.282-.594-.407-.312-.14-.61-.14-1.155 0-1.155 1.109v1.469h2.297v1.203h-2.297v7.766h-1.344zm9.19.171q-1.329 0-2.376-.609-1.047-.625-1.656-1.688-.61-1.062-.61-2.437 0-1.344.61-2.406.61-1.078 1.656-1.672 1.047-.61 2.375-.61 1.344 0 2.391.61 1.047.594 1.64 1.672.594 1.062.594 2.406 0 1.375-.593 2.438-.594 1.062-1.641 1.687-1.047.61-2.39.61zm0-1.25q.952 0 1.687-.437.734-.453 1.156-1.234.422-.797.422-1.813 0-1-.422-1.766-.422-.78-1.156-1.218-.735-.453-1.688-.453t-1.703.453q-.734.437-1.156 1.218-.406.782-.406 1.766 0 1.016.406 1.813.422.78 1.156 1.234.75.437 1.703.437zm6.517 1.079v-9.063h1.313l.016 1.75q.375-.813 1.109-1.375.75-.563 1.703-.563.297 0 .547.047.266.047.437.11l-.359 1.469q-.453-.188-.906-.188-.781 0-1.36.375-.562.375-.875.984-.296.594-.296 1.329v5.125h-1.329zm11.849 0v-12.125h4.593q1.641 0 2.907.765 1.28.766 2.015 2.14.75 1.376.75 3.157 0 1.781-.75 3.156-.734 1.36-2.015 2.14-1.266.767-2.907.767h-4.593zm4.515-10.797h-3.14v9.468h3.14q1.266 0 2.235-.593.984-.594 1.53-1.657.563-1.062.563-2.484t-.562-2.484q-.547-1.063-1.531-1.657-.97-.593-2.235-.593zm13.392 10.968q-1.281 0-2.375-.453-1.093-.468-1.89-1.297-.797-.843-1.25-1.984-.438-1.14-.438-2.484 0-1.328.438-2.47.453-1.14 1.25-1.968.797-.844 1.89-1.312 1.094-.47 2.375-.47 1.282 0 2.375.47 1.094.468 1.89 1.312.813.828 1.25 1.969.438 1.14.438 2.469 0 1.343-.437 2.484-.438 1.14-1.25 1.984-.797.829-1.89 1.297-1.094.453-2.376.453zm0-1.343q1.313 0 2.328-.625 1.032-.625 1.61-1.72.594-1.108.594-2.53 0-1.407-.594-2.5-.578-1.11-1.61-1.735-1.015-.64-2.328-.64-1.328 0-2.343.64-1.016.625-1.61 1.735-.578 1.093-.578 2.5 0 1.422.578 2.53.594 1.095 1.61 1.72 1.015.625 2.343.625zm8.587 1.172v-12.125h1.344l4.328 7.046 4.406-7.046h1.219v12.125h-1.36v-5.532q0-1.234.032-2.25.031-1.015.11-1.984l-4 6.25h-.923l-3.921-6.25q.093.906.109 1.922.031 1.015.031 2.312v5.532h-1.375zM459.007 597.748q-1.296 0-2.328-.5-1.015-.515-1.61-1.39-.593-.89-.593-2 0-1.235.656-2.188.672-.969 1.954-1.531-.563-.922-.563-1.719 0-.89.453-1.594.469-.703 1.266-1.109.812-.406 1.86-.406 1.187 0 2.109.625.921.625 1.25 1.61l-1.047.655q-.344-.89-.922-1.265-.563-.375-1.375-.375-1.031 0-1.594.469-.562.468-.562 1.343 0 .563.343 1.157.36.593.828 1.156l.844.953 2.64 2.906q.688-1.11.907-2.672h1.281q-.281 2.141-1.343 3.61l1.937 2.093h-1.781l-1.063-1.109q-.703.61-1.593.953-.891.328-1.954.328zm-3.125-4.078q0 .828.438 1.469.437.64 1.187 1t1.735.36q.734 0 1.36-.235.64-.25 1.14-.703l-3.016-3.328q-.25-.282-.484-.563-.235-.281-.453-.515-1.907.687-1.907 2.515zm21.858 4.078q-1.734 0-3.094-.797-1.344-.796-2.11-2.203-.765-1.422-.765-3.234 0-1.313.453-2.438.453-1.14 1.25-1.968.813-.828 1.891-1.297 1.094-.469 2.36-.469.843 0 1.671.281.844.282 1.531.75.704.453 1.157 1.063l-.938.984q-.656-.797-1.578-1.25-.906-.453-1.844-.453-1.297 0-2.328.625-1.015.625-1.61 1.703-.593 1.078-.593 2.469 0 1.437.594 2.547.61 1.094 1.656 1.703 1.063.594 2.453.594.953 0 1.844-.39.89-.392 1.422-1.032l.703 1.156q-.422.484-1.094.86-.656.359-1.453.578-.781.218-1.578.218zm10.262 0q-2.843 0-4.437-2.328l.953-1.047q.812 1.157 1.672 1.625.86.47 1.906.47.797 0 1.422-.25.64-.267 1-.72.375-.468.375-1.078 0-.984-.828-1.484t-2.297-.86q-1.766-.406-2.703-1.187-.922-.797-.922-2.266 0-.953.531-1.703.531-.75 1.422-1.172.906-.437 2.031-.437 1.407 0 2.375.578.97.562 1.594 1.562l-.969.97q-.547-.86-1.297-1.345-.75-.484-1.734-.484-1.125 0-1.844.563-.718.562-.718 1.453 0 .86.656 1.343.656.485 2.172.813 1.797.422 2.843 1.219 1.063.797 1.063 2.187 0 1.047-.531 1.86-.532.812-1.5 1.265-.953.453-2.235.453zm10.553 0q-2.844 0-4.437-2.328l.953-1.047q.812 1.157 1.672 1.625.859.47 1.906.47.797 0 1.422-.25.64-.267 1-.72.375-.468.375-1.078 0-.984-.828-1.484-.829-.5-2.297-.86-1.766-.406-2.703-1.187-.922-.797-.922-2.266 0-.953.531-1.703.531-.75 1.422-1.172.906-.437 2.031-.437 1.406 0 2.375.578.969.562 1.594 1.562l-.969.97q-.547-.86-1.297-1.345-.75-.484-1.734-.484-1.125 0-1.844.563-.719.562-.719 1.453 0 .86.657 1.343.656.485 2.171.813 1.797.422 2.844 1.219 1.063.797 1.063 2.187 0 1.047-.532 1.86-.53.812-1.5 1.265-.953.453-2.234.453zm12.006 0q-1.281 0-2.375-.453-1.094-.469-1.89-1.297-.798-.843-1.25-1.984-.438-1.14-.438-2.484 0-1.329.437-2.47.453-1.14 1.25-1.968.797-.844 1.891-1.312 1.094-.47 2.375-.47t2.375.47q1.094.468 1.89 1.312.813.828 1.25 1.969.438 1.14.438 2.469 0 1.343-.437 2.484-.438 1.14-1.25 1.984-.797.828-1.891 1.297-1.094.453-2.375.453zm0-1.343q1.312 0 2.328-.625 1.031-.625 1.61-1.72.593-1.109.593-2.53 0-1.407-.594-2.5-.578-1.11-1.609-1.735-1.016-.64-2.328-.64-1.328 0-2.344.64-1.015.625-1.61 1.735-.577 1.093-.577 2.5 0 1.421.578 2.53.594 1.095 1.61 1.72 1.015.625 2.343.625zm8.587 1.171v-12.125h1.344l4.328 7.047 4.406-7.047h1.219v12.125h-1.36v-5.53q0-1.235.032-2.25.03-1.016.109-1.985l-4 6.25h-.922l-3.922-6.25q.094.906.11 1.922.03 1.015.03 2.312v5.531h-1.374z"/><path fill="#434343" d="M219.984 30.369h136.41v-9.432l26.362 26.362-26.362 26.362V64.23h-136.41z" fill-rule="evenodd"/><path fill="#fff" d="M230.625 53.16V41.955h4.25q1.516 0 2.687.719 1.188.703 1.86 1.969.687 1.265.687 2.921 0 1.641-.687 2.907-.672 1.265-1.86 1.984-1.171.703-2.687.703h-4.25zm4.172-9.97h-2.906v8.735h2.906q1.156 0 2.062-.531.907-.547 1.422-1.532.516-.984.516-2.297 0-1.312-.516-2.296-.515-.985-1.422-1.532-.906-.547-2.062-.547zm10.95 10.125q-1.234 0-2.202-.562-.954-.563-1.516-1.547-.563-.984-.563-2.25 0-1.25.563-2.234.562-.985 1.516-1.547.968-.563 2.203-.563 1.234 0 2.203.563.969.562 1.515 1.547.563.984.563 2.234 0 1.266-.563 2.25-.546.984-1.515 1.547-.969.562-2.203.562zm0-1.14q.891 0 1.563-.422.688-.422 1.063-1.14.39-.735.39-1.657 0-.937-.39-1.64-.375-.72-1.063-1.126-.672-.421-1.562-.421-.875 0-1.563.421-.687.407-1.078 1.125-.375.72-.375 1.641 0 .922.375 1.656.39.72 1.078 1.141.688.422 1.563.422zm7.69.984l-2.922-8.375h1.297l2.062 6.25 2.234-4.953h.735l2.187 4.875 2.078-6.172h1.282l-2.891 8.375h-.719l-2.343-5.36-2.266 5.36h-.734zm10.367 0v-8.375h1.203l.032 1.438q.375-.672 1.187-1.14.813-.47 1.703-.47 1.39 0 2.094.86.719.86.719 2.593v5.094h-1.235v-5.015q0-2.438-1.968-2.391-.735 0-1.297.328-.563.313-.891.844-.328.515-.328 1.14v5.094h-1.219zm9.263 0V41.315h1.22V53.16h-1.22zm7.113.156q-1.235 0-2.203-.562-.954-.563-1.516-1.547-.563-.984-.563-2.25 0-1.25.563-2.234.562-.985 1.516-1.547.968-.563 2.203-.563 1.234 0 2.203.563.969.562 1.515 1.547.563.984.563 2.234 0 1.266-.563 2.25-.546.984-1.515 1.547-.969.562-2.203.562zm0-1.14q.89 0 1.562-.422.688-.422 1.063-1.14.39-.735.39-1.657 0-.937-.39-1.64-.375-.72-1.063-1.126-.672-.421-1.562-.421-.875 0-1.563.421-.687.407-1.078 1.125-.375.72-.375 1.641 0 .922.375 1.656.39.72 1.078 1.141.688.422 1.563.422zm9.29 1.14q-1.094 0-1.985-.562-.875-.563-1.39-1.547-.5-.984-.5-2.234 0-1.266.515-2.25.532-.985 1.422-1.547.907-.563 2.016-.563 1 0 1.797.47.797.468 1.203 1.202l.031-1.5h1.219v8.375h-1.234v-1.484q-.438.703-1.282 1.172-.828.468-1.812.468zm.265-1.171q.829 0 1.485-.407.656-.406 1.031-1.125.375-.718.375-1.656 0-.922-.375-1.64-.375-.72-1.031-1.126-.656-.406-1.485-.406-.843 0-1.5.406-.64.407-1.015 1.125-.36.72-.36 1.641 0 .922.36 1.656.375.72 1.015 1.125.657.407 1.5.407zm9.795 1.171q-1.156 0-2.062-.546-.906-.563-1.422-1.547-.516-.985-.516-2.25 0-1.25.516-2.235.531-.984 1.422-1.547.906-.578 2.031-.578.953 0 1.766.453.812.438 1.25 1.063v-4.813h1.219V53.16h-1.204l-.03-1.406q-.391.656-1.22 1.11-.812.452-1.75.452zm.157-1.109q.828 0 1.484-.422t1.031-1.14q.375-.735.375-1.672 0-.953-.375-1.672-.375-.735-1.03-1.14-.657-.423-1.485-.423-.844 0-1.5.422-.657.406-1.032 1.14-.359.72-.359 1.673 0 .922.36 1.656.374.734 1.03 1.156.657.422 1.5.422zm11.338.953V41.956h1.266v5h6.234v-5h1.266V53.16h-1.266V48.19h-6.234v4.97h-1.266zm14.11 0V43.19h-3.218v-1.234h7.781v1.234h-3.312v9.97h-1.25zm6.69 0V41.956h1.234l4 6.516 4.063-6.516h1.14V53.16h-1.265v-5.11q0-1.124.031-2.062.031-.953.094-1.859l-3.672 5.781h-.86l-3.624-5.781q.078.86.093 1.797.032.937.032 2.125v5.11h-1.266zm13.728 0V41.956h1.266v9.969h5.375v1.234h-6.64z"/><path fill="#fff2cc" d="M427.562 574.655l9.913 17.147 9.913-17.147z" fill-rule="evenodd"/><path stroke="#000" stroke-linejoin="round" stroke-linecap="butt" d="M427.562 574.655l9.913 17.147 9.913-17.147z"/><path fill="#fff2cc" d="M427.588 333.811l9.921-9.921 9.921 9.921-9.92 9.921z" fill-rule="evenodd"/><path stroke="#000" stroke-linejoin="round" stroke-linecap="butt" d="M427.588 333.811l9.921-9.921 9.921 9.921-9.92 9.921z"/><path fill="none" d="M437.475 292.01v15.94h.063v15.935"/><path stroke="#666" stroke-width="2" stroke-linejoin="round" stroke-linecap="butt" d="M437.475 292.01v15.94h.063v3.935"/><path fill="#666" stroke="#666" stroke-width="2" stroke-linecap="butt" d="M434.235 311.885l3.303 9.076 3.304-9.076z" fill-rule="evenodd"/><path fill="none" d="M437.475 591.802v9.26h.063v9.26"/><path stroke="#666" stroke-width="2" stroke-linejoin="round" stroke-linecap="butt" d="M437.475 591.802v6.52"/><path fill="#666" stroke="#666" stroke-width="2" stroke-linecap="butt" d="M434.171 598.34l3.351 9.058 3.256-9.094z" fill-rule="evenodd"/><path fill="none" d="M444.617 313.606h136.126v40.41H444.617z"/><path fill="#000" d="M458.96 339.418q-2.843 0-4.437-2.328l.953-1.047q.813 1.156 1.672 1.625.86.469 1.906.469.797 0 1.422-.25.64-.266 1-.719.375-.469.375-1.078 0-.984-.828-1.484t-2.297-.86q-1.765-.406-2.703-1.187-.922-.797-.922-2.266 0-.953.531-1.703.532-.75 1.422-1.172.907-.437 2.032-.437 1.406 0 2.375.578.968.562 1.593 1.562l-.968.97q-.547-.86-1.297-1.345-.75-.484-1.735-.484-1.125 0-1.843.562-.72.563-.72 1.454 0 .859.657 1.343.656.485 2.172.813 1.797.422 2.844 1.219 1.062.796 1.062 2.187 0 1.047-.531 1.86-.531.812-1.5 1.265-.953.453-2.234.453zm7.725-.172v-7.797h-2.031v-1.265h2.031v-2.36h1.313v2.36h2.265v1.265h-2.265v7.797h-1.313zm6.727 3.985l1.532-3.735-4.203-9.312h1.484l3.11 6.937q.062.157.124.344.078.172.141.36.062-.141.11-.282l.124-.312 2.703-7.047h1.5l-3.656 9.062-1.562 3.985h-1.407zm8.048-3.985v-12.828h1.313v12.828h-1.313zm7.712.172q-1.36 0-2.422-.578-1.047-.594-1.64-1.656-.579-1.063-.579-2.422 0-1.39.563-2.453.578-1.078 1.593-1.688 1.032-.625 2.344-.625 1.219 0 2.14.563.938.562 1.438 1.547.5.968.469 2.25l-.016.61h-7.187q.094 1.468 1.016 2.343.921.86 2.437.86.656 0 1.281-.204.64-.219 1.407-.875l.671.953q-.609.594-1.546.985-.922.39-1.97.39zm-.156-8.172q-1.25 0-2.063.672-.812.656-1.016 1.938h5.797v-.11q-.031-.61-.36-1.187-.327-.594-.937-.953-.593-.36-1.421-.36zm8.896 8.172q-1.188 0-2.094-.422-.906-.422-1.469-1.156l.938-.812q.984 1.234 2.719 1.234.843 0 1.359-.375.531-.375.531-1.031 0-.563-.484-.922-.219-.172-.64-.328-.407-.157-1-.328-.97-.266-1.61-.547-.64-.297-1.016-.688-.515-.578-.515-1.469 0-.75.406-1.328.406-.578 1.125-.906.719-.344 1.625-.344.969 0 1.875.407.906.406 1.484 1.046l-.812.891q-.516-.547-1.157-.875-.625-.328-1.328-.328-.843 0-1.36.39-.5.376-.5 1 0 .5.392.829.25.187.687.36.438.155 1.094.327.75.219 1.281.438.547.203.89.5.86.656.86 1.812 0 .75-.437 1.36-.422.593-1.172.937-.735.328-1.672.328zm10.996-11.172q-.485 0-.75-.25-.25-.25-.25-.703 0-.437.25-.687.265-.266.75-.266.468 0 .718.25.266.25.266.703 0 .438-.266.703-.25.25-.718.25zm-.657 11v-9.062h1.328v9.062h-1.328zm3.97 0v-9.062h1.297l.03 1.547q.423-.735 1.298-1.235.875-.5 1.844-.5 1.515 0 2.28.922.766.922.766 2.813v5.515h-1.328v-5.422q0-2.656-2.14-2.593-.797 0-1.407.343-.609.344-.968.922-.36.563-.36 1.235v5.515h-1.312zm14.85 0v-12.828h1.312v5.375q.454-.797 1.313-1.297.875-.5 1.797-.5 1.562 0 2.328.922.766.922.766 2.813v5.515h-1.329v-5.422q0-2.64-2.156-2.593-.781 0-1.39.343-.61.344-.97.922-.359.563-.359 1.235v5.515h-1.312zm13.998.172q-1.36 0-2.422-.578-1.047-.594-1.64-1.656-.578-1.063-.578-2.422 0-1.39.562-2.453.578-1.078 1.594-1.688 1.031-.625 2.344-.625 1.218 0 2.14.563.938.562 1.438 1.547.5.968.468 2.25l-.015.61h-7.188q.094 1.468 1.016 2.343.922.86 2.437.86.657 0 1.282-.204.64-.219 1.406-.875l.672.953q-.61.594-1.547.985-.922.39-1.969.39zm-.156-8.172q-1.25 0-2.063.672-.812.656-1.015 1.938h5.797v-.11q-.032-.61-.36-1.187-.328-.594-.937-.953-.594-.36-1.422-.36zm9.443 8.172q-1.172 0-2.125-.61-.953-.624-1.515-1.687-.547-1.062-.547-2.422 0-1.359.562-2.421.578-1.079 1.547-1.672.969-.61 2.172-.61 1.094 0 1.937.5.86.5 1.313 1.297l.031-1.61h1.328v9.063h-1.343v-1.61q-.485.767-1.391 1.282-.89.5-1.969.5zm.297-1.265q.906 0 1.61-.438.718-.437 1.124-1.219.407-.78.407-1.812 0-.985-.407-1.766-.406-.781-1.125-1.219-.703-.437-1.609-.437-.922 0-1.625.437-.703.438-1.11 1.22-.39.78-.39 1.765 0 1.015.39 1.812.407.782 1.11 1.22.703.437 1.625.437zm10.603 1.265q-1.25 0-2.235-.61-.968-.609-1.53-1.671-.563-1.063-.563-2.438 0-1.343.562-2.406.578-1.062 1.547-1.672.969-.625 2.188-.625 1.03 0 1.906.485.89.468 1.375 1.156v-5.219h1.312v12.828h-1.297l-.046-1.53q-.422.718-1.313 1.218-.875.484-1.906.484zm.172-1.219q.906 0 1.609-.437.719-.453 1.125-1.234.406-.797.406-1.829 0-1.015-.406-1.796-.406-.797-1.125-1.25-.703-.454-1.61-.454-.921 0-1.624.454-.703.453-1.11 1.25-.39.78-.39 1.796t.39 1.813q.407.797 1.11 1.25.703.437 1.625.437z"/><path fill="#c9daf8" d="M191.66 142.336h136.12v72.77c-68.06 0-68.06 27.727-136.12 11.974z" fill-rule="evenodd"/><path fill="#000" d="M250.354 187.496q-1.89 0-3.266-.797-1.36-.813-2.125-2.219l2.453-2.516q.61.875 1.172 1.282.578.39 1.266.39.812 0 1.297-.547.5-.562.5-1.437v-7.453h-3.094v-3.735h9.89v3.735h-2.593v7.953q0 1.656-.734 2.86-.735 1.187-1.97 1.843-1.234.64-2.796.64zm17.478 0q-2.594 0-4.344-.875-1.75-.891-3-2.485l2.594-2.922q1.203 1.578 2.437 2.141 1.235.547 2.485.547.937 0 1.53-.328.61-.344.61-1.016 0-.578-.5-.953-.484-.39-1.234-.61-.75-.234-1.516-.406-2.781-.593-4.156-1.89-1.36-1.297-1.36-3.438 0-1.562.891-2.719.906-1.171 2.36-1.828 1.468-.656 3.156-.656 2.547 0 4.031.781 1.484.782 2.406 2.125l-2.625 2.516q-.765-.89-1.703-1.328-.937-.453-1.937-.453-1.016 0-1.625.343-.594.329-.594.985 0 .5.422.844.422.328 1.062.53.657.204 1.36.345 1.75.343 3.078 1 1.328.64 2.078 1.687.75 1.031.75 2.578 0 1.766-.875 3-.86 1.219-2.36 1.86-1.5.625-3.421.625z"/><path fill="#434343" d="M42.228 162.636h136.41v-9.431L205 179.567l-26.362 26.362v-9.431H42.228z" fill-rule="evenodd"/><path fill="#fff" d="M52.869 185.427v-11.203h4.25q1.516 0 2.687.719 1.188.703 1.86 1.968.687 1.266.687 2.922 0 1.64-.687 2.906-.672 1.266-1.86 1.985-1.171.703-2.687.703h-4.25zm4.172-9.969h-2.906v8.735h2.906q1.156 0 2.062-.532.907-.547 1.422-1.53.516-.985.516-2.298 0-1.312-.516-2.297-.515-.984-1.422-1.53-.906-.548-2.062-.548zm10.95 10.125q-1.234 0-2.202-.562-.954-.563-1.516-1.547-.563-.985-.563-2.25 0-1.25.563-2.235.562-.984 1.516-1.546.968-.563 2.203-.563 1.234 0 2.203.563.969.562 1.515 1.546.563.985.563 2.235 0 1.265-.563 2.25-.546.984-1.515 1.547-.969.562-2.203.562zm0-1.14q.891 0 1.563-.422.688-.422 1.063-1.14.39-.735.39-1.657 0-.938-.39-1.64-.375-.72-1.063-1.126-.672-.422-1.562-.422-.875 0-1.563.422-.687.406-1.078 1.125-.375.719-.375 1.64 0 .923.375 1.657.39.719 1.078 1.14.688.423 1.563.423zm7.69.984l-2.922-8.375h1.297l2.062 6.25 2.235-4.953h.734l2.187 4.875 2.079-6.172h1.28l-2.89 8.375h-.719l-2.343-5.36-2.266 5.36h-.734zm10.367 0v-8.375h1.203l.032 1.437q.375-.671 1.187-1.14.813-.469 1.703-.469 1.39 0 2.094.86.719.859.719 2.593v5.094H91.75v-5.016q0-2.437-1.968-2.39-.735 0-1.297.328-.563.312-.89.844-.329.515-.329 1.14v5.094h-1.219zm9.264 0v-11.844h1.218v11.844h-1.218zm7.112.156q-1.235 0-2.203-.562-.953-.563-1.516-1.547-.562-.985-.562-2.25 0-1.25.562-2.235.563-.984 1.516-1.546.968-.563 2.203-.563 1.234 0 2.203.563.969.562 1.516 1.546.562.985.562 2.235 0 1.265-.562 2.25-.547.984-1.516 1.547-.969.562-2.203.562zm0-1.14q.89 0 1.562-.422.688-.422 1.063-1.14.39-.735.39-1.657 0-.938-.39-1.64-.375-.72-1.063-1.126-.672-.422-1.562-.422-.875 0-1.563.422-.687.406-1.078 1.125-.375.719-.375 1.64 0 .923.375 1.657.39.719 1.078 1.14.688.423 1.563.423zm9.29 1.14q-1.094 0-1.984-.562-.875-.563-1.391-1.547-.5-.985-.5-2.235 0-1.265.516-2.25.53-.984 1.421-1.546.907-.563 2.016-.563 1 0 1.797.469.797.469 1.203 1.203l.031-1.5h1.22v8.375h-1.235v-1.484q-.438.703-1.282 1.171-.828.47-1.812.47zm.266-1.172q.828 0 1.484-.406t1.031-1.125q.375-.719.375-1.656 0-.922-.375-1.64-.375-.72-1.031-1.126-.656-.406-1.484-.406-.844 0-1.5.406-.641.406-1.016 1.125-.36.719-.36 1.64 0 .923.36 1.657.375.719 1.016 1.125.656.406 1.5.406zm9.795 1.172q-1.157 0-2.063-.547-.906-.562-1.422-1.547-.515-.984-.515-2.25 0-1.25.515-2.234.531-.984 1.422-1.547.906-.578 2.031-.578.953 0 1.766.453.812.438 1.25 1.063v-4.813h1.219v11.844h-1.203l-.032-1.406q-.39.656-1.218 1.11-.813.452-1.75.452zm.156-1.11q.828 0 1.484-.421.656-.422 1.031-1.14.375-.735.375-1.673 0-.953-.375-1.671-.375-.735-1.03-1.141-.657-.422-1.485-.422-.844 0-1.5.422-.656.406-1.031 1.14-.36.72-.36 1.672 0 .922.36 1.657.375.734 1.03 1.156.657.422 1.5.422zm13.9 1.11q-1.062 0-1.921-.531-.844-.547-1.344-1.5l.844-.875q.61.953 1.172 1.312.578.344 1.25.344 1 0 1.609-.672.625-.687.625-1.75v-6.484h-2.047v-1.203h4.985v1.203h-1.641v6.594q0 1.015-.469 1.828-.453.812-1.25 1.281-.781.453-1.812.453zm10.847 0q-2.625 0-4.093-2.14l.89-.97q.75 1.063 1.532 1.5.796.423 1.78.423.735 0 1.313-.235.578-.234.907-.656.343-.437.343-.984 0-.922-.765-1.375-.75-.47-2.11-.797-1.625-.375-2.484-1.094-.86-.734-.86-2.094 0-.89.485-1.578.5-.687 1.328-1.078.828-.406 1.875-.406 1.297 0 2.188.531.89.531 1.468 1.453l-.89.89q-.516-.796-1.203-1.234-.688-.453-1.594-.453-1.047 0-1.719.516-.656.516-.656 1.344 0 .797.61 1.25.609.437 2 .75 1.655.375 2.624 1.11.985.733.985 2.015 0 .984-.5 1.734-.485.75-1.375 1.172-.891.406-2.079.406z"/><path fill="#fff2cc" d="M186.92 253.003h145.669v60.882h-145.67z" fill-rule="evenodd"/><path fill="#000" d="M237.38 279.551q-2.015 0-3.374-.687-1.36-.688-2.328-1.922l2.015-2.282q.938 1.235 1.89 1.672.97.422 1.938.422.72 0 1.188-.265.469-.266.469-.782 0-.453-.39-.75-.376-.297-.954-.468-.578-.188-1.172-.313-2.172-.469-3.234-1.469-1.063-1.015-1.063-2.672 0-1.218.703-2.109.703-.906 1.828-1.422 1.141-.515 2.454-.515 1.968 0 3.125.609 1.171.61 1.875 1.64l-2.032 1.97q-.593-.688-1.328-1.032-.734-.36-1.515-.36-.782 0-1.25.266-.47.266-.47.766 0 .39.329.656.328.266.828.422.516.156 1.047.266 1.36.265 2.39.765 1.047.5 1.626 1.313.578.812.578 2.015 0 1.375-.672 2.329-.672.953-1.844 1.453-1.156.484-2.656.484zm11.566 0q-1.468 0-2.625-.672-1.14-.672-1.812-1.828-.656-1.172-.656-2.656 0-1.485.656-2.64.672-1.173 1.812-1.845 1.157-.671 2.625-.671 1.328 0 2.438.453 1.125.453 1.781 1.28l-1.719 2.048q-.375-.453-.937-.75-.563-.297-1.281-.297-1 0-1.641.687-.625.672-.625 1.72 0 1.03.625 1.734.64.687 1.64.687.72 0 1.266-.266.547-.265.953-.75l1.703 2.063q-.656.781-1.78 1.25-1.126.453-2.423.453zm5.83-.187v-9.922h2.985l.046 1.468q.516-.75 1.282-1.203.781-.468 1.656-.468.312 0 .61.062.296.047.546.125l-.86 3.484q-.202-.109-.562-.203-.359-.11-.765-.11-.782 0-1.282.517-.484.515-.484 1.359v4.89h-3.172zm10.404-11.844q-.875 0-1.36-.422-.484-.422-.484-1.188 0-.687.484-1.125.5-.453 1.36-.453.875 0 1.375.422.5.406.5 1.156 0 .704-.5 1.157-.5.453-1.375.453zm-1.563 11.844v-9.922h3.156v9.922h-3.156zm5.972 4.109v-14.031h2.985l.047 1.015q.484-.53 1.28-.86.813-.343 1.75-.343 1.266 0 2.235.656.985.641 1.547 1.813.578 1.172.578 2.672 0 1.484-.578 2.656-.562 1.156-1.562 1.828-.985.656-2.266.656-.828 0-1.578-.312-.75-.313-1.266-.813v5.063h-3.172zm5.22-6.594q.952 0 1.53-.672.578-.672.578-1.812 0-1.156-.578-1.828-.562-.672-1.53-.672-.985 0-1.563.672-.579.672-.579 1.828 0 1.14.579 1.812.578.672 1.562.672zm7.9 2.485v-7.188h-1.72v-2.734h1.72v-2.5h3.171v2.5h1.844v2.734h-1.844v7.188h-3.172zM214.415 301.364V288.3h9.25v2.813h-6.016v2.265h5.22v2.688h-5.22v2.484h6.235v2.813h-9.469zm10.877 0l3.593-5.079-3.5-4.843h3.766l1.672 2.578 1.312-2.578h3.735l-3.407 4.89 3.563 5.032h-3.75l-1.766-2.782-1.515 2.782h-3.703zm16.579.187q-1.656 0-2.89-.656-1.22-.672-1.891-1.828-.672-1.157-.672-2.625 0-1.532.656-2.688.656-1.172 1.797-1.844 1.14-.671 2.594-.671 1.39 0 2.468.656 1.094.64 1.688 1.781.594 1.14.578 2.594l-.016.797h-6.703q.25.812.938 1.28.703.454 1.812.454.61 0 1.078-.172.485-.172 1.032-.61l1.468 2.095q-.937.765-1.921 1.109-.985.328-2.016.328zm-.36-7.703q-1.687 0-2.062 1.531h3.844v-.015q-.047-.657-.547-1.079-.484-.437-1.234-.437zm10.933 7.703q-1.469 0-2.625-.672-1.14-.672-1.812-1.828-.657-1.172-.657-2.656 0-1.485.657-2.64.672-1.173 1.812-1.845 1.156-.671 2.625-.671 1.328 0 2.438.453 1.125.453 1.78 1.28l-1.718 2.048q-.375-.453-.937-.75-.563-.297-1.282-.297-1 0-1.64.687-.625.672-.625 1.72 0 1.03.625 1.734.64.687 1.64.687.72 0 1.266-.266.547-.265.953-.75l1.703 2.063q-.656.781-1.78 1.25-1.126.453-2.423.453zm9.19.016q-1.641 0-2.579-1.047-.921-1.063-.921-2.969v-6.11h3.171v5.75q0 .829.407 1.298.406.468 1.14.468.735 0 1.203-.437.47-.453.47-1.156v-5.922h3.171v9.922h-2.969l-.093-1.235q-.485.656-1.297 1.047-.797.39-1.703.39zm9.48-.203v-7.188h-1.72v-2.734h1.72v-2.5h3.171v2.5h1.844v2.734h-1.844v7.188h-3.172zm8.496-11.844q-.875 0-1.36-.422-.484-.422-.484-1.188 0-.687.485-1.125.5-.453 1.36-.453.874 0 1.374.422.5.406.5 1.156 0 .704-.5 1.157-.5.453-1.375.453zm-1.562 11.844v-9.922h3.156v9.922h-3.156zm10.675.187q-1.547 0-2.781-.672-1.22-.672-1.938-1.828-.703-1.156-.703-2.656 0-1.485.703-2.64.719-1.173 1.938-1.845 1.234-.671 2.78-.671 1.548 0 2.767.671 1.218.672 1.921 1.844.704 1.156.704 2.64 0 1.5-.704 2.657-.703 1.156-1.921 1.828-1.22.672-2.766.672zm0-2.703q.953 0 1.562-.688.61-.703.61-1.765 0-1.078-.61-1.766-.609-.703-1.562-.703-.953 0-1.578.703-.625.688-.625 1.766 0 1.062.625 1.765.625.688 1.578.688zm7.33 2.516v-9.922h2.969l.062 1.156q.532-.625 1.313-.984.797-.375 1.672-.375 1.687 0 2.562 1.03.89 1.032.89 3v6.095h-3.171v-5.844q0-1.672-1.438-1.64-.734 0-1.218.452-.485.453-.485 1.094v5.938h-3.156z"/><path fill="#fff2cc" d="M427.62 116.528l9.92-9.922 9.922 9.922-9.921 9.92z" fill-rule="evenodd"/><path stroke="#000" stroke-linejoin="round" stroke-linecap="butt" d="M427.62 116.528l9.92-9.922 9.922 9.922-9.921 9.92z"/><path fill="none" d="M444.617 85.819h136.126v61.417H444.617z"/><path fill="#000" d="M458.96 111.63q-2.843 0-4.437-2.327l.953-1.047q.813 1.156 1.672 1.625.86.469 1.906.469.797 0 1.422-.25.64-.266 1-.72.375-.468.375-1.077 0-.985-.828-1.485-.828-.5-2.297-.86-1.765-.405-2.703-1.187-.922-.796-.922-2.265 0-.953.531-1.703.532-.75 1.422-1.172.907-.438 2.032-.438 1.406 0 2.375.578.968.563 1.593 1.563l-.968.969q-.547-.86-1.297-1.344-.75-.484-1.735-.484-1.125 0-1.843.562-.72.563-.72 1.453 0 .86.657 1.344.656.484 2.172.812 1.797.422 2.844 1.22 1.062.796 1.062 2.187 0 1.047-.531 1.859-.531.813-1.5 1.266-.953.453-2.234.453zm8.006 3.813l1.532-3.734-4.203-9.313h1.484l3.11 6.938q.062.156.124.344.078.172.14.359.063-.14.11-.281l.125-.313 2.703-7.047h1.5l-3.656 9.063-1.562 3.984h-1.407zm8.017-3.984v-9.063h1.297l.031 1.547q.422-.734 1.297-1.234t1.844-.5q1.515 0 2.28.922.767.922.767 2.812v5.516h-1.329v-5.422q0-2.656-2.14-2.594-.797 0-1.406.344-.61.344-.97.922-.359.562-.359 1.234v5.516h-1.312zm13.81.172q-1.28 0-2.296-.61-1-.625-1.578-1.687-.578-1.063-.578-2.422 0-1.344.578-2.406.578-1.063 1.593-1.672 1.016-.625 2.313-.625 1.14 0 2.094.469.953.468 1.531 1.28l-.766.938q-.5-.64-1.265-1.03-.766-.407-1.547-.407-.922 0-1.656.453-.735.438-1.157 1.219-.406.781-.406 1.781 0 1 .422 1.797.437.781 1.156 1.234.735.438 1.625.438 1.594 0 2.797-1.422l.781.953q-.609.781-1.593 1.25-.97.469-2.047.469zm5.32-.172V98.63h1.313v5.375q.453-.797 1.312-1.297.875-.5 1.797-.5 1.562 0 2.328.922.766.922.766 2.812v5.516H500.3v-5.422q0-2.64-2.157-2.594-.78 0-1.39.344-.61.344-.97.922-.358.562-.358 1.234v5.516h-1.313zm9.998 0v-9.063h1.313l.015 1.75q.375-.812 1.11-1.375.75-.562 1.703-.562.297 0 .547.047.265.047.437.11l-.359 1.468q-.453-.188-.906-.188-.782 0-1.36.375-.562.375-.875.985-.297.594-.297 1.328v5.125h-1.328zm10.1.172q-1.328 0-2.375-.61-1.047-.625-1.657-1.687-.609-1.063-.609-2.438 0-1.343.61-2.406.609-1.078 1.656-1.672 1.047-.61 2.375-.61 1.343 0 2.39.61 1.047.594 1.64 1.672.595 1.063.595 2.406 0 1.375-.594 2.438-.594 1.062-1.64 1.687-1.048.61-2.391.61zm0-1.25q.953 0 1.687-.438.735-.453 1.156-1.234.422-.797.422-1.813 0-1-.422-1.765-.421-.781-1.156-1.219-.734-.453-1.687-.453-.953 0-1.703.453-.735.438-1.157 1.219-.406.781-.406 1.765 0 1.016.406 1.813.422.781 1.157 1.234.75.438 1.703.438zm6.518 1.078v-9.063h1.297l.03 1.547q.423-.734 1.298-1.234t1.844-.5q1.515 0 2.28.922.766.922.766 2.812v5.516h-1.328v-5.422q0-2.656-2.14-2.594-.797 0-1.407.344-.609.344-.968.922-.36.562-.36 1.234v5.516h-1.312zm13.998.172q-1.328 0-2.375-.61-1.047-.625-1.656-1.687-.61-1.063-.61-2.438 0-1.343.61-2.406.61-1.078 1.656-1.672 1.047-.61 2.375-.61 1.344 0 2.39.61 1.048.594 1.641 1.672.594 1.063.594 2.406 0 1.375-.594 2.438-.593 1.062-1.64 1.687-1.047.61-2.39.61zm0-1.25q.953 0 1.688-.438.734-.453 1.156-1.234.422-.797.422-1.813 0-1-.422-1.765-.422-.781-1.156-1.219-.735-.453-1.688-.453t-1.703.453q-.734.438-1.156 1.219-.407.781-.407 1.765 0 1.016.407 1.813.422.781 1.156 1.234.75.438 1.703.438zm9.721 1.25q-1.562 0-2.39-.938-.828-.953-.828-2.75v-5.547h1.328v5.282q0 2.765 2.28 2.765.735 0 1.345-.343.61-.344.953-.922.36-.578.36-1.282v-5.5h1.327v9.063h-1.312l-.047-1.563q-.422.75-1.25 1.25-.828.485-1.766.485zm9.884 0q-1.188 0-2.094-.422-.906-.422-1.469-1.156l.938-.813q.984 1.235 2.719 1.235.843 0 1.359-.375.531-.375.531-1.032 0-.562-.484-.922-.219-.171-.64-.328-.407-.156-1-.328-.97-.265-1.61-.547-.64-.297-1.016-.687-.515-.578-.515-1.469 0-.75.406-1.328.406-.578 1.125-.906.719-.344 1.625-.344.969 0 1.875.406t1.484 1.047l-.812.89q-.516-.546-1.157-.874-.625-.328-1.328-.328-.843 0-1.36.39-.5.375-.5 1 0 .5.392.828.25.188.687.36.438.156 1.094.328.75.219 1.281.437.547.203.89.5.86.657.86 1.813 0 .75-.437 1.36-.422.593-1.172.937-.735.328-1.672.328zM458.18 132.43q-1.173 0-2.094-.577-.907-.594-1.454-1.625l.907-.953q.656 1.046 1.28 1.437.626.375 1.36.375 1.063 0 1.735-.734.672-.75.672-1.907v-7.015h-2.22v-1.297h5.407v1.297h-1.781v7.14q0 1.11-.5 1.985t-1.36 1.375q-.843.5-1.953.5zm11.75 0q-2.845 0-4.438-2.327l.953-1.047q.812 1.156 1.672 1.625.86.469 1.906.469.797 0 1.422-.25.64-.266 1-.72.375-.468.375-1.077 0-.985-.828-1.485-.828-.5-2.297-.86-1.766-.405-2.703-1.187-.922-.796-.922-2.265 0-.953.531-1.703.531-.75 1.422-1.172.906-.438 2.031-.438 1.406 0 2.375.578.969.563 1.594 1.563l-.969.969q-.547-.86-1.297-1.344-.75-.484-1.734-.484-1.125 0-1.844.562-.719.563-.719 1.453 0 .86.657 1.344.656.484 2.172.812 1.796.422 2.843 1.22 1.063.796 1.063 2.187 0 1.047-.531 1.859-.532.813-1.5 1.266-.954.453-2.235.453zm12.154-11.171q-.485 0-.75-.25-.25-.25-.25-.703 0-.438.25-.688.265-.265.75-.265.469 0 .719.25.265.25.265.703 0 .437-.265.703-.25.25-.72.25zm-.656 11v-9.063h1.328v9.063h-1.328zm3.97 0v-9.063h1.296l.031 1.547q.422-.734 1.297-1.234t1.844-.5q1.515 0 2.281.922.766.922.766 2.812v5.516h-1.328v-5.422q0-2.656-2.141-2.594-.797 0-1.406.344-.61.344-.969.922-.36.562-.36 1.234v5.516h-1.312zm14.85 0V119.43h1.312v5.375q.453-.797 1.312-1.297.875-.5 1.797-.5 1.563 0 2.328.922.766.922.766 2.812v5.516h-1.328v-5.422q0-2.64-2.157-2.594-.78 0-1.39.344-.61.344-.969.922-.36.562-.36 1.234v5.516h-1.312zm13.997.172q-1.359 0-2.421-.578-1.047-.594-1.641-1.657-.578-1.062-.578-2.421 0-1.391.562-2.454.578-1.078 1.594-1.687 1.031-.625 2.344-.625 1.219 0 2.14.562.938.563 1.438 1.547.5.969.469 2.25l-.016.61h-7.187q.093 1.468 1.015 2.343.922.86 2.438.86.656 0 1.281-.203.64-.22 1.406-.875l.672.953q-.61.594-1.547.984-.922.39-1.969.39zm-.156-8.172q-1.25 0-2.062.672-.813.656-1.016 1.937h5.797v-.11q-.031-.608-.36-1.187-.328-.593-.937-.953-.594-.36-1.422-.36zm9.443 8.172q-1.171 0-2.125-.61-.953-.625-1.515-1.687-.547-1.063-.547-2.422 0-1.36.562-2.422.579-1.078 1.547-1.672.969-.61 2.172-.61 1.094 0 1.938.5.859.5 1.312 1.298l.031-1.61h1.329v9.063h-1.344v-1.61q-.485.766-1.39 1.282-.891.5-1.97.5zm.297-1.266q.907 0 1.61-.437.718-.438 1.125-1.22.406-.78.406-1.812 0-.984-.406-1.765-.407-.781-1.125-1.219-.703-.437-1.61-.437-.922 0-1.625.437-.703.438-1.11 1.219-.39.781-.39 1.765 0 1.016.39 1.813.407.781 1.11 1.219.703.437 1.625.437zm10.603 1.266q-1.25 0-2.234-.61-.969-.609-1.532-1.671-.562-1.063-.562-2.438 0-1.344.562-2.406.579-1.063 1.547-1.672.97-.625 2.188-.625 1.031 0 1.906.484.89.469 1.375 1.157v-5.22h1.313v12.829h-1.297l-.047-1.531q-.422.718-1.313 1.218-.875.485-1.906.485zm.172-1.219q.906 0 1.61-.437.718-.454 1.124-1.235.407-.797.407-1.828 0-1.016-.407-1.797-.406-.797-1.125-1.25-.703-.453-1.609-.453-.922 0-1.625.453t-1.11 1.25q-.39.781-.39 1.797t.39 1.813q.407.796 1.11 1.25.703.437 1.625.437z"/><path fill="none" d="M427.62 116.528H259.713v25.795"/><path stroke="#666" stroke-width="2" stroke-linejoin="round" stroke-linecap="butt" d="M427.62 116.528H259.713v13.795"/><path fill="#666" stroke="#666" stroke-width="2" stroke-linecap="butt" d="M256.41 130.323l3.304 9.076 3.303-9.076z" fill-rule="evenodd"/><path fill="none" d="M259.72 227.08l.032 25.92"/><path stroke="#666" stroke-width="2" stroke-linejoin="round" stroke-linecap="butt" d="M259.72 227.08l.018 13.92"/><path fill="#666" stroke="#666" stroke-width="2" stroke-linecap="butt" d="M256.434 241.005l3.315 9.072 3.292-9.08z" fill-rule="evenodd"/><path fill="none" d="M332.589 283.444h48.159v.063h48.156"/><path stroke="#666" stroke-width="2" stroke-linejoin="round" stroke-linecap="butt" d="M332.589 283.444h48.159v.063h36.156"/><path fill="#666" stroke="#666" stroke-width="2" stroke-linecap="butt" d="M416.904 286.81l9.076-3.303-9.076-3.304z" fill-rule="evenodd"/><path fill="#fff2cc" d="M428.908 283.444a8.567 8.567 0 0117.134 0 8.567 8.567 0 11-17.134 0z" fill-rule="evenodd"/><path stroke="#000" stroke-linejoin="round" stroke-linecap="butt" d="M428.908 283.444h0a8.567 8.567 0 018.567-8.567h0a8.567 8.567 0 018.567 8.567h0a8.567 8.567 0 01-8.567 8.566h0a8.567 8.567 0 01-8.567-8.566z"/><path fill="none" d="M437.476 94.812v8.318h.063v3.461"/><path stroke="#666" stroke-width="2" stroke-linejoin="round" stroke-linecap="butt" d="M437.476 94.812v8.318h.063v3.461"/><path fill="none" d="M437.54 126.449l-.062 148.44"/><path stroke="#f4cccc" stroke-width="2" stroke-linejoin="round" stroke-linecap="butt" stroke-dasharray="8.0,6.0" d="M437.54 126.449l-.062 148.44"/><path fill="none" d="M369.478 160.025h136.126v61.417H369.478z"/><path fill="#980000" d="M381.808 185.665V173.54h3.125v4.687h4.328v-4.687h3.125v12.125h-3.125v-4.656h-4.328v4.656h-3.125zm16.238 0v-9.406h-3.625v-2.72h10.469v2.72h-3.719v9.406h-3.125zm8.888 0V173.54h2.765l3.406 5.516 3.454-5.516h2.656v12.125h-3.047v-3.594q0-.969.031-1.812.047-.844.11-1.625l-2.704 4.172h-1.14l-2.61-4.125q.063.734.079 1.562.03.828.03 1.828v3.594h-3.03zm15.248 0V173.54h3.125v9.406h5.36v2.719h-8.485zm15.987 3.812v-13.03h2.765l.063.952q.437-.5 1.187-.812.75-.313 1.61-.313 1.187 0 2.093.61.907.61 1.438 1.687.531 1.078.531 2.485 0 1.375-.531 2.453-.531 1.078-1.469 1.703-.922.61-2.094.61-.78 0-1.484-.282-.688-.297-1.172-.766v4.703h-2.937zm4.843-6.109q.891 0 1.422-.625.547-.625.547-1.687 0-1.079-.531-1.704t-1.438-.625q-.922 0-1.453.625t-.531 1.704q0 1.062.531 1.687t1.453.625zm10.004 2.453q-1.14 0-2.062-.61-.906-.624-1.438-1.702-.515-1.078-.515-2.47 0-1.405.515-2.468.532-1.078 1.454-1.687.937-.625 2.125-.625.906 0 1.578.343.687.344 1.125.907v-1.063h2.906v9.219h-2.969v-1.063q-.469.547-1.172.891-.687.328-1.547.328zm.829-2.437q.921 0 1.453-.625.53-.64.53-1.72 0-1.062-.53-1.687-.532-.64-1.453-.64-.907 0-1.438.64-.516.625-.516 1.688 0 1.078.516 1.719.531.625 1.438.625zm7.318 2.28v-9.218h2.765l.063 1.375q.453-.703 1.172-1.125.719-.437 1.547-.437.281 0 .562.047.281.046.5.125l-.797 3.234q-.187-.094-.515-.188-.328-.109-.703-.109-.735 0-1.204.5-.453.484-.453 1.25v4.547h-2.937zm11.132.173q-1.375 0-2.437-.422-1.047-.438-1.657-1.172l1.766-1.531q.531.547 1.219.797.687.234 1.265.234.453 0 .688-.172.25-.187.25-.484 0-.328-.297-.5-.313-.172-1.453-.469-1.594-.406-2.36-1.156-.359-.344-.546-.797-.188-.453-.188-1.016 0-.89.516-1.53.515-.657 1.375-1 .86-.36 1.828-.36 1.156 0 2.156.375 1 .375 1.734 1.015l-1.53 1.703q-.454-.406-1.11-.718-.64-.313-1.25-.313-.906 0-.906.656 0 .36.375.579.156.078.53.218.391.125 1.063.313.813.219 1.391.515.594.282.953.657.547.61.547 1.5t-.516 1.593q-.5.688-1.39 1.094-.89.39-2.016.39zm9.91 0q-1.53 0-2.671-.61-1.14-.625-1.766-1.687-.61-1.078-.61-2.453 0-1.422.595-2.5.609-1.078 1.671-1.703 1.063-.625 2.407-.625 1.297 0 2.297.61 1.015.593 1.562 1.655.563 1.063.547 2.407l-.016.75h-6.234q.234.75.875 1.187.656.422 1.672.422.578 0 1.015-.156.454-.172.954-.578l1.359 1.953q-.86.703-1.781 1.015-.922.313-1.875.313zm-.327-7.156q-1.579 0-1.922 1.421h3.578v-.015q-.047-.61-.5-1-.453-.406-1.156-.406zm6.091 6.984v-9.219h2.766l.062 1.375q.454-.703 1.172-1.125.719-.437 1.547-.437.281 0 .563.047.28.046.5.125l-.797 3.234q-.188-.094-.516-.188-.328-.109-.703-.109-.734 0-1.203.5-.453.484-.453 1.25v4.547h-2.938zM409.638 206.652q-.875 0-1.64-.312-.75-.328-1.219-.844l-.078.953h-2.703v-12.812h2.937v4.515q.47-.484 1.157-.78.703-.313 1.468-.313 1.188 0 2.11.625.937.625 1.468 1.703.532 1.078.532 2.469 0 1.406-.532 2.484-.515 1.078-1.421 1.703-.907.61-2.079.61zm-.812-2.453q.906 0 1.437-.625.547-.64.547-1.718 0-1.079-.547-1.704-.53-.64-1.437-.64-.906 0-1.438.64-.53.625-.53 1.704 0 1.078.53 1.718.532.625 1.438.625zm6.66 2.266v-12.828h2.938v12.828h-2.938zm9.593.172q-1.438 0-2.578-.625-1.125-.625-1.782-1.688-.656-1.078-.656-2.468 0-1.391.656-2.47.657-1.077 1.782-1.702 1.14-.625 2.578-.625 1.437 0 2.578.625 1.14.625 1.781 1.703.656 1.078.656 2.469 0 1.39-.656 2.468-.64 1.063-1.781 1.688-1.14.625-2.578.625zm0-2.516q.89 0 1.453-.64.578-.641.578-1.625 0-1-.578-1.641-.563-.656-1.453-.656-.875 0-1.47.656-.577.64-.577 1.64 0 .985.578 1.626.594.64 1.469.64zm10.88 2.516q-1.36 0-2.438-.625-1.063-.625-1.672-1.703-.61-1.078-.61-2.453 0-1.391.61-2.47.61-1.077 1.672-1.702 1.078-.625 2.437-.625 1.235 0 2.266.422 1.047.421 1.656 1.187l-1.594 1.906q-.343-.422-.875-.687-.53-.281-1.187-.281-.938 0-1.531.64-.578.625-.578 1.594 0 .953.578 1.61.593.64 1.531.64.656 0 1.172-.25.515-.25.89-.703l1.579 1.922q-.61.734-1.657 1.156-1.047.422-2.25.422zm5.415-.172v-12.828h2.938v6.734l3.015-3.125h3.875l-4.265 3.985 4.14 5.234h-3.453l-2.593-3.438-.72.672v2.766h-2.937zm15.03.172q-1.531 0-2.672-.61-1.14-.625-1.765-1.687-.61-1.078-.61-2.453 0-1.422.594-2.5.61-1.078 1.672-1.703 1.062-.625 2.406-.625 1.297 0 2.297.61 1.016.593 1.563 1.655.562 1.063.546 2.407l-.015.75h-6.235q.235.75.875 1.187.657.422 1.672.422.578 0 1.016-.156.453-.172.953-.578l1.36 1.953q-.86.703-1.782 1.015-.922.313-1.875.313zm-.328-7.156q-1.578 0-1.922 1.421h3.578v-.015q-.047-.61-.5-1-.453-.406-1.156-.406zm9.514 7.171q-1.172 0-2.094-.609-.922-.625-1.453-1.703t-.531-2.484q0-1.391.53-2.47.532-1.077 1.454-1.702.937-.625 2.14-.625.766 0 1.47.297.702.296 1.171.75v-4.47h2.953v12.829h-2.703l-.094-.969q-.453.5-1.203.828-.75.328-1.64.328zm.78-2.421q.923 0 1.454-.641.531-.64.531-1.734 0-1.079-.531-1.72-.531-.64-1.453-.64-.89 0-1.422.64-.531.641-.531 1.72 0 1.093.531 1.734.531.64 1.422.64z"/></g></svg>
