<?xml version="1.0" encoding="UTF-8"?>
<svg width="1200pt" height="1200pt" version="1.1" viewBox="0 0 1200 1200" xmlns="http://www.w3.org/2000/svg">
 <path d="m646.87 328.13v-103.12c0-10.359-8.3906-18.75-18.75-18.75h-150c-10.359 0-18.75 8.3906-18.75 18.75v103.12z"/>
 <path d="m459.37 365.63v384.37h187.5v-384.37zm46.875 300c0-10.359 8.3906-18.75 18.75-18.75h46.875c10.359 0 18.75 8.3906 18.75 18.75s-8.3906 18.75-18.75 18.75h-46.875c-10.359 0-18.75-8.3906-18.75-18.75z" fill-rule="evenodd"/>
 <path d="m459.37 787.5h187.5v75c0 10.359-8.3906 18.75-18.75 18.75h-150c-10.359 0-18.75-8.3906-18.75-18.75z"/>
 <path d="m421.87 787.5v75c0 10.359-8.3906 18.75-18.75 18.75h-112.5c-10.359 0-18.75-8.3906-18.75-18.75v-75z"/>
 <path d="m421.87 750v-93.75h-150v93.75z"/>
 <path d="m421.87 618.74v-271.87c0-10.359-8.3906-18.75-18.75-18.75h-112.5c-10.359 0-18.75 8.3906-18.75 18.75v271.87z"/>
 <path d="m920.48 535.92 16.219 92.016-147.74 26.016-16.219-91.969z"/>
 <path d="m943.22 664.87-147.74 26.016 28.547 161.95c1.8281 10.219 11.531 17.016 21.75 15.234l110.77-19.547c10.219-1.7812 17.016-11.531 15.234-21.703z"/>
 <path d="m913.97 498.98-147.74 26.062-31.734-180c-1.7812-10.172 5.0156-19.922 15.234-21.703l110.77-19.547c10.219-1.7812 19.922 5.0156 21.75 15.234z"/>
 <path d="m225 918.74c-10.359 0-18.75 8.3906-18.75 18.75v37.5c0 10.359 8.3906 18.75 18.75 18.75h750c10.359 0 18.75-8.3906 18.75-18.75v-37.5c0-10.359-8.3906-18.75-18.75-18.75z"/>
</svg>
