<?xml version="1.0" encoding="UTF-8"?>
<svg width="1200pt" height="1200pt" version="1.1" viewBox="0 0 1200 1200" xmlns="http://www.w3.org/2000/svg">
 <path d="m525 646.87c-10.359 0-18.75 8.3906-18.75 18.75s8.3906 18.75 18.75 18.75h46.875c10.359 0 18.75-8.3906 18.75-18.75s-8.3906-18.75-18.75-18.75z"/>
 <path d="m684.37 862.5c0 6.5625-1.125 12.891-3.1875 18.75h114.8c-4.3594-6.375-7.4531-13.781-8.8594-21.891l-89.578-507.79c-5.3906-30.562 15.047-59.766 45.656-65.156l110.77-19.547c30.609-5.3906 59.766 15.047 65.156 45.656l89.578 507.79c4.5469 25.781-9.2812 50.578-32.109 60.938 30.328 0.89062 54.656 25.734 54.656 56.25v37.5c0 31.078-25.172 56.25-56.25 56.25h-750c-31.078 0-56.25-25.172-56.25-56.25v-37.5c0-31.078 25.172-56.25 56.25-56.25h12.562c-2.0625-5.8594-3.1875-12.188-3.1875-18.75v-515.63c0-31.078 25.172-56.25 56.25-56.25h112.5c6.5625 0 12.891 1.125 18.75 3.1875v-68.812c0-31.078 25.172-56.25 56.25-56.25h150c31.078 0 56.25 25.172 56.25 56.25zm-37.5-637.5v103.12h-187.5v-103.12c0-10.359 8.3906-18.75 18.75-18.75h150c10.359 0 18.75 8.3906 18.75 18.75zm-187.5 140.63h187.5v384.37h-187.5zm187.5 496.87v-75h-187.5v75c0 10.359 8.3906 18.75 18.75 18.75h150c10.359 0 18.75-8.3906 18.75-18.75zm-225 0v-75h-150v75c0 10.359 8.3906 18.75 18.75 18.75h112.5c10.359 0 18.75-8.3906 18.75-18.75zm0-206.26v93.75h-150v-93.75zm0-309.37v271.87h-150v-271.87c0-10.359 8.3906-18.75 18.75-18.75h112.5c10.359 0 18.75 8.3906 18.75 18.75zm514.82 281.06-16.219-92.016-147.74 26.062 16.219 91.969zm-141.24 62.953 147.74-26.016 28.547 161.95c1.7812 10.172-5.0156 19.922-15.234 21.703l-110.77 19.547c-10.219 1.7812-19.922-5.0156-21.75-15.234zm-29.25-165.84 147.74-26.062-31.734-179.95c-1.8281-10.219-11.531-17.016-21.75-15.234l-110.77 19.547c-10.219 1.7812-17.016 11.531-15.234 21.703zm-541.22 393.71h750c10.359 0 18.75 8.3906 18.75 18.75v37.5c0 10.359-8.3906 18.75-18.75 18.75h-750c-10.359 0-18.75-8.3906-18.75-18.75v-37.5c0-10.359 8.3906-18.75 18.75-18.75z" fill-rule="evenodd"/>
</svg>
