<?xml version="1.0" standalone="no"?>
<!DOCTYPE svg PUBLIC "-//W3C//DTD SVG 20010904//EN"
 "http://www.w3.org/TR/2001/REC-SVG-20010904/DTD/svg10.dtd">
<svg version="1.0" xmlns="http://www.w3.org/2000/svg"
 width="802.000000pt" height="802.000000pt" viewBox="0 0 802.000000 802.000000"
 preserveAspectRatio="xMidYMid meet">
<metadata>
Created by potrace 1.11, written by Peter Selinger 2001-2013
</metadata>
<g transform="translate(0.000000,802.000000) scale(0.100000,-0.100000)"
fill="#000000" stroke="none">
<path d="M3715 5800 c-128 -12 -257 -38 -267 -52 -5 -7 -7 -92 -5 -188 3 -157
6 -180 26 -222 64 -132 262 -208 541 -208 162 0 388 43 418 79 21 25 11 341
-13 399 -35 86 -137 148 -290 177 -94 18 -300 25 -410 15z"/>
<path d="M1940 4871 c-208 -32 -346 -77 -460 -149 -161 -102 -251 -228 -284
-399 -19 -100 -19 -167 0 -273 40 -220 164 -343 429 -423 111 -34 152 -43 386
-87 283 -52 323 -74 317 -174 l-3 -51 -75 -8 c-109 -12 -508 -1 -615 18 -152
25 -270 61 -408 124 -38 17 -75 31 -82 31 -27 0 -38 -65 -43 -251 -3 -149 -1
-198 12 -250 60 -236 205 -340 536 -383 323 -42 712 -25 939 40 168 49 330
175 391 305 95 204 95 480 -1 660 -61 115 -195 212 -367 268 -35 11 -134 32
-220 46 -357 57 -423 74 -455 118 -17 22 -18 30 -8 54 28 68 126 88 390 80
148 -4 209 -10 296 -30 112 -26 218 -59 267 -83 15 -8 36 -14 46 -14 26 0 32
49 32 252 0 256 -33 371 -136 468 -104 98 -200 121 -529 126 -195 3 -262 0
-355 -15z"/>
<path d="M3423 4856 c-56 -6 -107 -16 -112 -21 -25 -25 -43 -205 -38 -373 6
-226 41 -352 117 -416 37 -30 93 -35 128 -10 12 8 27 12 32 9 6 -4 10 -185 10
-508 0 -276 5 -531 10 -566 28 -194 130 -309 308 -346 116 -24 237 -28 366
-11 167 23 169 23 162 55 -60 278 -66 383 -66 1214 0 793 4 754 -86 842 -87
86 -218 122 -489 136 -211 10 -210 10 -342 -5z"/>
<path d="M5410 4864 c-209 -18 -365 -75 -440 -162 -57 -66 -78 -123 -92 -246
-11 -107 1 -319 19 -337 6 -6 58 3 130 21 215 53 527 75 733 50 87 -11 239
-46 252 -58 6 -6 -36 -195 -57 -259 -3 -10 -14 -9 -47 3 -142 50 -459 83 -603
63 -149 -20 -276 -90 -410 -224 -191 -190 -250 -386 -195 -640 41 -185 138
-320 285 -396 114 -59 180 -73 340 -73 160 -1 239 18 355 82 86 47 215 177
258 260 18 34 37 62 42 62 6 0 23 -26 39 -58 51 -102 136 -200 225 -261 104
-72 197 -96 308 -81 253 36 385 252 376 618 -2 77 -7 144 -11 148 -4 5 -29 -3
-55 -18 -44 -24 -73 -32 -114 -29 -15 1 -17 36 -21 404 -4 447 -7 469 -73 601
-123 246 -357 428 -654 508 -64 17 -110 21 -310 23 -129 1 -255 1 -280 -1z
m503 -1340 l27 -6 0 -99 0 -99 -47 -24 c-71 -35 -148 -54 -248 -60 -104 -7
-152 6 -173 44 -16 30 -11 215 6 232 6 6 28 15 49 19 42 9 343 4 386 -7z"/>
</g>
</svg>
