<svg xmlns="http://www.w3.org/2000/svg" width="687.829" height="438.26" viewBox="0 0 644.84 410.869" aria-labelledby="title"><path fill="currentColor" d="M510.3 230.591c-24.932 3.115-45.188.778-45.188.778V78.704h47.525s52.981 14.798 52.981 70.88c0 51.407-26.489 71.66-55.317 81.007m131.328-107.174C620.844 13.641 511.081 0 511.081 0H19.414C3.177 0 1.18 21.435 1.18 21.435s-2.19 196.787-.6 317.64c4.404 65.116 69.495 71.794 69.495 71.794s222.127-.65 321.5-1.299c65.513-11.476 72.093-68.944 71.444-100.375 116.909 6.495 199.394-76 178.611-185.778"/><path d="M228.354 325.232c5.077 2.556 8.32-.62 8.32-.62s74.292-67.807 107.76-106.857c29.768-34.934 31.709-93.804-19.413-115.8-51.12-21.996-93.181 25.877-93.181 25.877-36.475-40.116-91.678-38.085-117.211-10.936-25.532 27.15-16.616 73.747 2.431 99.68 17.88 24.344 96.472 94.392 108.384 106.239 0 0 .868.908 2.91 2.417" fill="rgba(192,10,51,.8)"/></svg>
